<mxfile host="Electron" modified="2024-04-28T01:28:48.706Z" agent="Mozilla/5.0 (Windows NT 10.0; Win64; x64) AppleWebKit/537.36 (KHTML, like Gecko) draw.io/21.6.5 Chrome/114.0.5735.243 Electron/25.3.1 Safari/537.36" etag="n_PSeq4_RQxGj38QJSjU" version="21.6.5" type="device">
  <diagram name="PÃ¡gina-1" id="XBXrYTBwZ3KFGjBRLqd2">
    <mxGraphModel dx="839" dy="941" grid="1" gridSize="10" guides="1" tooltips="1" connect="1" arrows="1" fold="1" page="1" pageScale="1" pageWidth="827" pageHeight="1169" math="0" shadow="0">
      <root>
        <mxCell id="0" />
        <mxCell id="1" parent="0" />
        <mxCell id="kEX54H8yx_akzkPmugQH-39" value="" style="shape=image;verticalLabelPosition=bottom;labelBackgroundColor=default;verticalAlign=top;aspect=fixed;imageAspect=0;image=data:image/svg+xml,PHN2ZyB4bWxuczp4bGluaz0iaHR0cDovL3d3dy53My5vcmcvMTk5OS94bGluayIgeG1sbnM9Imh0dHA6Ly93d3cudzMub3JnLzIwMDAvc3ZnIiB4bWw6c3BhY2U9InByZXNlcnZlIiBzdHlsZT0iZW5hYmxlLWJhY2tncm91bmQ6bmV3IDAgMCA5MzUgMzk2OyIgdmlld0JveD0iMCAwIDkzNSAzOTYiIHk9IjBweCIgeD0iMHB4IiB2ZXJzaW9uPSIxLjEiPiYjeGE7PHN0eWxlIHR5cGU9InRleHQvY3NzIj4mI3hhOwkuc3Qwe2ZpbGw6IzFCMjU0Qjt9JiN4YTsJLnN0MXtkaXNwbGF5Om5vbmU7fSYjeGE7CS5zdDJ7ZGlzcGxheTppbmxpbmU7ZmlsbDojMjIyOTRCO30mI3hhOwkuc3Qze2ZvbnQtZmFtaWx5OidTYW1zdW5nU2hhcnBTYW5zJzt9JiN4YTsJLnN0NHtmb250LXNpemU6MTYyLjY2MDNweDt9JiN4YTsJLnN0NXtmb250LWZhbWlseTonU2Ftc3VuZ1NoYXJwU2Fucy1Cb2xkJzt9JiN4YTsJLnN0Nntmb250LXNpemU6MjA4LjQ0NjJweDt9JiN4YTsJLnN0N3tmaWxsOiMyMjI5NEI7fSYjeGE7PC9zdHlsZT4mI3hhOzxnIGlkPSJMT0dPXzAwMDAwMDcwODM5NTMxNjgwNDc1NjM3NjYwMDAwMDEwMzI0Nzc3OTA5NjczNDEzNTQ5XyI+JiN4YTsJPHBvbHlnb24gcG9pbnRzPSIxMjIuMzcsODUuNTkgODcuNjEsODUuNTkgODcuNjEsMjMyLjcyIDEyMi4zNywyNjAuMDQiIGNsYXNzPSJzdDAiLz4mI3hhOwk8cG9seWdvbiBwb2ludHM9IjI0NC44OCwxMTkuNzQgMjQ0Ljg4LDI1MC4xMSAxNTcuOTcsMzE5LjY0IDcxLjA1LDI1MC4xMSA3MS4wNSwxMTkuNzQgMzUuMDUsMTE5Ljc0IDM1LjA1LDI2Ny40OSAmIzEwOyYjOTsmIzk7MTU3Ljk3LDM2NC4zNCAyODAuODksMjY3LjQ5IDI4MC44OSwxMTkuNzQiIGNsYXNzPSJzdDAiLz4mI3hhOwk8cG9seWdvbiBwb2ludHM9IjIyOC4zMiw4NS41OSAxOTMuNTYsODUuNTkgMTkzLjU2LDI2MC4wNCAyMjguMzIsMjMyLjcyIiBjbGFzcz0ic3QwIi8+JiN4YTsJPHBvbHlnb24gcG9pbnRzPSIxNzQuOTMsMjczLjcgMTc0LjkzLDMyLjIgMTU3Ljk3LDMyLjIgMTQxLDMyLjIgMTQxLDI3My43IDE1Ny45NywyODguNiIgY2xhc3M9InN0MCIvPiYjeGE7PC9nPiYjeGE7PGcgaWQ9Ik5BTUUiPiYjeGE7CTx0ZXh0IGNsYXNzPSJzdDEiIHRyYW5zZm9ybT0ibWF0cml4KDEgMCAwIDEgMzQwLjQ5NTEgMTYzLjU5OTYpIj48dHNwYW4gY2xhc3M9InN0MiBzdDMgc3Q0IiB5PSIwIiB4PSIwIj5GT1VORCA8L3RzcGFuPjx0c3BhbiBjbGFzcz0ic3QyIHN0NSBzdDYiIHk9IjE4Ny40MSIgeD0iMCI+RkxPVzwvdHNwYW4+PC90ZXh0PiYjeGE7CTxnPiYjeGE7CQk8cGF0aCBkPSJNMzUyLjY5LDQ0Ljg2aDY3LjE4djguOTVoLTU3Ljc0djQ1Ljg3aDU3Ljc0djguOTVoLTU3Ljc0djU0Ljk4aC05LjQzVjQ0Ljg2eiIgY2xhc3M9InN0NyIvPiYjeGE7CQk8cGF0aCBkPSJNNDM4LjksMTA0LjIzYzAtMzMuNjcsMjcuMzMtNjEsNjEtNjFjMzMuNjcsMCw2MSwyNy4zMyw2MSw2MXMtMjcuMzMsNjEtNjEsNjEmIzEwOyYjOTsmIzk7JiM5O0M0NjYuMjMsMTY1LjIzLDQzOC45LDEzNy45LDQzOC45LDEwNC4yM3ogTTU1MS4xNCwxMDQuMjNjMC0yOC43OS0yMi4xMi01Mi4wNS01MS4yNC01Mi4wNWMtMjguOTUsMC01MS40LDIzLjI2LTUxLjQsNTIuMDUmIzEwOyYjOTsmIzk7JiM5O2MwLDI4LjQ3LDIyLjQ1LDUyLjA1LDUxLjQsNTIuMDVDNTI5LjAyLDE1Ni4yOCw1NTEuMTQsMTMyLjY5LDU1MS4xNCwxMDQuMjN6IiBjbGFzcz0ic3Q3Ii8+JiN4YTsJCTxwYXRoIGQ9Ik01ODEuMDcsMTI0Ljg5VjQ0Ljg2aDkuNDN2ODAuNTJjMCwxNy4wOCwxMy4zNCwzMC45LDMwLjkxLDMwLjljMTcuNCwwLDMxLjA3LTEzLjgzLDMxLjA3LTMxLjA3VjQ0Ljg2aDkuNDMmIzEwOyYjOTsmIzk7JiM5O3Y4MC4wM2MwLDIyLjc3LTE3LjU3LDQwLjM0LTQwLjUsNDAuMzRTNTgxLjA3LDE0Ny42Niw1ODEuMDcsMTI0Ljg5eiIgY2xhc3M9InN0NyIvPiYjeGE7CQk8cGF0aCBkPSJNNjg1LjgyLDQ0Ljg2aDEwLjQxbDc2LjQ1LDEwNC4xVjQ0Ljg2aDkuNDNWMTYzLjZoLTEwLjA4TDY5NS4yNSw1OS4wMVYxNjMuNmgtOS40M1Y0NC44NnoiIGNsYXNzPSJzdDciLz4mI3hhOwkJPHBhdGggZD0iTTgwNi41MSw0NC44NmgzMy4zNGMzNS43OSwwLDYxLjQ5LDI1LjcsNjEuNDksNTkuMzdjMCwzMy44My0yNi42OCw1OS4zNy02MS4xNiw1OS4zN2gtMzMuNjdWNDQuODZ6JiMxMDsmIzk7JiM5OyYjOTsgTTgxNS45NSw1My40OHYxMDEuMzRoMjMuNThjMjkuNzcsMCw1Mi4yMS0yMS44LDUyLjIxLTUwLjU5YzAtMjguNjMtMjEuNDctNTAuNzUtNTIuNTQtNTAuNzVIODE1Ljk1eiIgY2xhc3M9InN0NyIvPiYjeGE7CQk8cGF0aCBkPSJNMzQ5LjI1LDE5OC44NGg4Ni4wOXYyNy4xSDM3Ny42djM1LjAyaDU3Ljc0djI3LjFIMzc3LjZ2NjIuOTVoLTI4LjM1VjE5OC44NHoiIGNsYXNzPSJzdDciLz4mI3hhOwkJPHBhdGggZD0iTTQ1MS42LDE5OC44NGgyOC4zNXYxMjUuMDdoNTUuNjZ2MjcuMUg0NTEuNlYxOTguODR6IiBjbGFzcz0ic3Q3Ii8+JiN4YTsJCTxwYXRoIGQ9Ik01MzcuMjcsMjc0LjkyYzAtNDMuMTUsMzQuMzktNzguMTcsNzcuNzUtNzguMTdjNDMuMzYsMCw3Ny45NiwzNS4wMiw3Ny45Niw3OC4xNyYjMTA7JiM5OyYjOTsmIzk7YzAsNDMuMzYtMzQuNiw3OC4xNy03Ny45Niw3OC4xN0M1NzEuNjYsMzUzLjA5LDUzNy4yNywzMTguMjgsNTM3LjI3LDI3NC45MnogTTY2NC44NCwyNzQuOTJjMC0yNy43Mi0yMi4xLTUwLjI0LTQ5LjgyLTUwLjI0JiMxMDsmIzk7JiM5OyYjOTtjLTI3LjcyLDAtNDkuNjEsMjIuNTEtNDkuNjEsNTAuMjRjMCwyNy43MiwyMS44OSw1MC4yNCw0OS42MSw1MC4yNEM2NDIuNzQsMzI1LjE2LDY2NC44NCwzMDIuNjUsNjY0Ljg0LDI3NC45MnoiIGNsYXNzPSJzdDciLz4mI3hhOwkJPHBhdGggZD0iTTY5MS45MywxOTguODRoMjkuNmwyOC43NywxMDYuNTJsMzEuODktMTA2LjUyaDI3LjkzbDMxLjY4LDEwNi4xbDI4LjU2LTEwNi4xaDI4LjU2bC00Mi45NCwxNTIuMTdoLTI4LjE0JiMxMDsmIzk7JiM5OyYjOTtsLTMxLjg5LTEwNy4zNWwtMzEuODksMTA3LjM1aC0yOC43N0w2OTEuOTMsMTk4Ljg0eiIgY2xhc3M9InN0NyIvPiYjeGE7CTwvZz4mI3hhOzwvZz4mI3hhOzwvc3ZnPg==;" parent="1" vertex="1">
          <mxGeometry x="20" y="30" width="283.32" height="120" as="geometry" />
        </mxCell>
        <mxCell id="kEX54H8yx_akzkPmugQH-41" value="" style="group" parent="1" vertex="1" connectable="0">
          <mxGeometry x="320" y="180" width="158.39999999999998" height="152" as="geometry" />
        </mxCell>
        <mxCell id="kEX54H8yx_akzkPmugQH-6" value="Interface Web&lt;br&gt;(PWA)" style="whiteSpace=wrap;html=1;aspect=fixed;strokeColor=#666666;fontColor=#FFFFFF;fontSize=14;fontStyle=1;fontFamily=Tahoma;fillColor=#6bd9fa;" parent="kEX54H8yx_akzkPmugQH-41" vertex="1">
          <mxGeometry y="20" width="132" height="132" as="geometry" />
        </mxCell>
        <mxCell id="kEX54H8yx_akzkPmugQH-7" value="" style="shape=image;verticalLabelPosition=bottom;labelBackgroundColor=default;verticalAlign=top;aspect=fixed;imageAspect=0;image=https://ionicframework.com/docs/icons/logo-react-icon.png;" parent="kEX54H8yx_akzkPmugQH-41" vertex="1">
          <mxGeometry x="104.39999999999998" y="-10" width="54" height="54" as="geometry" />
        </mxCell>
        <mxCell id="kEX54H8yx_akzkPmugQH-56" value="" style="group" parent="1" vertex="1" connectable="0">
          <mxGeometry x="71" y="810" width="190" height="210" as="geometry" />
        </mxCell>
        <mxCell id="kEX54H8yx_akzkPmugQH-35" value="" style="rounded=1;whiteSpace=wrap;html=1;fillStyle=auto;strokeColor=#4D4D4D;fontColor=#FFFFFF;fillColor=none;dashed=1;strokeWidth=2;container=0;" parent="kEX54H8yx_akzkPmugQH-56" vertex="1">
          <mxGeometry x="10" y="52.5" width="180" height="157.5" as="geometry" />
        </mxCell>
        <mxCell id="kEX54H8yx_akzkPmugQH-32" value="Banco Principal" style="shape=cylinder3;whiteSpace=wrap;html=1;boundedLbl=1;backgroundOutline=1;size=15;fillColor=#396690;strokeColor=#4D4D4D;fillStyle=auto;fontColor=#FFFFFF;strokeWidth=2;fontFamily=Tahoma;fontSize=12;fontStyle=1;container=0;" parent="kEX54H8yx_akzkPmugQH-56" vertex="1">
          <mxGeometry x="30" y="110" width="140" height="70" as="geometry" />
        </mxCell>
        <mxCell id="kEX54H8yx_akzkPmugQH-36" value="" style="shape=image;verticalLabelPosition=bottom;labelBackgroundColor=default;verticalAlign=top;aspect=fixed;imageAspect=0;image=https://cdn.icon-icons.com/icons2/2107/PNG/512/file_type_docker_icon_130643.png;container=0;" parent="kEX54H8yx_akzkPmugQH-56" vertex="1">
          <mxGeometry width="80" height="80" as="geometry" />
        </mxCell>
        <mxCell id="kEX54H8yx_akzkPmugQH-54" value="" style="shape=image;verticalLabelPosition=bottom;labelBackgroundColor=default;verticalAlign=top;aspect=fixed;imageAspect=0;image=data:image/svg+xml,PHN2ZyB4bWxucz0iaHR0cDovL3d3dy53My5vcmcvMjAwMC9zdmciIHZlcnNpb249IjEuMSIgaWQ9InN2ZzIiIHZpZXdCb3g9IjAgMCA1MDAwIDQ5OTkuOTk5OSIgaGVpZ2h0PSI1MDAwIiB3aWR0aD0iNTAwMCI+JiN4YTsgIDxkZWZzIGlkPSJkZWZzNCIvPiYjeGE7ICAmI3hhOyAgPG1ldGFkYXRhIGlkPSJtZXRhZGF0YTciPiYjeGE7ICAgICYjeGE7ICAgICAgJiN4YTsgICAgICAgIGltYWdlL3N2Zyt4bWwmI3hhOyAgICAgICAgJiN4YTsgICAgICAgICYjeGE7ICAgICAgJiN4YTsgICAgJiN4YTsgIDwvbWV0YWRhdGE+JiN4YTsgIDxnIHRyYW5zZm9ybT0idHJhbnNsYXRlKDIzODYuOTEwMSwtMzc5OC43ODI3KSIgaWQ9ImxheWVyMSI+JiN4YTsgICAgPGNpcmNsZSByPSIyNTAwIiBjeT0iNjI5OC43ODI3IiBjeD0iMTEzLjA4OTkiIGlkPSJwYXRoODY0IiBzdHlsZT0iZmlsbDojMzM2NzkxO2ZpbGwtb3BhY2l0eToxIi8+JiN4YTsgICAgPGNpcmNsZSByPSIwIiBjeT0iLTMxNy45MzgzOSIgY3g9IjI1MjMuMTE2NyIgaWQ9InBhdGg0MzA0LTQtNiIgc3R5bGU9ImZpbGw6IzAwMDAwMDtmaWxsLW9wYWNpdHk6MTtzdHJva2U6bm9uZTtzdHJva2Utd2lkdGg6MjtzdHJva2UtbGluZWNhcDpzcXVhcmU7c3Ryb2tlLWxpbmVqb2luOm1pdGVyO3N0cm9rZS1taXRlcmxpbWl0OjQ7c3Ryb2tlLWRhc2hhcnJheTpub25lO3N0cm9rZS1vcGFjaXR5OjEiLz4mI3hhOyAgICA8Y2lyY2xlIHI9IjAiIGN5PSI4NjIuMzQ3MzUiIGN4PSIzMjAuMjU5NTIiIGlkPSJwYXRoNDMwNC00LTIiIHN0eWxlPSJmaWxsOiMwMDAwMDA7ZmlsbC1vcGFjaXR5OjE7c3Ryb2tlOm5vbmU7c3Ryb2tlLXdpZHRoOjI7c3Ryb2tlLWxpbmVjYXA6c3F1YXJlO3N0cm9rZS1saW5lam9pbjptaXRlcjtzdHJva2UtbWl0ZXJsaW1pdDo0O3N0cm9rZS1kYXNoYXJyYXk6bm9uZTtzdHJva2Utb3BhY2l0eToxIi8+JiN4YTsgICAgPGNpcmNsZSByPSIwIiBjeT0iODYyLjM0NzM1IiBjeD0iMjUyMy4xMTY3IiBpZD0icGF0aDQzMDQtNC0wIiBzdHlsZT0iZmlsbDojMDAwMDAwO2ZpbGwtb3BhY2l0eToxO3N0cm9rZTpub25lO3N0cm9rZS13aWR0aDoyO3N0cm9rZS1saW5lY2FwOnNxdWFyZTtzdHJva2UtbGluZWpvaW46bWl0ZXI7c3Ryb2tlLW1pdGVybGltaXQ6NDtzdHJva2UtZGFzaGFycmF5Om5vbmU7c3Ryb2tlLW9wYWNpdHk6MSIvPiYjeGE7ICAgIDxjaXJjbGUgcj0iMCIgY3k9IjI0NTYuMzQ3NCIgY3g9IjEzODUuOTczOCIgaWQ9InBhdGg0MzA0LTQtMC02IiBzdHlsZT0iZmlsbDojMDAwMDAwO2ZpbGwtb3BhY2l0eToxO3N0cm9rZTpub25lO3N0cm9rZS13aWR0aDoyO3N0cm9rZS1saW5lY2FwOnNxdWFyZTtzdHJva2UtbGluZWpvaW46bWl0ZXI7c3Ryb2tlLW1pdGVybGltaXQ6NDtzdHJva2UtZGFzaGFycmF5Om5vbmU7c3Ryb2tlLW9wYWNpdHk6MSIvPiYjeGE7ICAgIDxjaXJjbGUgcj0iMCIgY3k9IjIxNjIuMjQ3NiIgY3g9IjI0NTguOTQ3IiBpZD0icGF0aDQzMDQtNC05LTYiIHN0eWxlPSJmaWxsOiMwMDAwMDA7ZmlsbC1vcGFjaXR5OjE7c3Ryb2tlOm5vbmU7c3Ryb2tlLXdpZHRoOjI7c3Ryb2tlLWxpbmVjYXA6c3F1YXJlO3N0cm9rZS1saW5lam9pbjptaXRlcjtzdHJva2UtbWl0ZXJsaW1pdDo0O3N0cm9rZS1kYXNoYXJyYXk6bm9uZTtzdHJva2Utb3BhY2l0eToxIi8+JiN4YTsgICAgPGNpcmNsZSByPSIwIiBjeT0iLTMzOS4yOTk2OCIgY3g9IjI0NzUuNDM0NiIgaWQ9InBhdGg0MzA0LTQtOS0wIiBzdHlsZT0iZmlsbDojMDAwMDAwO2ZpbGwtb3BhY2l0eToxO3N0cm9rZTpub25lO3N0cm9rZS13aWR0aDoyO3N0cm9rZS1saW5lY2FwOnNxdWFyZTtzdHJva2UtbGluZWpvaW46bWl0ZXI7c3Ryb2tlLW1pdGVybGltaXQ6NDtzdHJva2UtZGFzaGFycmF5Om5vbmU7c3Ryb2tlLW9wYWNpdHk6MSIvPiYjeGE7ICAgIDxnIHRyYW5zZm9ybT0ibWF0cml4KDUuNTUwOTk3NCwwLDAsNS41NTA5OTc0LC0xMDg2LjkxMDEsNTIzNS4zNjQ5KSIgaWQ9Imc5NzYiPiYjeGE7ICAgICAgPGcgc3R5bGU9ImNsaXAtcnVsZTpub256ZXJvO2ZpbGwtcnVsZTpub256ZXJvO3N0cm9rZTojMDAwMDAwO3N0cm9rZS1taXRlcmxpbWl0OjQiIGlkPSJvcmdpbmFsIj4mI3hhOwk8L2c+JiN4YTsgICAgICA8ZyBzdHlsZT0iY2xpcC1ydWxlOm5vbnplcm87ZmlsbDpub25lO2ZpbGwtcnVsZTpub256ZXJvO3N0cm9rZTojZmZmZmZmO3N0cm9rZS13aWR0aDoxMi40NjUxO3N0cm9rZS1saW5lY2FwOnJvdW5kO3N0cm9rZS1saW5lam9pbjpyb3VuZDtzdHJva2UtbWl0ZXJsaW1pdDo0IiBpZD0iTGF5ZXJfeDAwMjBfMyI+JiN4YTs8cGF0aCBpZD0icGF0aDkyOSIgZD0ibSAzMjMuMjA1LDMyNC4yMjcgYyAyLjgzMywtMjMuNjAxIDEuOTg0LC0yNy4wNjIgMTkuNTYzLC0yMy4yMzkgbCA0LjQ2MywwLjM5MiBjIDEzLjUxNywwLjYxNSAzMS4xOTksLTIuMTc0IDQxLjU4NywtNyAyMi4zNjIsLTEwLjM3NiAzNS42MjIsLTI3LjcgMTMuNTcyLC0yMy4xNDggLTUwLjI5NywxMC4zNzYgLTUzLjc1NSwtNi42NTUgLTUzLjc1NSwtNi42NTUgQyA0MDEuNzQ2LDE4NS43NzQgNDIzLjk0OCw4NS43NDEgNDA0Ljc4NCw2MS4yNTUgMzUyLjUxNCwtNS41MzQgMjYyLjAzNiwyNi4wNDkgMjYwLjUyMiwyNi44NjkgbCAtMC40ODIsMC4wODkgYyAtOS45MzgsLTIuMDYyIC0yMS4wNiwtMy4yOTQgLTMzLjU1NCwtMy40OTYgLTIyLjc2MSwtMC4zNzQgLTQwLjAzMiw1Ljk2NyAtNTMuMTMzLDE1LjkwNCAwLDAgLTE2MS40MDgsLTY2LjQ5OCAtMTUzLjg5OSw4My42MjggMS41OTcsMzEuOTM2IDQ1Ljc3NywyNDEuNjU1IDk4LjQ3LDE3OC4zMSAxOS4yNTksLTIzLjE2MyAzNy44NzEsLTQyLjc0OCAzNy44NzEsLTQyLjc0OCA5LjI0Miw2LjE0IDIwLjMwNyw5LjI3MiAzMS45MTIsOC4xNDcgbCAwLjg5NywtMC43NjUgYyAtMC4yODEsMi44NzYgLTAuMTU3LDUuNjg5IDAuMzU5LDkuMDE5IC0xMy41NzIsMTUuMTY3IC05LjU4NCwxNy44MyAtMzYuNzIzLDIzLjQxNiAtMjcuNDU3LDUuNjU5IC0xMS4zMjYsMTUuNzM0IC0wLjc5NywxOC4zNjcgMTIuNzY4LDMuMTkzIDQyLjMwNSw3LjcxNiA2Mi4yNjgsLTIwLjIyNCBsIC0wLjc5NSwzLjE4OCBjIDUuMzI1LDQuMjYgNC45NjUsMzAuNjE5IDUuNzIsNDkuNDUyIDAuNzU2LDE4LjgzNCAyLjAxNywzNi40MDkgNS44NTYsNDYuNzcxIDMuODM5LDEwLjM2IDguMzY5LDM3LjA1IDQ0LjAzNiwyOS40MDYgMjkuODA5LC02LjM4OCA1Mi42LC0xNS41ODIgNTQuNjc3LC0xMDEuMTA3IiBzdHlsZT0iZmlsbDojMDAwMDAwO3N0cm9rZTojMDAwMDAwO3N0cm9rZS13aWR0aDozNy4zOTUzO3N0cm9rZS1saW5lY2FwOmJ1dHQ7c3Ryb2tlLWxpbmVqb2luOm1pdGVyIi8+JiN4YTsmI3hhOzxwYXRoIGlkPSJwYXRoOTMxIiBkPSJtIDQwMi4zOTUsMjcxLjIzIGMgLTUwLjMwMiwxMC4zNzYgLTUzLjc2LC02LjY1NSAtNTMuNzYsLTYuNjU1IDUzLjExMSwtNzguODA4IDc1LjMxMywtMTc4Ljg0MyA1Ni4xNTMsLTIwMy4zMjYgLTUyLjI3LC02Ni43ODUgLTE0Mi43NTIsLTM1LjIgLTE0NC4yNjIsLTM0LjM4IGwgLTAuNDg2LDAuMDg3IGMgLTkuOTM4LC0yLjA2MyAtMjEuMDYsLTMuMjkyIC0zMy41NiwtMy40OTYgLTIyLjc2MSwtMC4zNzMgLTQwLjAyNiw1Ljk2NyAtNTMuMTI3LDE1LjkwMiAwLDAgLTE2MS40MTEsLTY2LjQ5NSAtMTUzLjkwNCw4My42MyAxLjU5NywzMS45MzggNDUuNzc2LDI0MS42NTcgOTguNDcxLDE3OC4zMTIgMTkuMjYsLTIzLjE2MyAzNy44NjksLTQyLjc0OCAzNy44NjksLTQyLjc0OCA5LjI0Myw2LjE0IDIwLjMwOCw5LjI3MiAzMS45MDgsOC4xNDcgbCAwLjkwMSwtMC43NjUgYyAtMC4yOCwyLjg3NiAtMC4xNTIsNS42ODkgMC4zNjEsOS4wMTkgLTEzLjU3NSwxNS4xNjcgLTkuNTg2LDE3LjgzIC0zNi43MjMsMjMuNDE2IC0yNy40NTksNS42NTkgLTExLjMyOCwxNS43MzQgLTAuNzk2LDE4LjM2NyAxMi43NjgsMy4xOTMgNDIuMzA3LDcuNzE2IDYyLjI2NiwtMjAuMjI0IGwgLTAuNzk2LDMuMTg4IGMgNS4zMTksNC4yNiA5LjA1NCwyNy43MTEgOC40MjgsNDguOTY5IC0wLjYyNiwyMS4yNTkgLTEuMDQ0LDM1Ljg1NCAzLjE0Nyw0Ny4yNTQgNC4xOTEsMTEuNCA4LjM2OCwzNy4wNSA0NC4wNDIsMjkuNDA2IDI5LjgwOSwtNi4zODggNDUuMjU2LC0yMi45NDIgNDcuNDA1LC01MC41NTUgMS41MjUsLTE5LjYzMSA0Ljk3NiwtMTYuNzI5IDUuMTk0LC0zNC4yOCBsIDIuNzY4LC04LjMwOSBjIDMuMTkyLC0yNi42MTEgMC41MDcsLTM1LjE5NiAxOC44NzIsLTMxLjIwMyBsIDQuNDYzLDAuMzkyIGMgMTMuNTE3LDAuNjE1IDMxLjIwOCwtMi4xNzQgNDEuNTkxLC03IDIyLjM1OCwtMTAuMzc2IDM1LjYxOCwtMjcuNyAxMy41NzMsLTIzLjE0OCB6IiBzdHlsZT0iZmlsbDojMzM2NzkxO3N0cm9rZTpub25lIi8+JiN4YTsmI3hhOzxwYXRoIGlkPSJwYXRoOTMzIiBkPSJtIDIxNS44NjYsMjg2LjQ4NCBjIC0xLjM4NSw0OS41MTYgMC4zNDgsOTkuMzc3IDUuMTkzLDExMS40OTUgNC44NDgsMTIuMTE4IDE1LjIyMywzNS42ODggNTAuOSwyOC4wNDUgMjkuODA2LC02LjM5IDQwLjY1MSwtMTguNzU2IDQ1LjM1NywtNDYuMDUxIDMuNDY2LC0yMC4wODIgMTAuMTQ4LC03NS44NTQgMTEuMDA1LC04Ny4yODEiLz4mI3hhOyYjeGE7PHBhdGggaWQ9InBhdGg5MzUiIGQ9Im0gMTczLjEwNCwzOC4yNTYgYyAwLDAgLTE2MS41MjEsLTY2LjAxNiAtMTU0LjAxMiw4NC4xMDkgMS41OTcsMzEuOTM4IDQ1Ljc3OSwyNDEuNjY0IDk4LjQ3MywxNzguMzE2IDE5LjI1NiwtMjMuMTY2IDM2LjY3MSwtNDEuMzM1IDM2LjY3MSwtNDEuMzM1Ii8+JiN4YTsmI3hhOzxwYXRoIGlkPSJwYXRoOTM3IiBkPSJtIDI2MC4zNDksMjYuMjA3IGMgLTUuNTkxLDEuNzUzIDg5Ljg0OCwtMzQuODg5IDE0NC4wODcsMzQuNDE3IDE5LjE1OSwyNC40ODQgLTMuMDQzLDEyNC41MTkgLTU2LjE1MywyMDMuMzI5Ii8+JiN4YTsmI3hhOzxwYXRoIGlkPSJwYXRoOTM5IiBkPSJtIDM0OC4yODIsMjYzLjk1MyBjIDAsMCAzLjQ2MSwxNy4wMzYgNTMuNzY0LDYuNjUzIDIyLjA0LC00LjU1MiA4Ljc3NiwxMi43NzQgLTEzLjU3NywyMy4xNTUgLTE4LjM0NSw4LjUxNCAtNTkuNDc0LDEwLjY5NiAtNjAuMTQ2LC0xLjA2OSAtMS43MjksLTMwLjM1NSAyMS42NDcsLTIxLjEzMyAxOS45NiwtMjguNzM5IC0xLjUyNSwtNi44NSAtMTEuOTc5LC0xMy41NzMgLTE4Ljg5NCwtMzAuMzM4IC02LjAzNywtMTQuNjMzIC04Mi43OTYsLTEyNi44NDkgMjEuMjg3LC0xMTAuMTgzIDMuODEzLC0wLjc4OSAtMjcuMTQ2LC05OS4wMDIgLTEyNC41NTMsLTEwMC41OTkgLTk3LjM4NSwtMS41OTcgLTk0LjE5LDExOS43NjIgLTk0LjE5LDExOS43NjIiIHN0eWxlPSJzdHJva2UtbGluZWpvaW46YmV2ZWwiLz4mI3hhOyYjeGE7PHBhdGggaWQ9InBhdGg5NDEiIGQ9Im0gMTg4LjYwNCwyNzQuMzM0IGMgLTEzLjU3NywxNS4xNjYgLTkuNTg0LDE3LjgyOSAtMzYuNzIzLDIzLjQxNyAtMjcuNDU5LDUuNjYgLTExLjMyNiwxNS43MzMgLTAuNzk3LDE4LjM2NSAxMi43NjgsMy4xOTUgNDIuMzA3LDcuNzE4IDYyLjI2NiwtMjAuMjI5IDYuMDc4LC04LjUwOSAtMC4wMzYsLTIyLjA4NiAtOC4zODUsLTI1LjU0NyAtNC4wMzQsLTEuNjcxIC05LjQyOCwtMy43NjUgLTE2LjM2MSwzLjk5NCB6Ii8+JiN4YTsmI3hhOzxwYXRoIGlkPSJwYXRoOTQzIiBkPSJtIDE4Ny43MTUsMjc0LjA2OSBjIC0xLjM2OCwtOC45MTcgMi45MywtMTkuNTI4IDcuNTM2LC0zMS45NDIgNi45MjIsLTE4LjYyNiAyMi44OTMsLTM3LjI1NSAxMC4xMTcsLTk2LjMzOSAtOS41MjMsLTQ0LjAyOSAtNzMuMzk2LC05LjE2MyAtNzMuNDM2LC0zLjE5MyAtMC4wMzksNS45NjggMi44ODksMzAuMjYgLTEuMDY3LDU4LjU0OCAtNS4xNjIsMzYuOTEzIDIzLjQ4OCw2OC4xMzIgNTYuNDc5LDY0LjkzOCIvPiYjeGE7JiN4YTs8cGF0aCBpZD0icGF0aDk0NSIgZD0ibSAxNzIuNTE3LDE0MS43IGMgLTAuMjg4LDIuMDM5IDMuNzMzLDcuNDggOC45NzYsOC4yMDcgNS4yMzQsMC43MyA5LjcxNCwtMy41MjIgOS45OTgsLTUuNTU5IDAuMjg0LC0yLjAzOSAtMy43MzIsLTQuMjg1IC04Ljk3NywtNS4wMTUgLTUuMjM3LC0wLjczMSAtOS43MTksMC4zMzMgLTkuOTk2LDIuMzY3IHoiIHN0eWxlPSJmaWxsOiNmZmZmZmY7c3Ryb2tlLXdpZHRoOjQuMTU1O3N0cm9rZS1saW5lY2FwOmJ1dHQ7c3Ryb2tlLWxpbmVqb2luOm1pdGVyIi8+JiN4YTsmI3hhOzxwYXRoIGlkPSJwYXRoOTQ3IiBkPSJtIDMzMS45NDEsMTM3LjU0MyBjIDAuMjg0LDIuMDM5IC0zLjczMiw3LjQ4IC04Ljk3Niw4LjIwNyAtNS4yMzgsMC43MyAtOS43MTgsLTMuNTIyIC0xMC4wMDUsLTUuNTU5IC0wLjI3NywtMi4wMzkgMy43NCwtNC4yODUgOC45NzksLTUuMDE1IDUuMjM5LC0wLjczIDkuNzE4LDAuMzMzIDEwLjAwMiwyLjM2OCB6IiBzdHlsZT0iZmlsbDojZmZmZmZmO3N0cm9rZS13aWR0aDoyLjA3NzU7c3Ryb2tlLWxpbmVjYXA6YnV0dDtzdHJva2UtbGluZWpvaW46bWl0ZXIiLz4mI3hhOyYjeGE7PHBhdGggaWQ9InBhdGg5NDkiIGQ9Im0gMzUwLjY3NiwxMjMuNDMyIGMgMC44NjMsMTUuOTk0IC0zLjQ0NSwyNi44ODggLTMuOTg4LDQzLjkxNCAtMC44MDQsMjQuNzQ4IDExLjc5OSw1My4wNzQgLTcuMTkxLDgxLjQzNSIvPiYjeGE7JiN4YTs8cGF0aCBpZD0icGF0aDk1MSIgZD0iTSAwLDYwLjIzMiIgc3R5bGU9InN0cm9rZS13aWR0aDozIi8+JiN4YTsmI3hhOzwvZz4mI3hhOyAgICA8L2c+JiN4YTsgIDwvZz4mI3hhOyAgPHN0eWxlIHR5cGU9InRleHQvY3NzIiBpZD0ic3R5bGUxMTE4Ij4mI3hhOwkuc3Qwe2ZpbGw6IzJEQkNBRjt9JiN4YTsJLnN0MXtmaWxsOiM1REM5RTE7fSYjeGE7CS5zdDJ7ZmlsbDojRkRERDAwO30mI3hhOwkuc3Qze2ZpbGw6I0NFMzI2Mjt9JiN4YTsJLnN0NHtmaWxsOiMwMEFDRDc7fSYjeGE7CS5zdDV7ZmlsbDojRkZGRkZGO30mI3hhOzwvc3R5bGU+JiN4YTs8L3N2Zz4=;" parent="kEX54H8yx_akzkPmugQH-56" vertex="1">
          <mxGeometry x="109.75" y="70" width="58.89" height="58.89" as="geometry" />
        </mxCell>
        <mxCell id="wj6WeK8VYMMcLy92pw_4-3" style="edgeStyle=orthogonalEdgeStyle;rounded=1;orthogonalLoop=1;jettySize=auto;html=1;exitX=0;exitY=0.5;exitDx=0;exitDy=0;entryX=0.5;entryY=1;entryDx=0;entryDy=0;fontSize=12;strokeColor=#4D4D4D;fontColor=#FFFFFF;fillColor=none;fillStyle=auto;dashed=1;strokeWidth=2;dashPattern=1 1;" parent="1" target="wj6WeK8VYMMcLy92pw_4-19" edge="1">
          <mxGeometry relative="1" as="geometry">
            <mxPoint x="181.69999999999987" y="649.325" as="targetPoint" />
            <mxPoint x="539.7" y="626" as="sourcePoint" />
          </mxGeometry>
        </mxCell>
        <mxCell id="wj6WeK8VYMMcLy92pw_4-6" value="&lt;b style=&quot;border-color: var(--border-color); color: rgb(128, 128, 128); font-family: Tahoma; font-size: 12px;&quot;&gt;VerificaÃ§Ã£o de logs,&lt;br style=&quot;border-color: var(--border-color);&quot;&gt;Acompanhamento &lt;br&gt;de carga&lt;/b&gt;" style="edgeLabel;html=1;align=center;verticalAlign=middle;resizable=0;points=[];" parent="wj6WeK8VYMMcLy92pw_4-3" vertex="1" connectable="0">
          <mxGeometry x="-0.0765" y="2" relative="1" as="geometry">
            <mxPoint x="-7" y="-4" as="offset" />
          </mxGeometry>
        </mxCell>
        <mxCell id="wj6WeK8VYMMcLy92pw_4-4" style="edgeStyle=orthogonalEdgeStyle;rounded=1;orthogonalLoop=1;jettySize=auto;html=1;exitX=0.5;exitY=0;exitDx=0;exitDy=0;entryX=1;entryY=0.5;entryDx=0;entryDy=0;fontSize=12;strokeColor=#4D4D4D;fontColor=#FFFFFF;fillColor=none;fillStyle=auto;dashed=1;strokeWidth=2;dashPattern=1 1;" parent="1" target="kEX54H8yx_akzkPmugQH-6" edge="1">
          <mxGeometry relative="1" as="geometry">
            <mxPoint x="624.7" y="546" as="sourcePoint" />
            <Array as="points">
              <mxPoint x="620" y="547" />
              <mxPoint x="620" y="266" />
            </Array>
          </mxGeometry>
        </mxCell>
        <mxCell id="wj6WeK8VYMMcLy92pw_4-5" value="&lt;b style=&quot;border-color: var(--border-color); color: rgb(128, 128, 128); font-family: Tahoma; font-size: 12px;&quot;&gt;VerificaÃ§Ã£o de logs,&lt;br style=&quot;border-color: var(--border-color);&quot;&gt;Acompanhamento &lt;br&gt;de carga&lt;/b&gt;" style="edgeLabel;html=1;align=center;verticalAlign=middle;resizable=0;points=[];" parent="wj6WeK8VYMMcLy92pw_4-4" vertex="1" connectable="0">
          <mxGeometry x="-0.3282" y="-4" relative="1" as="geometry">
            <mxPoint as="offset" />
          </mxGeometry>
        </mxCell>
        <mxCell id="wj6WeK8VYMMcLy92pw_4-7" style="edgeStyle=orthogonalEdgeStyle;rounded=1;orthogonalLoop=1;jettySize=auto;html=1;exitX=0;exitY=0.5;exitDx=0;exitDy=0;entryX=0.5;entryY=0;entryDx=0;entryDy=0;fontSize=12;strokeColor=#4D4D4D;fontColor=#FFFFFF;fillColor=none;fillStyle=auto;dashed=1;strokeWidth=2;dashPattern=1 1;" parent="1" source="wj6WeK8VYMMcLy92pw_4-19" target="kEX54H8yx_akzkPmugQH-35" edge="1">
          <mxGeometry relative="1" as="geometry">
            <mxPoint x="150" y="680" as="sourcePoint" />
          </mxGeometry>
        </mxCell>
        <mxCell id="wj6WeK8VYMMcLy92pw_4-11" value="&lt;font face=&quot;Tahoma&quot; color=&quot;#808080&quot;&gt;&lt;span style=&quot;font-size: 12px;&quot;&gt;&lt;b&gt;Salvar dados&lt;/b&gt;&lt;/span&gt;&lt;/font&gt;" style="edgeLabel;html=1;align=center;verticalAlign=middle;resizable=0;points=[];" parent="wj6WeK8VYMMcLy92pw_4-7" vertex="1" connectable="0">
          <mxGeometry x="-0.2312" y="-2" relative="1" as="geometry">
            <mxPoint as="offset" />
          </mxGeometry>
        </mxCell>
        <mxCell id="wj6WeK8VYMMcLy92pw_4-18" style="edgeStyle=orthogonalEdgeStyle;rounded=1;orthogonalLoop=1;jettySize=auto;html=1;entryX=1;entryY=0.5;entryDx=0;entryDy=0;fontSize=12;strokeColor=#4D4D4D;fontColor=#FFFFFF;fillColor=none;fillStyle=auto;dashed=1;strokeWidth=2;dashPattern=1 1;" parent="1" source="wj6WeK8VYMMcLy92pw_4-16" target="kEX54H8yx_akzkPmugQH-35" edge="1">
          <mxGeometry relative="1" as="geometry" />
        </mxCell>
        <mxCell id="wj6WeK8VYMMcLy92pw_4-25" value="&lt;font color=&quot;#808080&quot; face=&quot;Tahoma&quot; style=&quot;font-size: 12px;&quot;&gt;&lt;b&gt;Envio de notificaÃ§Ã£o&lt;br&gt;&amp;nbsp;por Email do vencimento&lt;br&gt;de despesas&lt;/b&gt;&lt;/font&gt;" style="edgeLabel;html=1;align=center;verticalAlign=middle;resizable=0;points=[];" parent="wj6WeK8VYMMcLy92pw_4-18" vertex="1" connectable="0">
          <mxGeometry x="0.1407" y="-1" relative="1" as="geometry">
            <mxPoint as="offset" />
          </mxGeometry>
        </mxCell>
        <mxCell id="wj6WeK8VYMMcLy92pw_4-16" value="Robo Envio de NotificaÃ§Ã£o" style="whiteSpace=wrap;html=1;aspect=fixed;strokeColor=#666666;fontColor=#FFFFFF;fontStyle=1;fontSize=12;fontFamily=Tahoma;fillColor=#7dbe4b;container=0;direction=west;" parent="1" vertex="1">
          <mxGeometry x="576" y="892" width="97.86" height="97.86" as="geometry" />
        </mxCell>
        <mxCell id="wj6WeK8VYMMcLy92pw_4-15" value="" style="shape=image;verticalLabelPosition=bottom;labelBackgroundColor=default;verticalAlign=top;aspect=fixed;imageAspect=0;image=data:image/png,iVBORw0KGgoAAAANSUhEUgAABWwAAAVsCAYAAACsCdQoAAAACXBIWXMAAC4jAAAuIwF4pT92AAAAGXRFWHRTb2Z0d2FyZQBBZG9iZSBJbWFnZVJlYWR5ccllPAAAwe9JREFUeNrs3V+IHde9L/h1zzmQiefMaTn3ZkYxdtQWwlF85o465IKTMES7XIwtPyRSmIeMCEjtYDDIGMswJMxLuV0wDzYDlifEEAh2SxBMXm5azkOcQKW2PODYkODWQGI5aOSWbWyHTCwpd65zA/dypkp7d9yWJbn/7D+1qj4fKJYSH3J6/1Td7f3dq77rX/3Lv/xLAACAjcrKtHeV/7p3jf/z3nX+p7ZV154GvsRL1bV8nX9+8Rr/fGV4fei/y5NixV0DAMDH+VcCWwCAbsrKdLZaZtf8V701f65D1Lkr/vMeUxupU1f85/6aP18ZBi/nSXHRyAAA2k9gCwDQElmZrg1ZZ8MHYWz9321b8+cZ04ra6TAIdGvLV/tznhR9YwIAiJPAFgCg4a4IYnvDdTZ8EMjuNSWuYW2tw2qg+7fdu4JdAIDmEdgCAEzRNcLY1R2xdsMyKau7dleG12qoezFPimXjAQCYHIEtAMCYDQ/nWg1g1646YYnF2p26/SDQBQAYG4EtAMAWrTm8a/VaDWRVFdAVq4HuyvBaDXP7RgMAsDECWwCAdVhTXTAbhLKwEVcLc1fszAUAuDqBLQDAGmt2y/bCB/UFumRhPM6HQYjbD2sC3TwpLhoNANBVAlsAoJOuCGZX/2y3LDTD6q7c1Z25l/8syAUAukBgCwC02poqg9VrNghmIVZX7shdVq0AALSNwBYAaI2sTFcD2XrtDf+8w2Sg9U6HD3bi9oPduABAxAS2AECUhuHs2suuWWCt1VqFfvigUmHFWACAphPYAgCNNwxne0GlAbA1QlwAoPEEtgBAo9g5C0zYlSFuX50CADBNAlsAYGqGB4L1wgeds/U6YzLAlNWHm63tw+0bCQAwKQJbAGBirqg2qFcHggGxqA8264cPduGuGAkAMA4CWwBgLK6ye1a1AdAmduECAGMhsAUARiIr09nw4YB2j6kAHXMqDALc+lrWhQsAbIbAFgDYlDUB7eql3gDgw1ZrFC5fAlwAYD0EtgDAuqzpn62v+s8CWoCNEeACAB9LYAsAXJUdtABjJ8AFAD5CYAsAXCagBZi61QB3ySFmANBdAlsA6KisTLeFDwe0DgkDaJbVQ8zqAHfZOACgGwS2ANAhwx7aA2EQ0O41EYBoXArD8DYM6hNWjAQA2klgCwAtdkXNQR3UzpgKQCv8rf82T4ol4wCA9hDYAkDLZGXaCx/solVzANANJ8MH9QkrxgEA8RLYAkDkhl20B8IHIa1dtADddj58UJ1g9y0AREZgCwARWtNFW1920QJwLbpvASAyAlsAiERWpmt30e4wEQA2oe6+rcPbujph2TgAoHkEtgDQUKoOABgz1QkA0EACWwBokKxMZ8MHIe1eEwFgQurqhMvhbRjsvr1oJAAwHQJbAJiyYR9tr7rmgz5aAJrhZPigOkF4CwATJLAFgCkYhrTzYbCTVh8tAE12KnwQ3q4YBwCMl8AWACZESAtAC9SHli0G4S0AjI3AFgDGSEgLQIsJbwFgDAS2ADBiQloAOkh4CwAjIrAFgBEQ0gLA39Th7bHgwDIA2BSBLQBsUlams2EQ0B4NQloAuJqT4YMDy4S3ALAOAlsA2IA1Ie18de0xEQBYtzq8XcyTYskoAODaBLYA8DGyMt0WBiFtfe03EQDYkkthsOu2Dm/7xgEAHyawBYBryMp0NaStrxkTAYCROx8G4e0xh5UBwIDAFgDWcHgYAExNfVjZYhjsvNV3C0BnCWwB6Lxh5cF80EsLAE2h7xaAzhLYAtBZw8qD+aCXFgCaqu67XQyD8HbZOADoAoEtAJ2SlelstRwNg6BWLy0AxENlAgCdILAFoPWGlQf1bto6qFV5AADxOx4GwW3fKABoG4EtAK2VlWkvfHCAmN20ANA+58MHu25XjAOANhDYAtAqaw4Qq3fT7jARAOgMB5UB0AoCWwBaYc1u2sOmAQCdZtctAFET2AIQLbtpAYCPYdctANER2AIQnaxM58IgpLWbFgBYD7tuAYiGwBaAKAx309aHh9VB7R4TAQA26XgYBLd9owCgiQS2ADRaVqazYRDSzlfXjIkAACNS77pdqK6lPCkuGgcATSGwBaCRsjKtd9POV9d+0wAAxuhSddUdtwvqEgBoAoEtAI3hEDEAYMpOVdcxh5QBME0CWwCmblh7sBAGHbVqDwCAaavrEo6FQdetugQAJkpgC8DUZGXaC4Ogdq9pAAANpC4BgIkT2AIwUcPag3on7UJQewAAxONkGNQl9I0CgHES2AIwEcPag/kw6KdVewAAxOp0GAS3i0YBwDgIbAEYqzX9tIdNAwBokbrndjEMwls9twCMjMAWgLHQTwsAdISeWwBGSmALwEhlZTof9NMCAN10vLoW9dwCsBUCWwC2bHiQ2HwY9NMKagGArjsVBjtu+0YBwEYJbAHYtGFQezQ4SAwA4GrqntsFB5QBsBECWwA2zEFiAAAbcn74705LDigD4OMIbAFYN0EtAMCW1AeUHasvwS0A1yKwBeBjZWXaC4Pag/2mAQCwZYJbAK5JYAvANQ2D2oXq2msaAAAjVwe3S2HQc7tiHADUBLYAfISgFgBg4o4HwS0AQWALwBqCWgCAqRPcAnScwBaAOqidD4OO2j2mAQDQCIJbgI4S2AJ02DCoXaiuHaYBANBIgluAjhHYAnSQoBYAIDqCW4COENgCdEhWpgeq5VgQ1AIAxEpwC9ByAluADnCYGABA6whuAVpKYAvQYoJaAIDWE9wCtIzAFqCFBLUAAJ0juAVoCYEtQIsIagEAOu1SGJxXcCxPiovGARAngS1AC2RlOhsGQe1h0wAA6DzBLUDEBLYAERPUAgBwHXVwW9ckHDMKgHgIbAEilJXptmo5Wl2PmAYAAB/jfBgEt4tGAdB8AluAiKwJautrxkQAANiAOridz5OibxQAzSWwBYhEVqbzYVB/sMM0AADYglNhsOO2bxQAzSOwBWi4rEwPhMGhEYJaAABG6WR1Hc2TYsUoAJpDYAvQUFmZ9sJgR+1e0wAAYIyeDIMdtxeNAmD6BLYADZOV6WwYBLWHTQMAgAm5FAZPdR0T3AJMl8AWoCHWHCj2iGkAADAl9cFk9W7bRaMAmA6BLUADZGVaB7UL1TVjGgAANICDyQCmRGALMEXDntrF4EAxAACaycFkABMmsAWYgqxM58KgI8yBYgAAxODRoN8WYCIEtgATNOyprYNaB4oBABCb+mCyo/ptAcZLYAswIVmZLoTBoWJ6agEAiNnpMAhu+0YBMHoCW4Ax01MLAEBL6bcFGAOBLcCYZGU6GwZBrZ5aAADaTL8twAgJbAFGbNhTW1cfPGIaAAB0xPkw2G27ZBQAWyOwBRihrEznq2UhqD8AAKCbToVBcLtsFACbI7AFGIGsTOeq5VhQfwAAALUnq2tBTQLAxglsAbZgWH+wUF0PmQYAAHzIpTDYbbtoFADrJ7AF2KRh/UG9q3bGNAAA4JrUJABsgMAWYIPUHwAAwKaoSQBYB4EtwDoN6w+OVtcjpgEAAJtyPgx22y4ZBcDVCWwB1iEr0wNhsKt2h2kAAMCW1TUJ83lSrBgFwIcJbAGuIyvT2TAIavebBgAAjNyjeVIsGAPABwS2ANeQlWn9L451BYJDxQAAYHzqmoR6t23fKAAEtgAfkZVpLwx21e4xDQAAmJjjYdBv61AyoNMEtgBDw0PFFqrrIdMAAICpuBQGoe2iUQBdJbAFCA4VAwCAhnEoGdBZAlug04a7aheDQ8UAAKBp6t22xxxKBnSNwBborKxM6wPF6n/5c6gYAAA01+kw2G27bBRAFwhsgc7JynQ2DHbV7jUNAACIxqNhsOPWoWRAqwlsgU7JynShWuqdtXbVAgBAfM6HwW7bvlEAbSWwBTohK9O5MNhVu8c0AAAgek9W14LdtkAbCWyB1hvuqn3EJAAAoFXstgVaSWALtJZdtQAA0AknwyC4tdsWaAWBLdBKdtUCAECnXAqD0HbJKIDYCWyBVrGrFgAAOs1uWyB6AlugNeyqBQAAgt22QOQEtkD07KoFAACuwm5bIEoCWyBqdtUCAADXcT4MQtu+UQCxENgCUbKrFgAA2IAnq2vBblsgBgJbIDpZmR6tlidMAgAA2AC7bYEoCGyBaGRlOhsGu2r3mgYAALBJT+ZJcdQYgKYS2AJRGO6qXaiuGdMAAAC26HQY7LZdNgqgaQS2QKNlZbotDHbV7jcNAABgxB7Ok+KYMQBNIrAFGisr0wNhENbaVQsAAIzLqTDYbbtiFEATCGyBxhnuql2orodMAwAAmIBLYRDaLhkFMG0CW6BRsjKdC4NdtXtMAwAAmLCTYRDcXjQKYFoEtkBjZGW6UC2PmAQAADBF58MgtO0bBTANAltg6rIynQ2DXbV7TQMAAGiIR/OkWDAGYNIEtsBUOVgMAABosNPVdcCBZMAkCWyBqXCwGAAAEIn6QLKjeVIsGgUwCQJbYOIcLAYAAEToeBgEtw4kA8ZKYAtMVFamR8NgZ60KBAAAIDb1gWR1RcKyUQDjIrAFJmJYgbBYXftNAwAAiNzDeVIcMwZgHAS2wNgNKxCWqmuHaQAAAC1xsrrmVSQAoyawBcYqK9OFannEJAAAgBaqKxLq0LZvFMCoCGyBsRhWINS7aveaBgAA0HKP5kmxYAzAKAhsgZHLyrQXBmGtg8UAAICuOBUGB5KpSAC2RGALjJQKBAAAoMMuhUFo2zcKYLMEtsBIqEAAAAD4GxUJwKYJbIEty8p0LgzC2h2mAQAAcNnJMDiQTEUCsCECW2BLsjI9Wi1PmAQAAMBHnA+DioRlowDWS2ALbMqwAmGxuvabBgAAwHU9nCfFMWMA1kNgC2zYsAJhsbr2mAYAAMC6HK+uoyoSgI8jsAU2JCvT+WqpPxmeMQ0AAIANOR0GvbYqEoBrEtgC65aV6WK1HDYJAACATbsUBqHtklEAVyOwBT7WsK+2H1QgAAAAjMqTeVIcNQbgSgJb4LqyMu1VS/3JrwoEAACA0TpVXQf02gJrCWyBa8rKtP609wmTAAAAGJvzYRDa6rUFLhPYAh8xrECoDxbTVwsAADAZ9+ZJsWgMgMAW+JCsTGfDoAJBXy0AAMBkHc+TYt4YoNsEtsDf6KsFAACYutPV1dNrC90lsAUu01cLAADQGJfCILTVawsdJLCFjtNXCwAA0Fh6baGDBLbQYfpqAQAAGu/JPCmOGgN0h8AWOior07lq6Qd9tQAAAE13qroO6LWFbhDYQgdlZTpfLc+YBAAAQDTOh0Foq9cWWk5gCx2Tleli0FcLAAAQo/owsvk8KZaMAtpLYAsdMTxcrP6lvtc0AAAAovZwnhTHjAHaSWALHTDsq10MDhcDAABoi+N5UswbA7SPwBZaLivTXhjsrHW4GAAAQLucrq6ew8igXQS20GIOFwMAAGg9h5FBywhsoaUcLgYAANAZDiODFhHYQssMDxdbrK79pgEAANAp9+ZJsWgMEDeBLbRIVqazYdBX63AxAACAbnIYGUROYAstkZXpXLX0g8PFAAAAuu5UGPTaOowMIiSwhRYYHi52LAhrAQAAGDgdBqHtilFAXAS2ELmsTI9WyxMmAQAAwBXqw8h6eVIsGwXEQ2ALEcvKdLFaDpsEAAAA11CHtvN5UiwZBcRBYAsRysp0W7UsVtd+0wAAAGAd7s2TYtEYoPkEthCZYVjbr649pgEAAMAGHM+TYt4YoNkEthCRrEznqqV+jGWHaQAAALAJx6vraJ4UF40CmklgC5EYhrX96poxDQAAALbgdBgcRia0hQYS2EIEsjKdr5ZnTAIAAIARqUPbA3lSrBgFNIvAFhpOWAsAAMCYXAqDnbbLRgHNIbCFBsvKdLFaDpsEAAAAY1KHtvVO275RQDMIbKGhhLUAAABM0L15UiwaA0yfwBYaJivTbWFwuNge0wAAAGCChLbQAAJbaBBhLQAAAFN2PE+KeWOA6RHYQkNkZTpXLYtBWAsAAMB0CW1higS20ADDsLZfXTOmAQAAQAOcCoPDyC4aBUyWwBamTFgLAABAQ52urp7QFiZLYAtTlJXpfLU8YxIAAAA0lNAWJkxgC1MirAUAACASl8IgtF02Chg/gS1MgbAWAACAyAhtYUIEtjBhWZkeq5aHTAIAAIDICG1hAgS2MEFZmS5Wy2GTAAAAIFJ1aHs0T4pFo4DxENjChAhrAQAAaJF7hbYwHgJbmABhLQAAAC0ktIUxENjCGGVluq1a+tW1xzQAAABoIaEtjJjAFsZEWAsAAEBHPJonxYIxwGgIbGEMhLUAAAB0zPE8KeaNAbZOYAsjJqwFAACgo4S2MAICWxghYS0AAAAdJ7SFLRLYwohkZTpXLUvVtcM0AAAA6DChLWyBwBZGYBjW9qtrxjQAAABAaAubJbCFLRLWAgAAwFUJbWETBLawBcJaAAAAuK5T1XUgT4qLRgHrI7CFTRLWAgAAwLqcrq6e0BbWR2ALmyCsBQAAgA0R2sI6CWxhg4S1AAAAsClCW1gHgS1sgLAWAAAAtkRoCx9DYAvrJKwFAACAkRDawnUIbGEdhLUAAAAwUkJbuAaBLXwMYS0AAACMhdAWrkJgC9chrAUAAICxEtrCFQS2cA3CWgAAAJgIoS2sIbCFqxDWAgAAwEQJbWHo74wAPkxYCwAAABO3p7qOGQPYYQsfIqwFAACAqTqeJ8W8MdBlAlsYEtYCAABAIwht6TSBLYTLYe22almurh2mAQAAAFMntKWzBLZ03jCs7YdBXw4AAADQDEJbOklgS6cJawEAAKDRhLZ0jsCWzhLWAgAAQBSEtnSKwJZOEtYCAABAVB7Ok+KYMdAFf2cEdFQ/CGsBAAAgFk9kZTpvDHSBHbZ0TvUDfrFaDpsEAAAAROfePCkWjYE2E9jSKcJaAAAAiJ7QllYT2NIZwloAAABojSRPir4x0EYCWzohK9O6mPwhkwAAAIBWuFRdvTwplo2CthHY0nrDUvJnTAIAAABaRWhLKwlsaTVhLQAAALSa0JbWEdjSWsJaAAAA6ITTYRDaXjQK2kBgSytlZTpXLa+YBAAAAHSC0JbWENjSOsOwtl9dM6YBAAAAnSG0pRX+zghoE2EtAAAAdNae6jpmDMTODltaIyvTbWEQ1u4xDQAAAOis43lSzBsDsRLY0grCWgAAAGCNJ/OkOGoMxEglAm3RD8JaAAAAYOChrEznjYEY2WFL9KofwIvVctgkAAAAgCvcmyfFojEQE4EtURPWAgAAAB/jC3lSLBsDsRDYEq3how3PmAQAAABwHZeqqye0JRYCW6IkrAUAAAA2oA5tZ/OkuGgUNJ3AluhkZTpXLa+YBAAAALABp8Ngp63Qlkb7OyMgJsOwtm8SAAAAwAbtqa4lY6Dp7LAlGlmZbquWum9mh2kAAAAAm3Q8T4p5Y6CpBLZEYRjW9sPg0zAAAACArXgyT4qjxkATqUQgFotBWAsAAACMxkPDA82hceywpfGqH6CL1XLYJAAAAIARS/Kk6BsDTSKwpdGyMq0fT3jCJAAAAIAxuFRdvTwplo2CphDY0ljDRxOeMQkAAABgjM5X11yeFBeNgiYQ2NJIWZnOhcEhYzOmAQAAAIzZ6TDYaSu0ZeocOkbjZGU6G4S1AAAAwOTUB50fMwaawA5bGiUr021hENbuMQ0AAABgwp7Mk+KoMTBNdtjSNItBWAsAAABMx0PDM3VgauywpTGqH4iL1XLYJAAAAIApS/Kk6BsD0yCwpRGGn149YxIAAABAA1wKg0PIlo2CSRPYMnVZmfaqpTQJAAAAoEFOh0Foe9EomCQdtkxVVqZz1bJkEgAAAEDD1GfsyCyYODtsmZqsTLdVSz84ZAwAAABoruN5UswbA5Nihy3TVH9KJawFAAAAmuzw8OwdmAg7bJmK6gfdYv0DzyQAAACASCR5UvSNgXET2DJxw0+lnjEJAAAAICKXqmsuT4oVo2CcBLZM1PCQsVdMAgAAAIjQ6erq5Ulx0SgYFx22TExWprNhcMgYAAAAQIzqs3gWjYFxEtgyEVmZbguDQ8ZmTAMAAACI2P6sTBeMgXER2DIpx8LgUygAAACA2D2SlekBY2AcdNgydtUPsKPV8oRJAAAAAC1SH0JW99kuGwWjJLBlrLIy7VVLaRIAAABAC52vrjmHkDFKKhEYm+EhY0smAQAAALTUjiD7YMQEtoyFQ8YAAACAjtiblekxY2BUBLaMi0PGAAAAgK54yCFkjIoOW0bOIWMAAABABzmEjJEQ2DJSDhkDAAAAOux0GIS2DiFj01QiMDJremsBAAAAuqiuh1w0BrZCYMso9YNDxgAAAIBu2z+si4RNUYnASFQ/iBar5bBJAAAAAFyW5EnRNwY2SmDLlmVlOl8tz5gEAAAAwN/Uh5DN5UmxYhRshEoEtiQr07lqOWYSAAAAAB9S10Y664cNE9iyacNDxhaD3loAAACAq9mTlamNbmyIwJatWAyD0w8BAAAAuLqHhnWSsC46bNmU4WmHT5gEAAAAwMeq+2x7eVIsGwUfR2DLhg17a18xCQAAAIB1Ox0Goe1Fo+B6VCKwIcPeWoXZAAAAABtT10rqs+VjCWzZqDqs3WEMAAAAABt2WJ8tH0clAutW/UBZqJZHTAIAAABg0/TZcl0CW9YlK9NetZQmAQAAALBl+my5JpUIfCy9tQAAAAAjpc+WaxLYsh51WDtjDAAAAAAjo8+Wq1KJwHXprQUAAAAYG322fITAlmvKynSuWl4xCQAAAICx0WfLh6hE4Kr01gIAAABMhD5bPkRgy7UsVtcOYwAAAAAYu7rP9oAxUFOJwEdUPyCOVssTJgEAAAAwMXWf7VyeFCtG0W122PIhw97aBZMAAAAAmKiZoJ6SILBljWFv7eLwBwQAAAAAk7UnK1N9th0nsGWthTAougYAAABgOh7KyrRnDN2lw5bLhsXWPzEJAAAAgKmr+2xn86S4aBTdY4ctdVg7GwZVCAAAAABMX11XuWgM3SSwJQS9tQAAAABNsz8r06PG0D0qETqu+sZfqJZHTAIAAACgcepqhF6eFMtG0R122HZYVqZzQVgLAAAA0FSqETpIYNtRWZlu8w0PAAAA0Hh7sjI9ZgzdIbDtroX6G94YAAAAABrvoaxMe8bQDTpsO6j6Bj9QLT8xCQAAAIBonK+uuTwpLhpFu9lh2zGqEAAAAACitCPIdDpBYNs99Tf2jDEAAAAARGf/8MlpWkwlQodU39BHq+UJkwAAAACI1qUwqEZYMYp2+gcj6IasTGfD4KAxAIBo3fiJT4WZT3wm/Fd//49h+z/u/NA/m71x7m9/vvCXd8Kl//SHD/3zlUv/9+X1D//xXPjLf/mLYQIAsaqfnF6srp5RtJMdth2RlWm/WvaaBAAQg0/+/SfDf/df7wyzM/9D2P6Pu8K2T24PN83sHun/j3N/+vXlYPcP/9+58O5//H/Cyp9/a/AAQEwezpPimDG0j8C2A1QhAAAx2H3jHWF25t+G2U99YeTh7HrVIe7KheVw5k8vhnffP+8vBQBosroaoZcnxbJRtIvAtuWyMq2fDXzFJACApql30X7uU18Ju//NV8Lt23uN+/r+8p//Q/jdu/3w2v/7q3Dmwsv+wgCAJjqdJ8WcMbSLwLblsjKtP2XZYxIAQFPUO2k/92++HL5489ei+Zrfe/+tcOYP/1d4+Z1/Hy789T1/iQBAkzyaJ8WCMbSHwLbFsjKtv1kfMQkAYNrq3bR7/tv/KXzps/9z+NQNN0f9WurahJfe/Pd23QIATfIF1QjtIbBtKVUIAEAT1EHtHTcdCF+e/Wb45D/8N616bfWu2/65E2H5j4W/aABg2lQjtIjAtqVUIQAA09TmoPZKglsAoCFUI7SEwLaFVCEAANM09+k03LP7wdYHtVeqqxL6KyfCyp9/6yYAAKZFNUILCGxbRhUCADAts//0z2HfriPhppndnZ7Db976aXjhjRMOJwMApkE1QgsIbFtGFQIAMGk3fuJT4e6dD4Tbt/cMY+gv//k/hF+t/Di8/PZS+Mt/+YuBAACTpBohcgLbFlGFAABM0mpP7Z277jOMa9BvCwBMiWqEiAlsW0IVAgAwSV3tqd2sut/2+bNPhXffP28YAMAkqEaImMC2JVQhAACToKd2a+p+21+c+4GaBABgElQjREpg2wKqEACAcdNTOzqr/bb9N581DABg3FQjREhgGzlVCADAOK321H559pvqD0as7rd9/vdPhTMXXjYMAGBcVCNESGAbOVUIAMC41D21vZ2HwqduuNkwxki/LQAwZqoRIiOwjZgqBABgHOqe2t7sobDzX/87w5gg/bYAwBjdmifFijHEQWAbqaxMZ6ul3l07YxoAwCjUPbVf/eyh8MWbv2YYU6LfFgAYk1N5UvSMIQ4C20hlZdqvlr0mAQBslZ7a5qn7bZdefTys/Pm3hgEAjMrDeVIcM4bmE9hGKCvTo9XyhEkAAFulp7bZ6n7bk689Fi789T3DAAC26lL9r3+qEZpPYBuZrEy3VUv9jaUKAQDYtO037Aj7dh3RUxuJF19/Npx680f6bQGArVKNEAGBbWSyMl2qlv0mAQBsRl1/cNfO+/XURqjuty3PPh1eeuc5wwAAtuIbeVIsGUNzCWwjkpXpgWr5iUkAAJvRu+WgntoW0G8LAGxRXY0wmyfFRaNoJoFtJIZVCMvVtcM0AICN2H3jHWHfbUf01LaMflsAYAuO50kxbwzNJLCNRFam9Sl+D5kEALBeemq7Qb8tALBJSZ4UfWNoHoFtBLIy7VVLaRIAwHroqe2eut/2Z2e+F5b/WBgGALBe5/OkmDWG5hHYRiAr07oKYY9JAAAf50uf+XpIdn1bT21HvX3pTHj+7FP6bQGA9Xo0T4oFY2gWgW3DZWVaf9M8YhIAwPXM/tM/hwOf/46eWi773bv98PNz39dvCwCsx615UqwYQ3MIbBssK9PZMDhobMY0AICrufETnwr7P/ddPbVc1S/P/jC8/PaSflsA4HpO5UnRM4bmENg2WFamS9Wy3yQAgCvVPbV7b/lW+MqtBw2D69JvCwCsw715UiwaQzMIbBsqK9MD1fITkwAArqSnls3QbwsAXMel6prNk+KiUUyfwLaBsjLdFgZVCDtMAwBYpaeWUfjNWz8NL7xxQr8tAHClJ/OkOGoM0yewbSAHjQEAa+mpZdTqmoRfrfxYvy0AcKUkT4q+MUyXwLZhsjKdq5ZXTAIAqHtq77jpQLhz132GwVi89/5boX/uhH5bAGDV6Twp5oxhugS2DZOVab9a9poEAHTb3KfTcM/uB/XUMhHn/vTr0F85od8WAKg9nCfFMWOYHoFtg2RlOl8tz5gEAHRX3VO7b9eRcNPMbsNg4vTbAgDBAWRTJ7BtiOFBYyvVNWMaANA9dU/t3TsfCLdv7xkGU6XfFgCoHM+TYt4YpkNg2xBZmdZbzR8yCQDoFj21NFXdb/v8758KZy68bBgA0E0OIJsSgW0DOGgMALpJTy0xqPttnz/7VHj3/fOGAQDd4gCyKRHYNoCDxgCgW+qe2t7sobDzX/87wyAadb/tL879QE0CAHSLA8imQGA7ZQ4aA4DuqHtqv/rZQ+GLN3/NMIjSar9t/81nDQMAusEBZFMgsJ2i4UFjy9W1wzQAoL1We2q/PPtN9Qe0gn5bAOgUB5BNmMB2irIyXaiWR0wCANqr7qnt7TwUPnXDzYZB6+i3BYDOcADZBAlspyQr09lqed0kAKCd9NTSJfptAaD1TuVJ0TOGyRDYTomDxgCgnfTU0lV1v2159unw0jvPGQYAtNO9eVIsGsP4CWynICvTXrWUJgEA7dK75aCeWjqv7rddevXxsPLn3xoGALSLA8gm5B+MYCoWjQAA2mP3jXeEfbcd0VMLlfr74Ntf/D8v99uefO2xcOGv7xkKALTDTHUdra4FoxgvO2wnLCvT+sZ+wiQAIH7bb9gR9u06oqcWruPF158Np978kX5bAGiPW/OkWDGG8RHYTlBWptuqpb6hZ0wDAOL1yb//ZLhr5/16amGd9NsCQKuczJPigDGMj8B2grIyXayWwyYBAPHSUwubp98WAFojyZOibwzjIbCdkKxM56rlFZMAgDjpqYXR+d27/fDzc9/XbwsA8TqdJ8WcMYyHwHZCsjLtV8tekwCAuNz4iU+F/Z/7rp7aCPzmrZ+GS//pD5f/vPvT/2O4aWa3oTTcL8/+MLz89pJ+WwCI0715Uiwaw+gJbCcgK9O61+MnJgEA8ah7avfe8q3wlVsPGkbDnfvTr8PJ1x77yG7NL33m6yHZ9W31FQ1X99v+7Mz3wvIfC8MAgLhcqq7ZPCkuGsVoCWwnICvTlWrZYRIAEAdBXzzqHZr9N5+95j/ffsOO8L/821yVRQTevnQmPH/2Kf22ABCXR/OkWDCG0RLYjllWpker5QmTAIDmm/2nfw4HPv8d4V4ENtqBKoRv798tADB1t+ZJsWIMoyOwHaOsTLdVS33DzpgGADSXntp4vPf+W2Hp1cc3tQtTzUVc9NsCQDSO50kxbwyjI7Ado6xMF6rlEZMAgGYS4MWj7jktzz4dXnrnuS3/bwno4/p7128LAFFI8qToG8NoCGzHJCvT2Wp53SQAoJk8Ih+PF19/Npx680cj32mpAiMe9cFy/ZUT+m0BoLlO5UnRM4bRENiOSVami9Vy2CQAoFnqkG7friPhppndhtFwdUh38rXHxt5lKryPx2/e+ml44Y0T+m0BoJm+kSfFkjFsncB2DLIy7VVLaRIA0Bz1Y/B373wg3L69ZxgNt5We2s2q6zHu2nl/+OLNX/MX0HB1TcKvVn6s3xYAmud8nhSzxrB1AtsxyMq0Xy17TQIApq8O4u646UC4c9d9htFwo+yp3aztN+y4vANbv23z1cF+/9wJ/bYA0CwP50lxzBi2RmA7YlmZHqiWn5gEAEzf3KfTcM/uBz3qHoFx9dRu1u4b7wj7bjui3zYC+m0BoFEuVddsnhQXjWLzBLYjlpXpSrXsMAkAmB49tfGow7bnzz4V3n3/fCO/vt4tB8OXZ78p9I+AflsAaIxH86RYMIbNE9iOUFam89XyjEkAwHToqY1H/Tj7879/Kpy58HLjv1b9tvFY7bftv/msYQDA9NS7bOfypFgxis0R2I5IVqbbqmU52F0LABO32lNrJ2TzxRyo6beNR0wfCABASx3Pk2LeGDZHYDsiWZkuVMsjJgEAk1X31PZ2HtI1GoH6kfVfnPtBY3pq3XPt1/TKDQBouVvtst0cge0IDHfX1jfgjGkAwGTUPbW92UN2O0agjaGZXd1xacuHBQAQmZN5Uhwwho0T2I6A3bUAMDl1T+1XP3tIn2gEuvBYuvsxHvptAWAqkjwp+sawMQLbLcrKdLZaXjcJABgvOxrjsRqMvfz2Umd2NNrxHQ/9tgAwUafypOgZw8YIbLcoK9PFajlsEgAwPjpD41E/ev7CGyfChb++516l0eqqjpOvPdbZexUAJsgu2w0S2G6B3bUAMF7bb9gR9u06YtdiBOrwq79yIqz8+bedn4Xd4HF58fVnw6k3f6TfFgDGxy7bDRLYboHdtQAwHnXgddfO+/WCRqB+vLx/7kRY/mNhGFeo+23v3vlAuH279ydNV9d4lGefDi+985xhAMB43JsnxaIxrI/AdpOyMq3/zbs0CQAYrd4tB+1MjEAXe2o3q+63rXeK3zSz2zAarv4AYunVx+0UB4DRO58nxawxrI/AdpOyMu1Xy16TAIDR2H3jHWHfbUd0f0ag6z21m1X3296z+0EfRkRAvy0AjIVdtusksN0Eu2sBYHT01Mbj7UtnwvNnn7L7cAtW+23v3HWfYURAvy0AjJRdtusksN0Eu2sBYOv01Majrj/42Znv6akdIf22cd3/+m0BYGTssl0Hge0G2V0LAFv3pc98PSS7vu3R8Aj88uwP9dSOkX7beNhhDgAjcb665vKkuGgU1yaw3SC7awFg8+pw6sDnv6OnNgK/e7cffn7u+zo8J8SHGL43AKBDHs2TYsEYrk1guwF21wLA5tSPf+//3Hf11EbALsLpqWtC9t7yrfCVWw8aRgTsPgeATbtUXbN22V6bwHYD7K4FgI0RQMVDT21z+IDD9w0AdIBdttchsF2nrEwPVMtPTAIA1scj3vGwU7CZVIjEw850ANgwu2yvQ2C7TlmZrlTLDpMAgOsTMsXj3J9+HU6+9pguzobz4Uc89NsCwIbYZXsNAtt1yMp0vlqeMQkAuDaPccfjvfffCkuvPm43YETUi8TFrnUAWBe7bK9BYLsOdtcCwLXVQdIdNx0Id+66zzAaru7bLM8+HV565znDiNT2G3aEfbuO+GAkAvUHI/1zJ/TbAsD12WV7FQLbj2F3LQBc29yn03DP7gc9qh2BF19/Npx680d2/LXE7hvvCPtuO6J6JAJ19Uh/5YQd7QBwdXbZXoXA9mPYXQsAH1X31Na7/G6a2W0YDaentt16txwMX579pg9NIvCbt34aXnjjhO9FAPgou2yvILC9DrtrAeDD6p7au3c+EG7f3jOMhtNT2x11LcldO+8PX7z5a4bRcHUtya9WfqzfFgA+zC7bKwhsryMr0+Vq2WMSAHSdntp4rAZC/TefNYyO0W8bD/22APARdtmuIbC9hqxMe9VSmgQAXaenNh71I9e/OPcDO/c6Tr9tPOrKkufPPhXeff+8YQDQdXbZriGwvYasTPvVstckAOiquqe2N3vIbr0ICH240uqueP22cfBhCwBcZpftkMD2KuyuBaDL6p7ar372kD7MCNSPVT//+6fCmQsvGwa+nyOnzgQA7LJdJbC9CrtrAegiO/LiIdhho+yYj4cPYgDouHvzpFjs+hAEtlewuxaALqp7ans7D+m8jIBHp/G93g2qTgDoqPN5Usx2fQgC2yvYXQtAl9h1Fw/hDaNiN31cfEgDQAd1fpetwHYNu2sB6Aq9lvGoH4/unzsRlv9YGAZ+DnSUGhQAOqbzu2wFtmtkZbpULftNAoA2691y0M66CKwGNC+/vWRnHWNV77Tft+tIuGlmt2E0XP0BztKrj4eVP//WMABou07vshXYDmVlOlstr5sEAG21+8Y7wr7bjuiujED9CPQLb5wIF/76nmEwMXW/7T27H/RhTgTqipSTrz3mZwQAbdbpXbYC26GsTBer5bBJANA222/YcXn3nJ7a5qtDmP7KCbvnmJrVfts7d91nGBF48fVnw6k3f2QXPgBt9Y08KZa6+MIFtsHuWgDaqQ5e7tp5v37KCOippWnqftu7dz4Qbt/eM4yGq+tTyrNPh5feec4wAGibU3lSdPJfRgS2we5aANpHT20c9NTSdPpt46HfFoCWSvKk6HftRXc+sM3KdFu1XHD/A9AGemrj8bt3++Hn576vg5Io6LeNh35bAFqmk7tsBbZlulAtj7j/AYhZ/fjy/s99V09tBN6+dCY8f/Ypu+CITl2zsveWb4Wv3HrQMCKg3xaAFvlCnhTLXXrBnQ5sh7trV6prxr0PQIwEKPGo6w9+duZ7emqJng+I/NwBgAk7nifFfJdecNcD26PV8oT7HoAYfekzXw/Jrm97RDkCvzz7Qz21tE7db3vg899RwRIBO/sBaIFb86RY6cqL7XpgW/9F73DPAxATIUk89NTSBT488jMJACagU7tsOxvYZmVa/yU/434HIBYeQ46H3Wx0jXqWuNj1D0CELlXXbJ4UF7vwYrsc2K4Eu2sBiIAgJB51X2R59unw0jvPGQad5IOluH5e6bcFIDKP5kmx0IUX2snANivTXrWU7nMAms6jxvFwIjt8YPeNd4R9tx1R3RIBTwQAEJFLeVJs68IL7Wpg26+Wve5zAJqq7qndt+tIuGlmt2E03Lk//TqcfO0xnZBwFb1bDoYvz37Th04R+M1bPw0vvHHCzzIAmu7ePCkW2/4iOxfYZmU6Wy2vu78BaKL6ceK7dz4Qbt/eM4yGe+/9t8LSq4/blQYfo651uWvn/eGLN3/NMBqurkn41cqP9dsC0GTn86SYbfuL7GJgu1gth93fADRJHWjccdOBcOeu+wyj4fTUwuZsv2HH5ScH9Ns2X/2BVP/cCf22ADTVN/KkWGrzC+xUYGt3LQBNNPfpNNyz+0GPDEdATy1snX7beNSVL/2VE54kAKBpTuVJ0WvzC+xaYLtQLY+4rwFoAj218dBTC6On3zYe+m0BaKAv5Emx3NYX15nANivT+hS5leqacU8DME16auNRPxb8/O+fCmcuvGwYMKafh1/97CH9thHQbwtAwxzPk2K+rS+uS4Ft/Zf4jPsZgGlZ7am1o6z5VoOJ/pvPGgZMQP3EQW/2kH7bCPggC4AGuTVPipU2vrAuBbb1X+AO9zIA01D31PZ2HtLZGIH60d9fnPuBHWTgZyXXUVfFPH/2qfDu++cNA4BpeTRPioU2vrBOBLZZmfaqpXQfAzBpdo3FQ/gAzeBphLj4kAuAKbqUJ8W2Nr6wrgS2/WrZ6z4GYFL0MsbD473g5yhbo0YGgCm6N0+Kxba9qNYHtlmZzlbL6+5fACbBzrB4CBggDvWTCvt2HQk3zew2jIbzARgAU3A6T4q5tr2oLgS2i9Vy2P0LwLjpXoxH/QjvC2+cCBf++p5hQEQ/Y+/Z/aAPwyKgYgaACUvypOi36QW1OrDNyrTusViprhn3LgDjsv2GHZd3f+mpbb46ROivnAgrf/6tYUCEVp9iuHPXfYYRAf22AEzIyTwpDrTpBbU9sD1aLU+4bwEYhzo4uGvn/foVI1A/pts/dyIs/7EwDGiBut/27p0PhNu39wyj4er6mfLs0+Gld54zDADG6dY8KVba8mLaHtjWf1E73LMAjFrvloN6aiMJCuqe2pffXrLDC1pIv2086g/Oll593BMOAIzLo3lSLLTlxbQ2sM3KtN4K/RP3KwCjtPvGO8K+247oqY2AnlroDv228airaU6+9pifzQCM2qU8Kba15cW0ObDtV8te9ysAo6CnNq4wQE8tdI9+27i8+Pqz4dSbP/L0AwCjdG+eFItteCGtDGyzMp2tltfdpwCMIgDQUxuHuv7gZ2e+p6cWOq7ut93/ue/6gC2Sn9v6bQEYodN5Usy14YW0NbA9Vi0PuU8B2IovfebrIdn1bY/YRuCXZ3+opxb4kLrf9sDnv6PCJgL6bQEYoSRPin7sL6J1gW1WpnVfxUp1zbhHAfAmv91+924//Pzc93UhAtfkwzc/0wHolON5UszH/iLaGNjWfynPuD8B2CiP0cbj7UtnwvNnn7IbC1iXut5m7y3fCl+59aBhRMBTEwBs9a1dnhQXY34BbQxsl6tlj3sTAG/k20dPLbCld28+mPPzHoAueDhPimMxv4BWBbZZmdbFwq+4LwFYL4/KxsOOK2BUVN/EwxMVAGzC+TwpZmN+AW0LbBer5bD7EgBv1ttDpyEwLr1bDoYvz37Th3Z+FwDQPt/Ik2Ip1i++NYHt8LCxC+5HAK7H47DxcGo4MAl1Lc5dO+8PX7z5a4YRAU9bALBOJ/OkOBDrF9+mwPZotTzhfgTgWm/I77jpQLhz132G0XB1b2F59unw0jvPGQYwMdtv2BH27TriA71Ifk/otwVgHW7Nk2Ilxi+8TYFt/Reww70IwJXmPp2Ge3Y/6JHXCLz4+rPh1Js/snMKmJrdN94R9t12RGVOBM796dehv3LCkxgAXMujeVIsxPiFtyKwzcq0Vy2l+xCAteqe2nq31E0zuw0jgjfdJ197TDch0Bj6bePxm7d+Gl5444TfIQBcKdrDx9oS2C4Gh40BMFT31N6984Fw+/aeYTScnlqgyfTbxqOuSfjVyo/12wJwpSgPH4s+sHXYGABr31jrqY3njbWeWiAW9RMbvdlD+m0jUH8Q2D93Qr8tAKuiPHysDYGtw8YA0FMbkfrR1V+c+4EdUECUv2t6Ow/pt42AflsA1oju8LE2BLb1wB02BtBRemrjevP8/NmnwrvvnzcMIFqrT3Pot42DflsAQoSHj0Ud2DpsDKC76p7ar372kF7BCNSPpz7/+6fCmQsvGwbg9xATt9pv23/zWcMA6KboDh+LPbBdDA4bA+gUO5u8QQZoEv228fABIkCnRXX4WLSB7fCwsZXqmnHPAXSD7sB46KkFuvg7Spd6HFT0AHRSVIePxRzYzlfLM+43gPaze8mbYIAYrD4Fcueu+wwjAj5cBOicG/OkuBjDFxpzYLtcLXvcawAt/m2qHzAaHjMF+PDvr7t3PhBu394zjIZT3wPQKQ/nSXEshi80ysA2K9PZanndfQbQXr1bDuqpjeiN7stvL9mhBHCF+gmRfbuOhJtmdhtGw/ngEaATojl8LNbAtk7DH3KfAbTP7hvvCPtuO6KnNgL1o6QvvHEiXPjre4YBcB36beNRV/ucfO0xv9sA2usLeVIsN/2LjDWwrfsmHDYG0CLbb9hxeReSnto43sz2V06ElT//1jAA1km/bVxefP3ZcOrNH3l6BKB9judJMd/0LzK6wDYr0/pEt5+4vwDa8wb2rp3366mNQP24aP/cibD8x8IwADZJv2086tqf8uzT4aV3njMMgPa4lCfFtqZ/kTEGtkvVst/9BRA/PbXxvGHVUwswWnW/7YHPf0cFUATqDyyXXn3ckyUA7XFvnhSLTf4CowpsszKtE/AL7iuAuOmpjYeeWoDx+tJnvh6SXd/24WUE9NsCtMbJPCkONPkLjC2wPVotT7ivAOKkpzYeb186E54/+5TdRAATUNcD7b3lW+Ertx40jAjotwVohVvzpFhp6hcXW2Bbn+K2xz0F4I0o41HXH/zszPf01AJMQd1vu/9z3/XBZiS/L/XbAkTt4TwpjjX1i4smsM3KdK5aXnE/AcTFo57x+OXZH+qpBWgA/bbx8EQKQLTO50kx29QvLqbAtk69H3I/AXizyWj97t1++Pm57+vkA2gYH3r6XQrAWH0hT4rlJn5hMQW2K9Wyw70E0Gwe54yHXUEAzVfXCt218/7wxZu/ZhgR8LQKQFSO50kx38QvLIrANivT+uS2n7iPAJr9hlJPbRz01ALEx8Gdfs8CMHKX8qTY1sQvLJbAdrFaDruPAJrJI5vxcLI1QNx233hH2HfbEZVDEfAkC0AUvpEnxVLTvqjGB7ZZmdZJ90p1zbiHAJql7qmtd/vcNLPbMBru3J9+HU6+9phuPYCW6N1yMHx59ps+LI2AfluARjuZJ8WBpn1RMQS289XyjPsHoDnqntq7dz4Qbt/eM4yGe+/9t8LSq4/b3QPQQvpt46LfFqC5b3HzpLjYpC8ohsC23pa8370D0Iw3hnfcdCDcues+w2i4uj+vPPt0eOmd5wwDoOX028aj/iC1f+6EfluAZrk3T4rFJn1BjQ5sszKdrZbX3TcA0zf36TTcs/tBj15GQE8tQHd/V/d2HtJvG4G6qqi/csITMADNcCpPil6TvqCmB7ZHq+UJ9w3A9OipjevNn55agG5bfRpGv20cfvPWT8MLb5zwuxtg+m7Nk2KlKV9M0wPb5WrZ454BmDw9tfHQUwvA1X6Pf/Wzh/TbRqCuMfrVyo/12wJM18N5UhxryhfT2MBWHQLAdOipje8NXv/NZw0DgKuqn5TpzR7SbxsB/bYAU3U6T4q5pnwxTQ5s1SEATJjuu3jUj1D+4twP7MQBwO/4lqkrjp4/+1R49/3zhgEwWY2pRWhyYFsPaId7BWD87L7xJg6A9vMUTVx8OAswcU/mSXG0CV9IIwPbrEzrLcivuE8Axku/XTzqxySf//1T4cyFlw0DgC3//tdTHwf1RwATdT5PitkmfCFNDWzrkt+H3CcA4+EEaW/UAKB+wmbfriPhppndhtFwPrgFmJgv5EmxPO0voqmB7UpQhwAwFjrs4uFRSAAm9e8G9+x+0Ie4EVCNBDB2jahFaFxgqw4BYDy237Dj8i4aPbVxvBnrr5wIK3/+rWEAMBH6bePiQ12AsWlELUITA1t1CAAjfgN218779dRGoH7csX/uRFj+Y2EYAEyFftt4qE0CGJup1yI0MbBdCeoQAEaid8tBPbURveF6+e0lO2UAaAT9tvGoP/BdevVxT+YAjM7UaxEaFdiqQwAYjd033hH23XZET20E6kcaX3jjRLjw1/cMA4DG+dJnvh6SXd/24W8E6kqlk6895t8pALZu6rUITQts1SEAbIGe2rjeVOmpBSAGdb3S3lu+Fb5y60HDiMCLrz8bTr35I0/tAGzNVGsRmhbYrgR1CACbeiOlpzYOemoBiFXdb7v/c9/1wXAE6rql8uzT4aV3njMMgM2Zai1CYwJbdQgAm1PXH3zjv//fPKoYgV+e/aGeWgCiV/fbHvj8d1QvRUBNAsCmTbUWoUmBrToEgA2od9Xuv+1/dYpzBH73bj/8/Nz3vVkCoFX028bBbluATZtaLUKTAtuVoA4BYF3qnS0H9/zv3iA13NuXzoTnzz6lpxaA1tJvG4/6A+STv/8/POkDsH5Tq0VoRGCrDgFg/Xq3HAx37rrPIBrs/2fvbmCjOu988T8Cr8C82NgkweaSMqFQXEiCc4mWhNtthlht0qop2VytUnqltBtF2qpVt1mp2ujmqvwropuqVaWlrVqlUpRtI21Jtdo0NFfbtJWL061oWIUGSEhMoTAUCiYvNubNoAXpz3OSoQZs8MvMeOacz0ea2Niesc/vOZDxd37n98ROlp91f8ecWgAyw8antSHO0n/m1bWh59R+xQC4ugkbi1Atga1xCABXYWOx2mBOLQBZFmfr3/2Bz5tvW8W8sAwwKhMyFqGuSg7+XusPMLwY1n5m2TfD3MY2xahS5tQCQAjdfVtC95YtyRVBt+fuN76pGp9Xnl+T+258NITXgtAW4Oo+e/5W8bEIE95haxwCwFWeVAtrq5o5tQAw/HMYVwdVt60Hnw8bd69XCIDhTchYhGoIbGNK/U/WH+BycR7cp25a57LCKmTHZQAY+fMZ822rl9AW4KpuWLeqs1DJb1gNIxE+a90BLhe7UoS11Wnzvg3hxQP/Yk4tAIxA3ODqBzseMd+2ShU7oIW2AMOKo1wr+o/khHbYrt3UkTv/Zp91B7iYMQjVae87L4eNu75uTi0AjOM5zoq595pvW4XixqldBzYoBMDltq9b1dleyW840YGtcQgAQ/wiI6ytLr2nDobn3viGObUAUCJNU5rDh9/3gPm2VebZ1x63ERnA0Co6FmHSBB/svdYb4GJxcw5hbXWIc2r/vftbYf2WzwhrAaCE4tUq8RL8p7b+fXIFC9XhvhsfDbmGpQoBcLmKZpgT1mG7dlPHrPj/aesN8Gf569eEOxc+pBBVwJxaAKic9ms7Qn7BA+bbVoH4gvUT//mgEVAAF9u4blVnxULbiQxsP3v+zT9bb4B3xW6GB5d/WyEmWOzyeWHP95INUgCAyjHftnoc6u8OP9z+ZS9cA1ysad2qzqOV+EYTORLBOASAQb+grFn2fxViAsU5tT/a9miyi7WwFgAqL4aDcdOr2N35ek+XgkygOJ4rjukC4CIVyzInMrDNW2eAd92/9Ks6SSbql8Ozx5NdkeOc2u6+LQoCABMsXor/zBuPJfNtY6cnEyNuCNfWtEIhAP4sX6lvNCEjEdZu6oiJ9E+sM0AIt7V+Mny87UsKMQG2Hnw+/GLv913uBwBVLM63/VjbF724PQHiC9vrN6/xXAngXf3rVnXOqsQ3mqgOW+MQAM5rmtIcVi18UCEqLM6p/d6WB5Pdqf0CAgDVbdtbnUloGK+IobJiSL76A19WCIB3Na7d1JGvxDeaqMA2b40BQli9+BHdIhVkTi0A1KbifNt/2vw35ttW2JKWvNEIAH9WkSbUio9EWLupo/38m1esL5B18Ynvp9sfV4hK/JJ39nj4beHHyS96AEDtyzUsDXcv/HyyORblF1/0/v7Ln3NlEkAI+9et6syV+5tMRIetcQgA5939gc8rQgXEObVxt2lhLQCkR+HYzvDE774Q/r37W8kLs5RX87R5YcVcv8oDnDd/7aaOXLm/icAWYALkr1+TPPGlfOKc2ri7dJxTG3ebBgDS56XDP03m227e54XZcrs9d3+y/wIA5c82KxrYrt3UEXdSW2ZdgSyrn1yfPOGlPOIle8++9ngypzZ23wAA6RYv03+h8GQy3za+YEuZnsPWzQwfft8DCgGQtsA26K4FSC4ns9FYGX5ZO3s82T06zleLu0kDANkSr6iJL9jGK2ziC7iU3vJ59+iyBQjhjveaUstGYAtQQbpry2PwnFqbYQBAtsUrbNZv+Yz5tmWiyxYgkS/ng09K08EAVLtl131Ed20JmVMLAAzHfNvyiF22sQkBIOPK2pRascB27aaO/Pk3jdYTyLLb3vc/FaEEYreMObUAwFWfM5hvWxZxxBdAxuXL+eCV7LD1LzqQaW1NK0LztHkKMU5xTm3sljGnFgAYqeJ82x9te9R82xIw4gsgzF+7qaO9XA9eycA2by2BLGtv+agijMPrPV1Jd4w5tQDAWHX3bUnm28YXgM23Hbs44qv92g6FALIuX64Hrkhgu3ZTR+78m2XWEciquJvukpa8QozBof7uZE7tM288Zk4tAFAS8QXgeMVO3LiUsWlv1YwAZF7ZpglUqsM2bw2BLFvc/CFFGKXinNonfvcFc2oBgNI/1zg3kGxc+r0tD5pvOwYLZt+aNCUAZNgdazd1zCrHAwtsASqgvfUuRRgFc2oBgErpObXffNsx0pQAUJ7Ms1KBrQ3HgMyKnQdzG9sUYgRid4s5tQDARDDfdvQ0JQCUJ/OsK/dP/d6OaY3WD8gqnQdXF7tZnnvjG0YfAAATLr5wvP3Nn4cPv++BsHzePQpyBbEpITYn2GcAyLB8OR60Eh22umuBTGu79n8owjBi98q/d38r6WYR1gIA1SIGkHG+bdz41HzbK9OcAGTc/LWbOnKlftBKBLZ5awdkVf3k+mRDBi63ed+7uzO/dPinigEAVKX4gnKcbxs3QjXfdmi5WcsUAci6kjerlnUkwns7pd1h3YCsmt9wsyJcInapbNz1dZfOAQA1I26Euqt3c1gx995we+7+UF83U1Hec8M1yxUByLr8+dv6Uj5gXQV+YIDMyjXepAjvMacWAKhlcUNU820vF8PrlmnzQ8+p/YoBZFW+1A84qdZ+YIBa0tKwyC835tQCACkyeL7tof5uBQmxScFYBCDTGtdu6siX8gEFtgBllPX5tVsPPm9OLQCQSvGF6Cd+94Vkvm18gTrLzLEFKG0GWraRCO/tkOZfbSC7T1wblmb22OOc2hf2fM+lcQBA6g2eb3vnwocyWYOWhoVOBCDr8qV8sLpa+UEBas2sKS2ZO+Y4p/aF338vdPdtcQIAAJkxeL7tXQu+EJa0ZOvX4eZp85wEQNbdUcoHK+dIhLy1ArJs1tTrsvNLytnj4Vd7nkzm1AprAYCsivNtn3njsUzOt83y1WUA0dpNHfeW6rEEtgDletLa1J6J4yzOqY1dJQAAZHO+bRavLgO4RL5UD1SWkQjvza+db52ALJtaNyPVx2dOLQDAlRXn295x/f8KK29Yk+pjzdLVZQDDyJfqgSZV+w8IUKvmNral9thiV+0PdjwirAUAuIo43/aFwpNJt22aNU6dY7GBrFu2dlPHrFI8kMAWgFF5vacrbNy9XiEAAEYhdtumObRtqm+1yAAlykQFtgBlkNZNF+LmGRt//00LDAAwBjG0jVcqAZBa+VI8SMkD27WbOuIuO+bXAqRM3DDjh9u/nFzWBwDA2MQrleJeAGnT2rjY4gJUcYdt3toApM+G7f9HWAsAUAI/3vnV5MXwNKmvm2lhAUo0x1ZgC8BVxS6QwrGdCgEAUALxRfCfdX9HIQDSKT/eByhHYNtuXQDS5aUDzyoCAEAJxXm2aeuyBSCRH+8DlDSwXbupIxfMrwUIucabU3U83X1bLCoAQIkd7t+lCADpkx/vA0yqth8IAAAAAKBGjXuOrcAWAAAAAKB08uO5s8AWAAAAAKB08uO5c8kCW/NrAQAAAABC+3juXMoO27y1AAAAAAAy7o7x3LmUgW27tQAAAAAAsm7tpo78WO+rwxYAAAAAoLTyY71jXSm++9pNHbPOv1lmHQAAoHrkGpaO6X5HTu4NA+cGFBAAYOzyY71j3UT/AAAAwMVaps0PU+tmJO/nGm++8PHGqXNCU33rRV+7YPatFf/5DvV3h9NnT1z0sZ5ju8Ppcycv/LnQv+PC+wJgACCDxjw+tm6ifwAAAMiSYhjbMv39599ODy0zFoapfzEjzKpvCc3T5tXEMcxtbLvsYyMNjve+83Lytm/gcOg/fSR5vxjuFo7tdIIAAGnRuHZTR/u6VZ3bRntHHbYAAFBiTVOaQ+OU1qQ7ttgV29q4ONTXzcx8bUYS7BZD3ULftnD67MnQc/IPof/M4dB3ptfJBQDUkvz524QFtneoPwAAWRTnxMZu2TkzFiTB7ESMKEibYg2HqmUMc4vdubEzV5ALAFSxMU0lGHdgG1t71R4AgCwYHM62zlw05GgAymuoEHfg7PFwuH9XMke35+S+87c9oefUfsUCACZafix3qpuobwwAANUuBrRxrEGuqV3nbBWLoybi+gxeo2KIG8cqxE5cG58BABNg/tpNHbPWreo8Opo7lSKw1WELAEAqCGjTY6gQ91B/dyj0vhIK/a+G/cd2CHABgErIn789N5o76LAFACCz4uZg8xtuCW3XrAw3XLPcpmApF0dYxNvKsCb5czHA7e79bSgc26lAAEA5xGbXygW2saX3/Jv56g4AQK2IIe3i5g+F9ta7zKDNuAsB7g1rkhEK+97eGrrf3hx29W7WfQsAlEp+tHeoq/Q3BACASiuGtLe973+G5mnzFITLxO7qJS355BbF7ttth38edvX+JvSd6VUgAGCs7hjtHcYb2JpfCwCUTcu0+WFq3Yya+FldTl196ifXh2XXfUQnLWNS7L79ePiS8BYAGJe1mzra163q3DbSr9dhCwBUldgJ+eH3PZB0udXaPNHXe7rCS396Vng7wdqaVoT2lo9e6JSE8Roc3sa/58YmAACjFJ+YViyw1WELAJRM7Kj92+XfqtmNn4qXU2/etyG8UHjSglZQDPqXXXdXaJ97t5EHVOTveZx5G8PbLX/6Seg5tV9hAIArGVWGOubANrbynn/TqN4AQCnEwK2Ww9rB4gZGPSf3hW1vdVrYMss1LA3L5nwkLJ93j2JQUfHfqnjexVscmfDSgWd13QIAw6lMYBt01wIAJbR68SOpCGuLPtb2ReFNOZ/xXtsR2ls/GhbMvlUxmHBxXMJ9jY8mXbe/Lfw4bH/z52bdAgCDLRvNF08az/NktQYASiF216YteIvh8+LmlRa3xGJQ+/CKH4b7bnxUWEtV/r2/c+FD4R9W/mtYvejh5N82AIBo7aaO/Ei/VoctADDh5jfcks7jmnWTsQglEoPa/IIHzKelZhTHJdiMEAB4T/78rWskXziewPYOdQYASmHW1OtSeVxN9a0Wd5wEtdS64iZle995Obyw53s2KAOADD+1HekXjimwfW/DMQAAKIu4mVg+94CxB6RGPJc/P/upsPXg8+HXf3zajFsAyJ4R56ljnWGbV2MAAEotzvz81Ae/Eh5c/m1hLakUxyTEGbd35x4K9ZPrFQQAsmP+2k0ds0byhWMdiaDDFgCAkspfvybcnrs/2bgJ0m7lDWvCLdd/Imza81R46fBPFQQAsiFmql1X+yKBLQAAEyqOP7j3g/9oTi2ZE1+c+Hjbl0J7613JfFsbkwFA6uXDCALbsY5EWKa+AACMR7wcPF4WHscfCGvJsrmNbcnfA2MSACD1RtQEO+oOWxuOAQAwXrpq4XLFMQk/ee1robtvi4IAQPqMKFedVK4HBgCAoeiqheHFMQmfbn88rF70sG5bAEifEW08JrAFAKAiWqbND5/7799NugiBK1s+757wd7c+kXSjAwCpctVsVWALAED5n5Ve2xH+dvm3klmdwMjELvTYjZ6/3oscAJCmp8ZX+4KxBLZ3qCsAACMVRyDcd+OjyaXewOjdufCh8Nmbv25EAgCkQ2kDWxuOAQAwUjFciiGTEQgwfgtm35qMSIijRQCAmlbyDtucmgIAcDUxVPrMsm8mIRNQGnFEQhwtEkeMAAA1a9nVvmC0ga0OWwAAriiGtebVQnnE0SJxxIi5tgBQu642xWC0gW1eSQEAGE5xczHzaqG84lzb1YseVggAqNGnzVf6pJEIAACU5lnntR02F4MKWj7vHpuRAUBtyl3pkyMObNdu6ph1/o0J9wAAXKYY1gKVFedEx3nRQlsAqCn5K31yNB225tcCAHD5k0RhLUyoOC9aaAsAtfUU+kqfFNgCADD2Z5rCWqgKQlsAqCmN700zGJLAFgCAMRHWQnUR2gJAbT2dHu4Towlsc+oIAEDUMm2+sBaqkNAWAGpGfrhPjCawvUMdAQCIYe3fLv+WQkCViqHt6g98WSEAoLrlhvvEiALbtZs6cmoIAEDs2vvUTetCfd1MxYAqtqQlH1YvelghAKB65Yb7xKTxPgAAANlx/9KvhuZp8xQCasDyefeE/PVrFAIAqtOw0wxGGtjm1RAAINvuzj0UFsy+VSGghty58KFkg0AAoPoMN9VAhy0AAFfV1rQirLxBpx7Uoo+1fTGZPQ0AVJ3cUB8U2AIAcEVNU5rDX9/4vxUCalScOX1v2z8mM6gBgKqSH+qDIw1s71A/AIBsun/pYzYZgxo3t7EtrP7AlxUCAKpLbqgPXjWwHW6WAgAA6Rc3LIpBD1D7lrTkw22tn1QIAKgeuaE+OGmsdwQAIN3izMu4YRGQHqsWPmieLQBUjyGnGowksM2rHQBA9sSZl0C6FOfZAgDVYajpBjpsAQC4TLxs2igESKf4dzuOOwEAqkLu0g8IbAEAuEjcST5eNg2kVxx3YjQCAFSF9ks/MGksdwIAIL0+uuDvksumgXQzGgEAqkLu0g/UXemr127qmHX+TaO6AQBk5Nliw9KwfN49ClHF9r7z8oX3T//XidBzYs9lX9NzYm84fe5Eac6JxpuH/Hjj1Dmhqb71wp+n1s0wRqPGxPWK409eOvxTxQCAiXNZs2zdaO8AAEB65XMPKMIE6T11MBwd6Al9A4dD/+kj4ejpN8PRMz3J5wrHdk7YzzXW7x0vt48hblQMfYsh76z6ltA8bZ5FrwJx/Mn2N38ZBs4NKAYATIzcpR+oG+0dAABI6TPFhqVhwexbFaLMDvV3h8PHdyehbKF/Rzh99kToObU/dcc5+JiGC32bpjSHximtoWX6+8PUuukh19QuzK2wOP4kjkHZuHu9YgDAxLhsqLzAFgCAhO7a0iuGs/uPvhp6Tu5JZTA7Hn1nepPbhUD3wIY//yLSsDQJcufMWBBaZy4ybqGM4hiUX//x6WQtAIDKW7upI79uVWdX8c9GIgAAoLu2RGJAW+h9JRT6Xw37j+1wmfk4xBB3cGdu/eT6MGf6gmS8QuzEdb6W1urFj4Qf7HhEIQBgYswa/AcdtgAA6K4dh9d7ukL325vD/mOv6FAsoxh+XwhxD2xIAtz5DTeHXONNoW3OXxmjME4xAI8v3EzkvGQAyLDYNPtc8Q9XC2yXqRcAQLrprh29Yki7q3ezLtoJEuve3bclub1QeDLZ5Kz9uo8Ib8chvnCjyxYAJuYp+eA/DBvYrt3UkVMrAID0WzbnI4owAr2nDoaX/vhvYfubvxTSVqE4HzgGt8XwdsV/++uwpCWfbKrFyOiyBYAJkxv8h7qRfiEAAOnTNKU52XCI4cVu2pf+9KwQq4bE8Hbj7vXhF3u/HxY3rwz5BQ/ouh0hXbYAMCEu2kdMYAsAkGHLrrtLEYax9eDz4dd/fNpc2hoWO6G3vdWZ3GLnaAwjjf+4Ml22ADAhGgf/YdIVvjCnVgAA6dY+925FuETsqP2nzX+TdGgKa9MjBpCxc/SprX8f9r7zsoJcgTEpAFB5azd15IvvXymwbVcqAID0amta4TLxQQ71dydh3jNvPCaoTbFicPujbY8mc4m5XByTEselAAAVNav4zqSRfBEAAOmz+JrbFeE9v9rzZHjid19wGXiGdPdtCeu3fCZZey63ovU+RQCAyrrQPHulwPYOdQIASK8lLfnM1yB21X5vy4Oh68AGJ0RGxbWP50A8F/izW67/RKifXK8QAFA5I+qwBQAgpeI4hPq6mZmuQdxULHbV9pza74TIuHgOxHNBt+2fxX8fFjevVAgAqJwrd9gOHnILAED6ZH0cwrOvPZ5sKgaDxW7bOMd44OxxxTjvtuuNRQCACsoV3xmuw9b8WgCAFMvqOIQYxMWwdttbnU4ChhTnGD/xn0YkRHMb22w+BgCVM7/4znCBbbsaAQCkU8u0+ZkchxDD2n/e+iVhLVfVd6Y3/HD7l4W2weZjAFBJazd15OJbHbYAABnTNjubcyl/1v0d82oZsYFzA8lc2zjrONP/Xsz5KycDAFROLv5Hhy0AQNaeBTZl76meMQiMVZx1nOXQtnnavKQrHwCozFP1+B8dtgAAGbNg9q2ZOt4YtglrGY8Y2mZ5PEL7dR9xEgBAZeTif4YLbJepDwBACp8BNizN1PHGkC2GbTBeWZ5paywCAFTu6Xr8z2WB7dpNHbprAQDS+gyw8eZMHe9z3d+w6JREnGn7451fSTavyxpjEQCgck/X43+G6rA1vxYAIKVaZizMzLH+as+TNhmjpPrO9IYN2/9PJo89q5sVAkCF5eJ/JqkDAEB2tDRkI7CNXZBbDj1nwSm5wrGdyYsBWdN27YcsPgCUX3JJy1CBbV5tAADSp35yfXJpcxb8tvDj5BJ2KIeuAxvC3ndeztQxz21sS/4NAQDKK46r1WELAJARc6YvyMRx6q6lEjbu+nrm5tkubjYWAQAqoF2HLQBARrRMf38mjvOVA/9Pdy1lF+fZbtrzVKaOef6smyw8AFSADlsAgIyYNeW6TBznlsPPWmwq4qXDPw2H+rszc7w3NN9i0QGg/PJDBbbt6gIAkD4tDYtSf4wxPIudj1ApL+z5XmaONc7AbprSbNEBoMyGCmwblQUAIH1m1bek/hi73/qNhaaiCsd2htd7ujJzvHOmLbLoAFBeF8+wjbuQqQkAQDrF7ri0K/TvsNBU3M/3fjczx5prNMcWAMps1qUdtsYhAACkUP3k+kwcZ+x2hEqLYzi2Hnw+E8eahdEqADDBcjYdAwDIgDnTF6T+GPe+87KFZsL8+o9PZ+I4F8y+1WIDQHnNvzSwzasJAAC1qG/gsCIwceffmd7MzLJtmTbfggNAGemwBQDIgKmTZ6T+GPtPH7HQTKiX/vRsJo6zZfpCiw0AZXRpYJtTEgCA9GmZkf6RCD0n9lpoJlScodx76mD6/z2ZfoPFBoAyEtgCAJAKp8+dUAQm3Et//LfUH6ONxwCgvIxEAAAAKJHtb/4y9cfY2rjYQgNAGV0a2N6hJAAAAGMzcG4g9ZuP1dfNtNAAUEY6bAEAAEpoW88vUn+MuYalFhoAyuRCYLt2U8cs5QAASKdcU7siQIV0920JA2ePp/oYZ01psdAAUCaDO2w9iwcAACiBtI9FmDX1OosMAGViJAIAAECJ7T/6aqqPr3HqHIsMAGUyOLDNKQcAAMD47erdnOrja6pvtcgAUCYCWwAAUmHq5BmKQNUYODcQ9r7zcmqPb1a9GbYAUC5GIgAAZEChb1vqj7FlxgILjb93FdI8bZ4FBoAysekYAACpMHXydEWgqnS/s1kRAIBRGxzYzlIOAABqVUvDIkWgqvSc2h8Gzh5P7fHlGpZaZAAoAyMRAABIhQWzb1UEqs6+t7cqAgAwKkYiAACQGm1NKxSBqtJzYk9qj81GfwBQHoMD20blAABIp6On38zEcS6+5naLTVUp9O9I7bHZ6A8AysNIBACADDh6picTx7mkJR/qJ9dbcKpG4dhORQAARiUJbNdu6sgpBQAAta6+bmZYMfdehaCqHOrvTuVx9ZzYa3EBoAyKHbY5pQAASK/+M4czc6y35+4PTVOaLTpV4+hAOjvcT587YXEBoAyMRAAAyIC+M72ZOdbYZbt68SMWnarx0p+eTd0x9Z46aNwDAJSJwBYAICMGzh7PzLEumH1rWL3oYYtOVYjB5rOvPZ6af0de7+kKz7y61sICQJkUA9u8UgAApNvh/l2ZOt7l8+4J7dd2WHiqwra3OsP3tjxY0/NsY1j7z1u/FJ5547HQc2q/RQWAMtFhCwCQEX0DhzN3zPfd+KhOW6pGDDmf+N0Xkm7bve+8XFM/ewyaY1grqAWA8qtTAgCAbOg/fSSTxx07bZvqW8OPd341DJwbcCIw4WK3bbzVT64P8xtuDi0zFlT1z1vo32FeLQBUUDGwnaUUAADp1nNib2aPPc60fXjlhvCT174Wuvu2OBmoCvEFhHg+OicBgMGKIxHalQIAIN2OnNqd6eOvr5sZPt3+ePjszV8PTVOanRAAAFQlM2wBADKi70yvIoR3u23/YeW/JrNtBbcAAFQbgS0AQIbU2kZH5RRn2xaD25Zp8xUEAICqYIYtAECGFPq2JR2m/FkMbuMthtnbDv8i7OrdbHMyAAAmTDGwXaYUAADpl+WNx64mBtnxNnD2eHi9pyvsevu3NoMCAKDi6pQAACA79h/boQhXETcnK3bdCm8BAKg0gS0AQIbES/0P9XeHuY1tijECl4a3+97eGrrf3hz2H3vFJm4AAJSFwBYAIGMKva8IbMcghrdLWvLJLYrBd6xlof/VpHPZ3FsAAEqhbu2mjrwyAABkRwwYV4Y1CjFOMfSOt2It46ZlcVO3OCdYgAsAwFjpsAUAyJg4izVe3h87Rimd4qZlRcUO3J6T+4xQAABgxAS2AAAZFDfSinNZKZ9iB25RDMkP9+9KunAL/TvCkZN7deECAHAZgS0AQAbtevu3AtsKix3Nl3bh9p46GHqO7Qk9J/YIcQEASAhsAQAyyFiE6tA8bV5yWxLyFz4WQ9yjAz0X5uEeObXbOAUAgAyJgW1eGQAAssdYhOpUDHEHd+JGcVOznmO7w9Ezb4aek38IhWM7FQsAIIV02AIAZNT2I78U2NaQS8cpRIO7cY+efjMcPdMjyAUAqHECWwCAjIrBXgz8YjcntWm4blxBLgBA7RLYAgBkWNfep8N9Nz6qECkjyAUAqF0CWwCADNvVu9nmYxkyXJAbz4HD/buSGbmnz50Mhf4dof/MYZudAQBMAIEtAECGDZwbCL8t/DjcufAhxciwGNgPNSM3ipudnf6vE6HnxB5duQAAFRAD27wyAABk15ZDz4Xbc/frsmVIxRB3ySW/NgzVlXv67InQc2q/ogEAjIMOWwCAjNNly1hcqSu3OCu3GOb2nNh7/u2JcOTk3uR8AwBgeAJbAAB02VJSw83KLTrU351048bNzyLduQAAfyawBQBAly0VNbexLXk7ku5cYS4AkDUCWwAAEl0HNoT2uXcnnZEwUa7UnTu4M9cGaABAWglsAQC44IXffy98uv1xhaAqDdeZO3gDtJ6T+wS5AEBNE9gCAHBBd9+W8HpPV1jSklcMasZwG6DF8Qo9x/aEnhN7ko3PjpzaHfrO9CoYAFDVYmA7SxkAACja+PtvhhuuWW4DMmpecbzCkpC/8LFLu3F7Tu4xHxcAqCoxsF2mDAAAFMUNyH7y2teMRiCVhuvG3fvOy8lsXJ24AMBEMxIBAIDLGI1A1lwa4hbHKRSObg89J/9gJi4AUDECWwAAhhRHI7Q0LEwuKYesuTBOYdCLFsUu3EL/DgEuAFA2AlsAAIYURyM88+ra8LfLv2WeLYTLu3AFuABAOQhsAQAYVtyM6Wfd3wn33fioYsAlLg1w4xiROEJhV+9vzMAFAMZMYAsAwBVte6sztOy7Iay8YY1iwBXE8Qnx9vHwpWQGbveR/wiF/leTmdAAACMlsAUA4KpeKDwZpvzFjLB83j2KASMQ59/GFzlWhjVh4OzxsO/traH77c1hV+/mZNwIAMBwBLYAAIzIxt3rQ1N960WXgANXF2dAF7tvozg6QXgLAAxHYAsAwIj9eOdXw2eWfTPMbWxTDBgj4S0AcCUCWwAARiwGSj/c/mWhLZRIMbyNYxNieLv9yC9D4dhOhQGADJukBAAAjEYxtD3U360YUCJxbEKcEf3g8m+Hh1f8MOSvXxOapjQrDABkkMAWAIBRi6HtE7/7Qth68HnFgBKLG5bdufCh8A8r/zV86oNfCbmGpYoCABliJAIAAGMWNyKLYmcgUHrFkQm9pw6Grr1Pm3ULABmgwxYAgHGJoe2zrz2uEFBGsev2vhsfDQ+v3JCMS6ifXK8oAJBSAlsAAMZt21ud4amtf59snASUT5x1G8clxOD27txD5twCQAoJbAEAKIm4s/0T//mgzcigAmJwu/KGNcmc29WLHtZxCwApIrAFAKBk+s70JpuRbd63QTGgQuIMaaMSACA9BLYAAJTcC4UnjUiACho8KuG21k8qCADUMIEtAABlEUckrN+8Jrze06UYUCExuP1425fCwyt+GHINSxUEAGqQwBYAgLIZODcQnnnjsaTbtvfUQQWBCmmeNi88uPzb4VMf/IoxCQBQYwS2AACUXey2/f7Lnwu/2vOkYkAFLWnJG5MAADVGYAsAQEXEbtuuAxvCP23+m7D3nZcVBCqkOCbhszd/XbctANQAgS0AABXVd6Y3/GDHI8mYhEP93QoCFbJg9q1Jt21b0wrFAIAqJrAFAGBCxDEJT/zuC+HZ1x433xYqJHbbfrr98bB60cO6bQGgSglsAQCYUNve6gzrt3xGcAsVtHzePeEzy74ZmqY0KwYAVBmBLQAAVWFwcGtUApTf3Ma28Lm/fCrkGpYqBgBUEYEtAABVJQa3cVRCnHFrczIorzgi4cHl3w7t13YoBgBUCYEtAABVKc64jZuT/dPmvwmb920IA2ePKwqUyX03PprMtQUAJl6dEgAAUM36zvSGFwpPhhcP/EtY3Lwy3Hb9fcml3EBpxbm20cbd6xUDACaQwBYAgJowcG4gGZcQb3GjpBWt94W2OX8VmqfNUxwoEaEtAEw8gS0AADWn2HUbb21NK8Lia24PS1ryyTxOYHyEtgAwsQS2AADUtO6+LckthkvCWygNoS0ATByBLQAAqTFUeHtD8y3GJsAYCG0BYGIIbAEASKVieBu1TJsfco3LQtu1/yMsmH2r4sAIxdC2//SR0HVgg2IAQIUIbAEASL2eU/uT20uHfxrqJ9eH+Q03676FEbpz4UPh6Ok3kw3/AIDyE9gCAJApA+cGLuq+bZrSHOY33BLmz7pJgAvD+FjbF0PPyT3JCx8AQHkJbAEAyLS+M72h763OC92DMcCdM21RyDXeFHLNt4S5jW2KRObFTfw+ddO68P2XP5e86AEAlE8MbPvP3xqVAgAA3gtwz7zXgVt492O5hqUh13hzaJmxMLQ0LNSFSybF8371B74cnnnjMcUAgDKKge2287c7lAIAAIZWOLYzuRXFObhzpi8Q4pI5S1ry4baj25N50ABAeRiJAAAAoxQvCb80xI1iJ27L9PeHWVOuCy0Ni8KC2bcqFqmzauGDYVfvb5JudACg9AS2AABQIkOFuHEmbuOU1qQbd+rk6UmQ29q4OJkJCrUonrurFz8SfrDjEcUAgDIQ2AIAQBm9OxO397IgtzhWYdaUljBr6nXJaIWpfzFDVy41IZ6n7dd2XNisDwAoHYEtAABMgOJYhRB2Xva5S8PcxqlzQlN9a5hV32JWLlXjY21fDLt6NyfnMgBQOgJbAACoMlcKc6PimIVLA92pdTPC3MY2BaQi4miEO67/X+GFwpOKAQAlJLAFAIAaUxyzMFygG8UN0KK4CdrUuulCXcpi5Q1rwpbDz9qADABKKAa2hfO3O5QCAADSozgz99LZuUXFsQtR3BAtedvUnrw1R5fR+PD7Hggbd69XCAAokWJgCwAAZMifxy4MCnUPbLjoa2KX7tTJM0LLjAXn304PLQ2LzNHlMsvn3RN+/cenddkCQIkYiQAAAAypGOR292257HPFObrFkQuxO9e4hezSZQsApSOwBQAARq04R3eo7tximBtHLRQ7c1sbFyebVJFOumwBoHQEtgAAQEldFuYOEscszJrSEmZNvS7pyjViIT1WtN4XXig8qRAAME4CWwAAoGLeDXEv78qNQW4crzBrynU6cmvULdd/Irx44F+S+cgAwNjZdAwAAJhwMci9tCM3jlaYM21RsulZy4yFoaVhoW7cKhYD9sXNK8O2tzoVAwDGQWALAABUpXdHK2y5aNOz+sn1Yc70Bcl83Bji3nDNcp24VeS26+8T2ALAOBmJAAAA1Ix4uf2l3bjFTtxc400h13xLmNvYplATJNY+rofNxwBg7AS2AABATbuoE7fw7sfiTNzYhRs3Nlsw+1ZFqiCbjwHA+AhsAQCA1LnQhfvexmYC3Mppm/NXAlsAGAczbAEAgNQbHODGObjzG24Oi6+5PdzQfIuNzEos1tNYBAAYu7p1qzoLazd1qAQAAJAJcQ5uHJ9Q3MysZdr8kGtcFtpb7zL/tkQWN38ovHT4pwoBAGNgJAIAAJBpPaf2J7cYMMbO0Bg2Cm/Hp+3a/yGwBYAxEtgCAAC8J17GH4PGYni77Lq7Qvvcu41NGCVzggFg7CYpAQAAwOVieNt1YENYv+Uz4amtfx+2HnxeUUahrWmFIgDAGBQD2xeVAgAAYGhxw7KNu9eHr/36E+FXe54MA2ePK8pVtMxYoAgAMAY6bAEAAEYoblgWu26/9h/3hmdfezz0njqoKMPINbUrAgCMgRm2AAAAY7Dtrc7k1n5tR8gveMCc20uYYwsAY6PDFgAAYBxiaBvn3BqVcLmWafMVAQBGqRjYdikFAADA2MVRCU/854Ph9R6/XhW1TF+oCAAwSjpsAQAASqTvTG945o3Hwo+2Parb9rxZU69zUgDAKAlsAQAASqy7b0vSbXuovzvTdbDxGACMXnHTsaNKAQCQLk1TmkPjlNaQa7y5qn/Oo6ffDEfP9ITCsZ0WjVSJ3bY/3P7l8NEFfxeWz7snkzWYVd/iRACAUSoGttuUAgAgHdqaVoT8DQ+EuY1tNfezbz34fPj1H59Ogi5Ig4FzA2Hj7vXJ+1kMbZunzXMSAMAo1SkBAEB6rF70cE2HQvFnX9KSDz/r/k7Y9lanBSU1shzatkybH3pO7XcSAMAImWELAJAS+evXpCIMqq+bGe678dEk5IE0iaHt3ndeztxxT62bYfEBYBSSwHbdqs4upQAAqF1xXu2dCx9K1THl5z9gYUmdH+/8aug9dTBTx9wy/f0WHgBGQYctAEAKLG7+UOqOKY5GqJ9cb3FJlTjT9rk3vpGpY55aN93CA8AoCGwBAFIgN2tZKo9rfsPNFpfUKRzbGV7v6VIIAGBIgwPb7coBAFCbpv5FOmdEtsxYYHFJpZ/v/W5mjjXX1G7BAWAUBge2R5UDAACg/PrO9OqyBQCGZCQCAABVq3HqHEUgtbb1/EIRAIDLDA5stykHAADVpKm+VRFIre6+LWHg7PHUH+es+haLDQCjYCQCAABVq7VxsSKQavve3pr6Y2yeNs9CA8AoGIkAAEDVqq+bGeon1ysEqVU4au9nAOBiRiIAAFDV5kxfoAikVs/JPygCAHARIxEAAKhqLdPfrwik1pGTexUBALiIkQgAAFS1OTN02JJeA+cGFAEAuMiFwHbdqs4u5QAAoNq0zlykCKTawNnjigAAXKDDFgAgBQp96d2OYG5jmwUm1Q7371IEAOCCSwPbfiUBAKDa5BqWKgIAAJlwaWC7TUkAAKg2ucabFQEAgEwwEgEAIAV6TqR7p/mWGQstMgAAmaDDFgAgBU6fO5Hq47vhmuUWGQCATLg0sD2qJAAAtef02XQHtvV1M82xBQAgEwS2AAAp0HNqf+qP0Rxb0mrB7FtTfXy9pw5aZAAYBSMRAABSYuDs8VQfX9u1H7LIUIOODvQoAgCMgk3HAABS4nD/rlQf39zGttA0pdlCAwCQZtsvCmzXrersUhMAgNrUN3A49ce4uFmXLeliNjMAcImjOmwBAFKi//SR1B9je+tdFhpqTKHP5D0AGM3/OocKbLerCwBA7ek5sTf1x2gsAmljMz0A4BJDBrZH1QUAoPYcPZONjX1WtN5nsUmNxqlz0v9v0+k3LTQAjOJ/nUMFtgV1AQCoPT2n9mfiOG+5/hMWm9Ronbko/b91ZuTFJAAokW0CWwCAFNn7zsupP8b6upmh/doOi03tn8uT65MxH2nXf+awxQaAUTASAQAgRXqO7c7Ecd52vbEI1L75DdmYX9t3ptdiA8AIrVvV2TVUYGsLTwCAGtVzcl8mjjN2JeYallpwatria25P/TEe6u+20AAwSjpsAQBSZP+xVzJzrPncAxacmrakJZ/6Yzw6YH4tAIzCi/E/lwW261Z16rAFAKhR8dLjgbPHM3GsC2bfapYtNautaUUyjzntek7ssdgAMEqThvl4v9IAANSmfW9vzcyx5hfosqU2ZWEcQtRzYq/FBoCRSxppJ13pkwAA1J7C0e2ZOdbmafNC/vo1Fp2aUj+5Piyfd08mjvXIqd0WHABGLhlVO+lKnwQAoPYU+rdn6njvXPhQaJrSbOGpGSvm3puJ44zjWeKYFgBgxHTYAgCkUc+p/aH31MFMHfP9Sx+z8NSE2F17e+7+TBxrlsazAECJ6LAFAEirfb2vZOp45za2GY1ATYjdtVnYbCyy4RgAjJoOWwCAtNr19m8zd8xxNEKuYanFp2rF0R3xPM2KQv8Oiw4Ao7BuVacOWwCAtOru25LMj8yaNcv+b2iZNt8JQFVavfiRzBxr/PencGynRQeAkXux+M6Qge26VZ06bAEAalwW50fGS83vbfvHZE4oVJPbWj8ZFsy+1b8/AMBVTbrC5/qVBwCgdnW/vTmTxx3n2X5m2TeFtlSN2PW9auGDmTrmwtHtFh4ARqer+M6VAltdtgAANWzbW52ZHIsQCW2pFvEc/NRN6zKz0VjRrt7fWHwAGJ0LI2qvFNgW1AkAoLa93tOV2WMX2jLR4rkXz8HmafMyddyH+rtD35leJwAAjM6F5lmBLQBAim0/8stMH38xtG2a0uxkoKKKYW08B7Om0PuKEwAARm9EHbZGIgAA1Li4S3vvqYOZrkEMzD73l0+FXMNSJwQVkeWwNvlF8s1fOgkAYJTWreocUYftUaUCAKh92w69kPkaxPmhDy7/drit9ZNOCMp7rmU8rI3jEHpO7XciAMDoXPQ/z2ED23WrOrvUCgCg9m059JwivOfjbV8Kn73560YkUBYt0+aHh1duyGxYG207/HMnAgCMXmHwHyZd5Yv71QsAoLYNnBsIWw8+rxDvWTD71mREgm5bSimeT59f8VTSzZ1lu3p/42QAgNG7aDTtpNF8MQAAtWnLn36iCIPEUK3YbRu7ImGsYrd2PI/i+ZR1r/d0hb4zvU4KABi9i0bTXi2wLagXAEDtizMl977zskJcInbbxq7I1YseNiaBUYtdtbFbO55HhPDSn55VBAAYm67Bf6i7yhcX1AsAICXPAgtPC5aGsXzePWFJSz78tvDjsP3Nn+sS5IpyDUvDvR/8x9A8bZ5ivKf31MFQOLZTIQBgbAqD/3C1wNZIBACAtDwLPLYz6bIV2g4tjkm4c+FDyS3O/P31H58W3HKRGNTmcw/4OzSErr1PKwIAjNG6VZ2FwX/WYQsAkCG6bEcmdtzGWwy4XzrwbOju26IoGdZ+bUe47fr7wtzGNsUYwsDZ42FX72aFAICx2X7pB64Y2K5b1blt7aYOZQMASAldtqMT6xRv8XLv7iP/Eba9+ctkHjDpF2caL7vurtA+926jD64ijhIZODegEAAwNkcv/UDdCO4Un5HaOhcAICV02Y5eDOxW3rAmucXwdtuhF0L3O5uFtylTP7k+LG5eGdpbP+rvyAjF7toth55TCAAYx9PzSz8wksC2EAS2AACpEbtsX+/pSjbZYvRieFucdVvsvC30v2psQo2KnbTzG24Jbdes9HdiDHTXAsD4n55f+oGRBLZd5293qB0AQHr8fO93hVMlcKHzNqxJ/hzHTRT6toVC/44kGKc6tTWtCLnGm0Ku+RZzacdBdy0AlETh0g/UjeVOAADUtr4zveFXe55MukQpneLM26JD/d2h0PtK6Dm57/xtjxEKEyB20M6ZtkhAWwab9jyluxYAxmndqs6uSz8msAUAyKjYGWdDpfKK4eClAWEMcQ8f3x36Tx9JOnH7zxxOAnTGL9ewNMya0hJmTb0u5JraQ2vj4lBfN1NhyiCOA3np8E8VAgDGp3+oD44ksN2mdgAA6RM74174/ffCp9sfV4wKGirEjWKQe/rsiWSkQhTD3OjIyb26GAeJoWzytvHmMHXy9NDSsCjMqm/xwkOFxX87AIBxGzJ3vWpgu25V59G1mzpi2tuohgAA6RI3yrIBWXUohriDRyoMFjsajw70JO/3HNsdTp87+e77J/aef/9E8n4MfGtx7ELLtPlhat2M5P1ih2zy8RkLw9S/mJF8ziiD6hFnNdtkDwBKYmyB7aA723gMACCFNv7+m+GGa5a7dLzKxQ7SYhfpcKHuUIqdu5fqGzicjGUopziWYCij+fmpLnGjsY27vq4QAFAahaE+KLAFAMi4eLn9T177mtEIKaUzlVKKG42ZuQwAJTNkh+2kEd65oH4AAOkVL2/eevB5hQCGFbu1bTQGACU1rsDWxmMAACn3i73fT+akAlwqjkJ4rvsbCgEApdMf9w4b6hMCWwAAEnE0wjOvrlUI4DJxFEItbmgHAFVs2Lx1RIHte2lvvzoCAKRbDGSefc0sW+DPXu/pMgoBAEpvfIHt1R4EAIAUPXN8q9M8WyARx6Rs/P03FQIAyvC0e7hPjCaw7VJHAIBs2Lh7fbLBEJBtcUxKHJcCAJRcYbhPTCrFgwAAkD4/3P5lm5BBhsXxKObWAkB5rFvV2TXc54xEAABgSMVNyOLu8EC2bN63IRmPAgCUxRVfER1xYLtuVafAFgAgY2J33T9v/ZLQFjIkbjL2QuFJhQCA8rlizjpplA+2XT0BALIlhrY/6/6OQkAGxNnVNhkDgLIraWCryxYAIIvPKN/qTOZZAukVw9o4u9omYwBQ/qfXV/rkaAPbgnoCAGT0WaXQFlIrjj0R1gJA5Z5aX+mTow1su9QTACDDzyyFtpA6MaxNZlULawGgEvrXreosXOkLjEQAAGB0TwiFtpAaxbA2zqoGACrzdPpqXzCqwHbdqs6j59/0qysAQMafZb7VGX607dEk7AFqk7AWACbmqfTVvmBSOR4UAID06+7b8u5l1EJbqDlxg7H1m9cIawGg8soS2HapKwAAUQx7Ymgbwx+gNsS/rzYYA4AJo8MWAIDyiqFtDH/2vvOyYkCVe72nS1gLABNo3apOgS0AAOUXw58f7HgkbD34vGJAldq8b0N45o3HhLUAMHFeHMkXjTqwXbeqsxBsPAYAwBA27l4fnn3tcXNtocrEv5cvFJ5UCACYWCNqhJ1UzgcHACCDz0Lf6jTXFqpEfPHke1seTP5eAgATrjCSLxprYNulvgAADKc419aIBJg4ca70+s1rkr+PAEBV0GELAMDEiXMy44iEH2171IgEqLBf7XkymSttXi0AVI91qzq7RvJ1AlsAAMqqu29LeOI/H0y6/YDy6j11MBmB0HVgg2IAQHV5caRfOKbA1sZjAACMRt+Z3qTb79+7v6XbFspk874N4fsvf84IBACoTiNugK0b5ze5Q60BABiplw7/NOzq/U24a8EXwpKWvIJACcSu2ufe+EYoHNupGABQvUYc2E4axzfpUmcAAEYrdts+88ZjyWzbGDQBY1fsqhXWAkDVq1iHLQAAjEmcbbv/5R1hxdx7w+25+0N93UxFgRE61N8dnuv+hvEHAFAj1q3qrEhg26XUAACMR9zBPm6OtP3Nn4cPv++BsHzePYoCV/o7c/Z4+Fn3d8K2tzoVAwBqx4uj+eIxj0RYt6rz6Pk3Xs4FAGDc4piEjbvXh6e2/n3Y+87LCgJD+NWeJ8P6zWuEtQBQe0Y1qaCuBN9svpoDAFAKcQ7nD3Y8EnINS0M+90BYMPtWRSHzth58Pvz6j08nL2wAADWpazRfXFeCb7ZazQEAKCXBLYTwek9X+Pne7wpqAaD2VbzDFgAAykJwSxbFsSBdhaeT8x8AqHn7163qLIzmDuMKbM9/s661mzqUHQCAsioGty3T5ocV/+2vbU5GKhl9AACpNOqG17oSfNPt52/L1B4AgHLrObU/2ZwshlrLrrsr3J67P9TXzVQYatbA2ePhlQP/L2w5/KygFgDSaUIC264gsAUAoIJisNV1YENya7+2I7S3ftS4BGpK76mD4aU//lvY/uYvw8C5AQUBgPTqGu0dShHYmmMLAMCE2fZWZ3JrmtIcVrTeF265/hO6bqlacSOxbT2/CN19WxQDADIgjpQd7X1K1WELAAATKnbdvlB4Mrm1Na0I7S0fDUta8grDhCt20+7q/Y2xBwCQLdvHcqdxB7Zxl7O1mzr6z7/baA0AAKgGsXsx3up//82wuHllaLtmpfCWioqzaWM37ZY//SSZvQwAZFLXWO5UV8JvvtoaAABQTeJs0OLIBOEtZT/f3gtpd739WyMPAICoayx3EtgCAJAJl4a38xtuDouvuT0Jb828ZaziuIN9va8IaQGAoYxp76+6ifzmAAAwEWJ4WxybsHH3+tAybX5om70y5Jraw4LZtyoQV3Sovzt0v/Wb0P3OZuMOAIDh7I+jZMdyx5IEtnG3s7WbOiwDAAA1KYZuSfB2YEOon1yfdN/mGm8KueZbwtzGNgXKuGIX7f6jr4ZdvZuTwB8A4Cq6xnrHuhL+EC+ev91hLQAAqGWDu29DIVwIcFtmLNCBmxExoO05ticUjm4Pu3p/E/rO9CoKADBaY55IUMrAtisIbAEASJmLAtwDG5KPxREKucZlYc6MBaF15iJduDUujjgo9L4Sek7uC/uPvSKgBQBKoWusdyx1YPv/WQsAANLuwgiFQXINS0PL9PeHWVOuCy0Ni3TiVqkYzh4+vjscObE39Jz8Qygc26koAECp9a9b1VkVHbY2HgMAILNi8Hdp+Nc0pTk0TmkNucabQ+PUOaGpvjW0Ni4O9XUzFazM4liDowM9odC3LRw9/WboObnHBmEAQKV0jefOJQts163qPLp2U8f28+8usyYAABCSS+vjbaguztiRO3XyjGQ27tTJ05Ou3Kl1M4xXGIViKNtzbHc4fe5kKPTvCKfPnhDMAgATrWs8d64rww8jsAUAgKsohrjJbNwhxEA3imMWptZNvxDqRrPqW0LztHmprk8cXRDD16RWfe9ezNdzYm84fe5E6D9z2JxZAKCajWsSQTkC2y9ZEwAAGJ9ioHu1Gav1k+vDnOkLLvx51pSWMGvqdRd9Ta6pfcj7lnM8w953Xr7sY6f/60ToObHn4uPs33HhfUEsAJAG61Z1do3n/uUIbAEAgAoZODdwSag7RMB7YINCQRWKY1AASJ0Xx/sAk0r508Q5tuffbLcuAAAAMLy4KaGZ1QCp1DXeB5hUjT8UAAAApNldC76gCADp1DXeBxDYApTB6bMnU3U8LdPmW1QAgBJpa1oRlrTkFQIghcY7vzYS2AKUQc/JP6TqeNqv+4hFBQAogfhC+F/f+L8VAiCdXizFg5Q8sDXHFiB9brn+E8mcNQAAxq5+cn342+XfCvV1MxUDIJ26SvEgk6r5hwOgSn65OP9LxerFjygEAMBYn09Nrg+fWfZNYS1AunWV4kEEtgCMyILZt4a7cw8pBADAKOUaliZh7dzGttQe46H+bgsNZF4p5tdGdWX6+bosEZBlp8+eSOVxrbxhTeg5uS9se6vTIgMAXEUcKfXh9z0Qls+7x/NfgPTbWKoHKkuHrTm2QNb1nNqf2mO778ZHQ/u1HRYZAOAK8tevCZ/7y6cyEdYCkOgq1QPVlfmHXGatANLnY21fDEfP9ITCsZ2KAQAwSFvTinD3Bz4fmqfNy9RxF/q2WXwg67pK9UCTyvhDPmedgCzb+87LqT22uFnGg8u/HT71wa8kl/oBAGRdy7T54bM3fz18uv3xzIW1AIT+das6S/bKVdkC21IN2QWoVaf/K/1zvJa05JNL/eIlfwAAWVQ/uT6sXvRw+PyKp5JNWrOq0L/DyQBkWVcpH2xSmX/YF60XkFU9J/Zk45eUupnhzoUPhYdX/DC5BBAAICvii9YPr9xgTu15/WcOOyGALOsq5YPVVeCHvcOaAVnUc2Jvpo43XvoXLwGMoyA27vp66DvT6yQAAFIpq3Nqr8RzPyDjSjoadlIt/bAAtSRuypVF8VLAf1j5r+Hu3EPJJYIAAGkRZ/ebU3u5NO/dADAC+9et6iyU8gHLGti+N2y337oBWdRzan8YOHs8s8e/8oZ3LxFsv7bDyQAA1LT4InR8MTq+KJ3lObXDPu89tlsRgCzrKvUDTqrFHxqgVhzu35XtX27qZob7bnw06UTJNSx1QgAANee21k8mL0LHF6MZWqH/VUUAsqzkEwbqKvRDr7Z2QCafvPZt04UR3h2TEG9bDz4ffrH3+2Hg3ICTAwCoavHF5ns/+I9GH4zAkVM6bIFM6yr1A9bV4g8NUCsK/TsUYZC4g/KSlnz4beHHoevABgUBAKpOnFO7evEjXnQfod5TB204BmTZ9nWrOo+W+kHLPhLhvaG7260fkEWFYzszPcd2KHFMwp0LHwoPr/ihMQkAQPU8RzGndky6j/yHIgBZ9lw5HnRShX74LusHZNW+t7cqwhDi5YUPLv92+NQHv5J0sgAATJS4Sao5tWNjfi2QcQJbgFrU/fZmRbiCOCIhdrLkr1+TdLYAAFRKvNrnc//9u8kmqfEqIEYnXknW3bdFIYCs6l+3qnNbOR64IoHt+R/+OWsIZNWuXoHtSMQxCX936xNJhwsAQDnFq3viVT7xap+5jW0KMkav93QpApBlZftHcFIFD2KjdQSyaODcgCezIxTHJMQOl8/e/PXQMm2+ggAAJRWv5vn/2bsbGL2qO0/QZ9MeJZB0bENIGwbjwuMFE7LtyoLWgHbiurlq4oyauMhoxDCR7AIh0XKUxUitoG5pLuZtbUZEI2FPFJRICMpIER2NNiknq4lhdHPL2V0Cq9Cx00kwidcuBwJOsrEpOoFEm2j2nqoy4cMf9fF+3I/nka5Od6u7Xe//vamq91fn/k58qic+3ROf8mFpnvt/v2MIQJv1bINqPwPbSe8j0FZqERYmHvSxfePDMwd/qEkAALrhVE9tfKqHpVOHANC7rHNZH19ETJ0f8F4CbRRrEeIvtbrRFiYe/PGh1X8ZisMPh6de+rqBAAALFntqN6/brvqgyzxBBrTcwU6ST/Xq/3nfdtjOvYhj3k+gjdQiLF4Muf/V+rtmDgSJH7gAAOZDT21vPf2zrxkC0GY9/YD/jj6/GIePAX6pZVHiB634gSt+8IofwAAATudUT+1f/U8P66ntkSO/+m44/qr9WECrjffy/3m/A9tJ7yfQVvGX2vjLLUsTP3jFD2DxgxjNMbRy2BAAWLLYU3vntV+c6alVRdU7B156whCANpvuJPmBXv4DfQ1syxcTd9hOe1+BtpqcetQQuiB+AIsfxHZs3BPWr9xoIADQcrE2aezP7w+f+ODfhgvOv9RAeujEqy+EA7/MDQJos543CCwbwIuaLK8t3lugjaZe+eHML7k+SHRHnOO/G/7szM7lvc/dH07+7oSh1NS7lr3HEABYsFiT9OHLtoZrLr3JMPr1gf6IDQiAb4W9/gfeMYAXpccW8EsuXbX2wmvD3Tf857B56I6Z3jrqx2EwACzEG3tqhbX9Y3ctwIyeZ5uDCGwnva9Am8Vfcl+cPmQQPXDD5beGHTc8NtNfR304RA6AhYh1SHpqB8PGA4Cwv5PkL/f6H+l7YFu+qKlyOej9Bdps3+EHDaFH4ge32F8Xe+xinx3Vt/ydFzf2tZ187SVvMECXrDp/zczP91iHpF6q/+yuBZjRl+aAZQN8cRu8x0BbxS7b2LsaH+WnN+Js4/XMC98ITxz5UnjtD68ZSkUNLf/zxr626d/+3BsMsESx/uDGtXeqPhiwiWc/ZwgAfQps39HkFwdQZfGQLHovfriLNQmx545qGlo5bAgAnFb8+R1/jgtrB+tHxydnNhwAtNyxueaAnhtIYFu+uAPxRXqfgTY7+bsT4VuHHzKIPog1CbHnbsfGPWoSKshOcwDeKvbUxp/bemoH77Xf/1N4/MgXDAKgjxtQ39GGFwlQVZPPP+YAsj6KfXe3X/Ofwr+96t876KpCH8ib7Pivj3iTARZAT231FIcfntloAEA7AttJ7zNA+R3/kD6wfvvAqpFw9w3/eeYxy9iLx+Bc+b7rG/36fvuHX3uTAeYh/jzePHRH2L7xYU9eVEg8c+Gpl75uEAAhTHeSfLJf/9jAAtvyRcZUetr7DbTd8VePqUYYkPiY5Z3XfjEMX5QaxoDE8ByAdrvu4o/P9NTecLm++SqJVQjOXAB4XV+bAt7RphcLUFWxGiHuYKD/4uOWn/jg3848fhkfw6R/Yh1C03sJHdACcGaxVz721P6r9Xfpqa2gr/3gP6hCAPijVgW2k95vgFlf+eHOmZ0MDEZ8/DI+hhkfx1ST0B/Xrf6EIQC0UOyRj38ojb3yemqr6cmjj4VDJ582CIA5c00BfWOHLUBFvPaH18Ijz9xlEAMWH8eMj2XGxzPp7Yf1pncUOlAQ4M1O9dTGHnk9tdX++bVvSl0XwBvs7fc/ONDAtpPkLw/iRQNUVeyz/eoPPmsQg/5AuexPZx7P/Kv/8Qszj2vSfR++bGvjX+Nvf+/AMYBT9NTWw4lXXwh7Dv61QQC8Wd83nL6jjS8aoMoO/DKfeQyNwbtk+fqZxzX/7VX/fmZHKN0Ru4KvufSmxr/O46/8xJsNtJ6e2vqI1Vx//4/ZzFNfALxJ37PLZRV50Y947wH+KD6G9s5/9p5WhFp18IFVI+Hy910TvjP1lZkD4liazeu2t+J1/vYPv/FmA60V/9D50bWfmvkZSvXFsDZWc8WnvQB4k71zDQF9NfAdtnMver/3H+AtPxV+sis888I3DKIi4q6gj6y7Y2aX0PqVGw1kkeLs2tJbODX9fW840L6fl39yXhhZfetMT62wth6EtQBnNZBmgGUVevGb3AMAbxZD28hO2+qIp1n/u+HPhiO/+m7Y+9z94eTvThjKAj7E3/zBv2nN653+3UvedKBVhi9Kw8fWf1r1QY0IawHOaXIQ/+g7KvLi9dgCnIGdttUUd4nG3UPxtOsYRHJuW67461Z9iBfmA20Re2rjQZ2f+ODfCmtrRFgLcE4HO0k+NYh/uBKB7dyLP+g+ADi9GNp+6/BDBlFB8bTreOp13FXEmcXTwdv0aGzcgQ3QdLGnNh7MGQ/ojAd1Uh8vTh8S1gKc2/ig/uF3GAJAPcTDrr76g88aRAXF3URxV1HcXRR3GfFmq85fM3M6eJucfE0dAtDgn3t6amst/lFxz8G/FtYCnNvAGgH+u//23/5bJSaQFelQuRx1LwCcXQy/brtmt0cOKyxWWDxx5EvhtT+85n5t6f36Xw7tDk+99HX/YQAaJz5RMrJ260ynO/Xz5NHHwr4pT20BzEOsQxge1D9emcA2yor0QLlscE8AnF3c2XLL1TtnelSpptgL952pr8zsjG7zfXrntV9s5Yf6B5++3c4loFHiEyQjQ1v97lHj30u+9oP/EA6dfNowAObn7k6S7xrUP76sYsMYL68H3BMA5/il+w+vhfHv3zPTC5qsu91u2wqK78lH1t0Rhi/ZHCae/VyYeuWHrXr9cWft6PrPtHYHlrAWaIrYU/vhy7aGay69yTBq6kfHJ8PeH/9HT/4ALMzEIP/xqu2wHQpqEQAW/EFqy5X32PFScbEvbu9z94eTvzvR+Nfa9tqO+F7HP6gA1Fl8SmLjJaPh+qFb/GG4pk68+kLY9+MH7aoFWLiB1iFElQpsI7UIAIsTO+U+tv7TPlRV3LcOPxSefnGisbtc1q/cGG7+4N+0+j6M73GbqzCAZvxOoafW7xsALTbQOoRoWQWHMh7UIgAs2IFf5uG5E0/O7IaJj+JTTfG9ibuVYr/twV883qgdt5uH7gg3XH5r69/jqenvu9GBWopPSGxet91TOzUW6w8eP/KFVjzRA9BDE4P+Aqq4w3YoqEUAWJJYk/DRtZ8KH1g1YhgV98wL3whP/+xrte48PdVXe8ny9d7Q2d9lDAGolVh/cOPaO/XU1tiL04fCvsMPtq4zH6AHBl6HEFUusJ37oKMWAaAL4onOcaeMIK36Yu/pgZeemNkpXacP+JtWf9Ku2re8j/prgToZWX2rntoae+33/xS+eejztfr9AaDiBl6HEFU1sB0rl0fcIwDdod+2Xh+8vvf8/x4O/OK/VnbXrYNozuy/HNodnnrp6wYBVF7sHN98xXY9tTWmpxagJy7vJPnUoL+Iqga2K8rlpHsEoHtOhWz6besjnu586Of/R2XC21i1seH9HxXUnsWDT99e63oLoPn01NafnlqAntnbSfLRKnwhlQxso6xIY8HvFvcKQHfpt62nU+Ht1PQ/hmOvfL9vu2li0H/lBTeE9e+7wT0zj/do19PbDAKoJD21zfg5M/Hs5/TUAvTObZ0kH6/CF1LlwHYsqEUA6Bn9tvUWDxeZOvG9cPw3R8vrcFd3dcZ7Y9W7/0UYWrFBSLsATx59LOybesgggMrRU1tvsS6pOPywyh2A3lvZSfKXq/CFVDmwVYsA0Af6bZsjHnj12//v1+H4rw/P/PdT098/5/9NDGbftezdYdV71oUV560S4C+BOgSgauIf4Eav+oye2hqLfwzc//yX9dQC9F5l6hCiyga2kVoEgP7QbwtLow4BqJJYf7Tlynv01NZY/CPs3ufu11ML0D+VqUOIllV8WHFQAluAHou7Niaffywc/MXj+m1hEWK/MMCgxT/Ablr9yXDD5bcaRk3pqQUYiOkqhbVRpXfYRlmRxu6I5e4dgP7RbwsLow4BGLTrLv54SNbdruKopvTUAgzUnk6Sj1XpC1pWg6HFWgTPGAL0UdzV8cV/+JR+W5iHeACcsBYYFD219aenFmDgJqr2BdUhsB0PAluAgTjwyzw8d+JJ/bZwFk89/1VDAPpOT239xZ7afYcf9Ec/gME61knyygW2la9EiLIinSqXNe4hgMF+MNRvC28WH2Hd9eStdkUBfeOg0PqLPbX7fvxgOHTyacMAGLzdnSTfUbUvallNhheT7rvcQwCDE08p/vtn/y4M/eyr+m1hzo+OTwprgb5RVVRv8Y9835n6ysxBrwBUxngVv6i67LAdKpej7iEAHxqhSh548t/M/DEDoJccBlp/z7zwjfDEkS/5Ix9AtRzsJPlwFb+wWuywLYc3lRXpwfK/3OBeAqgG/ba0XdxdK6wFekkdUf3pqQWotPGqfmHLajbEB9xLANURd4nEx/oO/uJxHyhpnad+5rAxoDf01NafnlqAWpio6hdWi0qEKCvSFeVy0r0EUF0e2aQt4o6p8e/fYxBA16kcqjc9tQC1sbeT5KNV/eJqE9hGWZHG5HuLewrAh00YpIef+V/C1Cs/NAiga/zRs/5iT+23f/qouhyAeritk+TjVf3iltVsmHGQAluAitNvS5PF3bXCWqBbYk/thy/bGq659CbDqPHPhcmpR/1sAKiP6SqHtVGtdthGWZG+XC7L3VsA9fkgqt+WJrG7FuiGUz211w/d4omUmoo9tZNHHp35QzUAtbKnk+RjVf4Cl9VwqOPldZd7C6Ae4mOBf//s34Whn33Vo57U3o+OTwprgSWL1UEja7eGC86/1DBq6FRP7dMvTswcwApA7eyq+hdYxx22w+XyPfcWQH0/pOq3pa4eePLf6CYEFi321I4MbQ1rL7zWMGpKTy1A7R3rJPlQ1b/I2gW2UVakB8plg3sMoJ5OPQaq35Y6+dbhh5z6DSyKntr601ML0Bh3d5K88jtsl9V0uOPl9YB7DKCe4uODMfg6+IvH9dtSC7GnMD76CrBQI6tv1VNb599Zfv9P4ZuHPq+nFqA5avFLfV132K4ol5PuMYBmiI+I6relyhw0BizU+pUbw+YrtuuprbH4ZIWeWoBG2dtJ8tE6fKG1DGyjrEjHy2Wbew2gOfTbUkXxoLF4cB7AfKw6f83MHyH11Nb7+/7jR76gpxageW7uJLkdtr2UFWlMxL/mXgNoFv22VEmsQvjSd//K7ipgXj+/blx7p57aGntx+lDYd/hBT1QANNN0J8lX1OWLrW1gG2VFOlUua9xzAM0TD2jRb8ugqUIA5kNPbb3pqQVohd2dJN9Rly92Wc2HPV5e97rnAJonPoYYH0Mf+tlX9dsyEE8efUxYC5yVntr601ML0Bq76vTF1n2H7VC5HHXPATSfflv6KT4W+8V/+JRBAKcVnwLZcuU9empr7Mivvhv2Pne/nlqAdtjfSfKROn3BtQ5so6xIY1nwFvceQPPpt6Uf4qOxX/y/b/chHjjtz6FNqz8Zbrj8VsOoqdhNPvHs5zxBAdAut3WSfLxOX3ATAluHjwG0jH5beklvLXA611388ZCsu92THjUV/xhXHH44PPXS1w0DoF1qddjYKbUPbCOHjwG009B7r9ZvS1d99QefdegM8LafNaNXfUZPbY3FTvL9z39ZTy1AO+3pJPlY3b7oZQ0Z/nhw+BhA68RdkLFnVL8t3fDMC98Q1gKv01Nbf3pqAQg1O2zslKbssB0KDh8DaDX9tixFDGv3/mSXQQB6ahtATy0Acw52kny4jl94IwLbyOFjAET6bVmoHx2fDH//7N8ZBKCntub01ALwFrU7bOyUJgW2Dh8D4HX6bZmPF6cPhT0H/1qvIfiZ4WdGzcUnJZ448iXfzwE4pZaHjZ3SmMA2cvgYAG+l35YzEdYCnsqov9hTu+/wg+H4q8cMA4A32t1J8h11/eKXNezNGA8OHwPgDeIhUs+deFK/LW8SaxD2/vg/CmuhpfSe11/sqd334wfDoZNPGwYAp1PrAyqatsN2KDh8DIAzsJOKyAFj0G6evKi32FP7namvhMnnHzMMAM5kfyfJa/2hr1GBbZQV6Xi5bHNvAnAmugrb68mjj4V9Uw8ZBPjeTw3pqQVgnmp72NgpTQxsR8qlcG8CcC5xl9XI2q3hgvMvNYwW+OoPPjtTkQG0i6cr6k9PLQALcKyT5EN1fxGNC2wjh48BsBCC22aLj88+8sxdPuhDy5zqqb1+6Bb1BzWlpxaARbivk+Q76/4iljX0zYlvzCPuUQDmI+66jFcMbocvvjGsvfBaQ2mIuCvrKz/c6fFZaBl/iKu3Uz21T7844fs3AAs13oQX0dQdtivKZaq8lrtPAVio2HM4MrRVcFtz3zr8kENpwPdvaib21H77p4+Gk787YRgALNSeTpKPNeGFNDKwjRw+BkA3Pvhf988/ofewZuIjtH//j5kKBGiR2FP74cu2hmsuvckwaio+ETE59WiYeuWHhgHAYiWdJJ9swgtpcmA7VC5H3asACALa48mjj4X9z3/ZI7TQEnpq6y/+kW3yyKMOhQRgqQ52kny4KS+msYFtlBXpZLlscs8C0A0xuN3w/o8KBiroxelDYeLQ5+yqhRZZv3Jj2HzFdj21NaWnFoAuu62T5ONNeTHLGv5m7QoCWwC6JPbpxU7U+OHyygtucKBNRT7wf/PQ5+3MghZZdf6asHnddj21NaanFoAumy6viSa9oEbvsI2yIp0qlzXuXQB6Qc/tYNiZBe0T6w9uXHunepoai09D7Dv8oJ5aALptdyfJdzTpBS1rwZsWd9k+4N4FoBfih854rTzyhbDx4k+ED63+S3UJPRZ3Zj1x5EuCWmiRkdW3qqOpMU9DANBju5r2gtqww3ZF/DxdXsvdvwD0w/BFaRi++EaP63b5w37cUXvwF497hBZaRE9t/X3r8EOehgCgl/Z0knysaS+q8YFtlBXpeLlscw8D0E+nDikbvmSzsGGR4unhT/30fwsHf/FffdiHFtFTW38/Oj4ZHj/yBX9kA6DXkk6STzbtRbUlsB0ql6PuYQAGJe4Su/J918903Xqkd34f9A8cfyIcOvm0YUCL6KmtPz21APTRwU6SDzfxhbUisI2yIo2nxW1xLwMwaMLbM3/IP/DS43bTQktdd/HHQ7Ludt8Xa0pPLQADcFsnyceb+MLaFNiOlEvhXgagStoe3h751XfDoV/+X+G5E/+nx2ahpYbee3UYveozqmNqTE8tAANwrJPkQ019ca0JbKOsSA+Uywb3NABVFDsb1194QxhaOdzY3sbYSXv0xPfCsZf/MTx34kkf7qHFYs/3livv0VNbY/GPbnufu98f3AAYhPs6Sb6zqS9uWcvezF3l9Yh7GoAqOv7qsZkrPP/YTI/jmvf+eVj1nrW1DnDjh/njr/wkHP/N0XDsle/5UA/MfH/btPqT4YbLbzWMmop/fJt49nN6agEYlOkwm/E1Vqt22EZZkU6Vyxr3NgB1E3fgrnr3urDiXe+fCXFXnLeqMo8Qx/7Z3/7+12Hq5IHw8m9/EY7/5vBs+AzwBnpq6y321BaHHw5PvfR1wwBgkPZ0knysyS9wWQvf1PHyute9DUDdvL4DN3r+sdf/5zHIfdey94RV7/4X5fru2f/Ze9aFd/2z97zp/34hAe+pAPZN//4rPwm//cNvZv7rqenvz6w//80RtQbAOemprb8njz4W9j//Zd/zAaiCnU1/gW3cYbsifs4sr+XubwAA6J3YU/vRtZ+aOViRetJTC0DF7O0k+WjTX2TrAtsoK9LxctnmHgcAgO6LPbUbLxkNH1l3h2HUlJ5aACoq6ST5ZNNf5LKWvrk7g8AWAAC6bviiNHxs/af11NZU7Kn9ztRXwuQbqncAoCL2tyGsjVoZ2JZv7lRWpHuC0BYAALoi9tRuXrc9XLJ8vWHU1DMvfCM8ceRLemoBqKrxtrzQZS1/kwW2AACwBHpq6y/21O47/OAfD7YEgOo51kny8ba82FZ22J6SFelkuWxyzwMAwMLoqa2/2FO778cPhkMnnzYMAKrutjYFtsta/mbvLK/CPQ8AAPMXe2pH1m4NF5x/qWHUkJ5aAGpmurwm2vSCW73DNsqKdKpc1rj3AQDg7GJP7cjQ1rD2wmsNo6b01AJQQ/d1knxnm17wMu/5zC7bR4wBAABOL/bUfviyreGaS28yjJrSUwtATcXdtbva9qJbv8M2sssWAADe7lRP7fVDt4Tzlv2pgdRQ7KmdPPJoOPDL3DAAqKPdnSTf0bYXbYftrJ3BLlsAAHidntp6O9VT+/SLE+oPAKizXW180QLbWRNzN8ByowAAoM301NZf7Kn99k8fDSd/d8IwAKizPZ0kn2rjC1eJMCcr0p3lcq9JAAC9tOr8NeFdy95z1v+d6d+9JGih72L9wY1r79RTW2Oxp3Zy6tEw9coPDQOAJri8rYGtHbZ/FHfYxk4Mu2wBgK6LQe3mddvnvWvxyaOPhf3Pf9mjzPTFyOpb9dTWmJ5aABqotbtrIzts38AuWwCg25ayazF2UBaHHw5PvfR1g6Qn1q/cGDZfsV1PbU3pqQWgwZJOkk+29cULbN8gK9IV5TIV7LIFAJYoBrUbLxntyq7FuHtu4tnPecyZrlnojm+q50fHJ8PjR76gPgWAJtrfSfKRNg9AYPsWWZGOl8s2kwAAFmv4ojSMrN3a9V2LsZ9y73P3C2hYND219ffi9KGw7/CD/oADQJO1endtJLB9i6xIh8rlqEkAAAs19N6rZ3YtXrJ8fU//Hf22LIae2nqL9QffPPR5PbUANF3rd9dGAtvTsMsWAFiIQTxeLrxhvuIfEkav+oye2hr71uGH9NQC0Bat310bCWxPwy5bAGA+Vr7zgvDhy7YO9PFyj0dztvtzy5X36KmtMT21ALSM3bVzBLZnYJctAHAmVQhq30qwwymxp3bT6k+GGy6/1TBqyh9iAGgpu2vnCGzPwC5bAOCtYhC28ZLR8JF1d1T2a/TodLtdd/HHQ7Ludj21NaXqBIAWs7v2DQS2Z2GXLQAQVXFH7dkIfdpHT239OUwQgJa7rZPk48YwS2B7FnbZAkC71S2ofSuPVbfjHtVTW29HfvXdsPe5+9WZANBmxzpJPmQMfySwPQe7bAGgfeJuxev++SfCB1aNNOL16LdtnjrUc3B2J159IUw8+zl/UAEAu2vfRmB7DnbZAkA7xABsw/v/Ilx32b9u7GPl+m2bYfiiNHxs/af11NZUrCwpDj8cnnrp64YBAHbXnpbAdh7ssgWA5lq/cmO48n3X17b2YKH029ZX3Pm9ed32cMny9YZRU3pqAeBt7K49DYHtPNhlCwDNsur8NWH4/X8R1v/Zv2ztIU36besj9tR+dO2nGlPR0UZ6agHgtOyuPQOB7TzZZQsA9SakPT39ttWlp7b+9NQCwFnZXXsGAtt5sssWAOon1h0MLf8fhLTzoN+2WvTU1lusHvnO1FfC5POPGQYAnN7+TpKPGMPpCWwXwC5bAKi2uCPxygtuCOvfd0O4/H3XCLsWSL/t4Omprb9nXvhGeOLIl/zxAwDOLukk+aQxnJ7AdgHssgWA6okh7Yb3/0UYvvijQq4u0W/bf7Gn9sOXbW3N4XdNFHtq439ujr96zDAA4Ozsrj0Hge0C2WULANUQg9pNqz8Zbrj8VsPoEf22/bmPY0/t9UO32BFeU7Gndt+PHwyHTj5tGAAwP3bXnoPAdoHssgWAwdPv2V/6bXt3H4+s3apfuab01ALAothdOw8C20WwyxYABmfLf7/DY+MDoN+2e2JP7cjQ1rD2wmsNo6b01ALAotldOw8C20WY22V7oLyWmwYA9E8Mum6/5j8ZxADpt108PbX1p6cWAJbE7tp5EtguUlakO8vlXpMAgP4ZWX1r+Mi6OwyiAvTbLvze1VNbX7GndvLIo3aYA8DS2F07T8uMYNF2ldeOYJctAPTNb3//G0OoiA+sGpm59Nue3fqVG8PmK7brqa2pUz217nEAWLK9wtr5s8N2CeyyBYD+Ou9Pzgs7bnjMLsWK0W/7dqvOXxM2r9uup7bGYk/tt3/6qF3kANAdl3eSfMoY5kdguwRZka4ol3iz2WULAH0yfFEaPvHBvzWICtJvO/tHhRvX3qmntsZiT+3k1KN6mgGge/Z0knzMGOZPYLtEWZHGWoQHTAIA+kdoW21t7bfVU1tvemoBoGfsrl0ggW0XZEUab7o1JgEA/SO0rb629NvqqXWvAgBntLuT5DuMYWEEtl2QFelYuTxiEgDQX0PvvTrcuuF/taOxwprcb6untv7auhscAPpkOv7K3knyl41iYQS2XWKXLQAMRuwM3XLFX4cPrBoxjAprUi9ovOc2rf5kuOHyW72xNaVvGQD64r5Oku80hoUT2HZJVqTxU2JhEgAwGPGx9Js/+Dd221bcMy98I3z7p4/WdkfjdRd/PCTrbnef1VSTd3wDQMXYXbsEAtsuyop0slw2mQQADIadj/UQQ7PvTH2lVp2hsX5j9KrP6KmtMT21ANBXd3eSfJcxLI7AtovssgWAalj5zgvClivv0S1acSdefSFMHnm00rsd3Uv1p6cWAPruWCfJh4xh8QS2XZYV6US5bDEJABi8WJOw+YrtdkVWXBX7be3Wrj89tQAwMLd1knzcGBZPYNtlWZEOlctRkwCAaojB28ZLRsP1Q7foHa24qvTb6qmtt1i5URx+ODz10tcNAwD6b38nyUeMYWkEtj2QFWns6LjLJACgOuKj7R9d+6nwgVV+f6yyQfbbxp7azeu2h0uWr/dG1NSTRx8L+5//sp5aABicpJPkk8awNALbHsiKdEW5TJXXctMAgGoRytVDP/tthfn1F2s19j53v55aABgsu2u7RGDbI1mR7iyXe00CAKrJY+/10Mt+21N1GR9Zd4dB11QM9iee/ZyeWgCohss7ST5lDEsnsO2RuV22B8prjWkAQDU5WKo+ut1vO3xRGj62/tMC+5rSUwsAlbOnk+RjxtAdAtseyoo03qiPmAQAVNuq89fM1CSsvfBaw6iwbvTbqsSoPz21AFA50/HXrE6Sv2wU3SGw7bGsSOMu2w0mAQDVt37lxrD5iu3hgvMvNYwKW0y/rZ7a+tNTCwCVdV8nyXcaQ/cIbHssK9L4qaAwCQCoB72m9TGffttT7+f1Q7eoP6ipGNDv+/GD4dDJpw0DAKrnWCfJh4yhuwS2fZAV6US5bDEJAKgPOzLr46s/+Oxpd9vG9/CWq/9O/UFNnarAmHz+McMAgOq6rZPk48bQXQLbPsiKdKhcjpoEANRP7DwdveozahIqLu62fer5r4Zjr3w//Nm714b1F1wfPrT6L+2qral4yNwTR76kpxYAqm1/J8lHjKH7BLZ9khXpznK51yQAoJ6uu/jjIVl3uwAQeigG7/sOPxiOv3rMMACg+pJOkk8aQ/cJbPskK9IV5TJVXstNAwDqKfah3rj2znDNpTcZBnSRnloAqJ09nSQfM4beENj2UVak8UZ+xCQAoN5Wnb8mbF63Pay98FrDgCXQUwsAtTRdXsOdJJ8yit4Q2PZZVqQHymWDSQBA/Q1flIaRtVv128Ii6KkFgNq6r5PkO42hd5YZQd/tKK/CGACg/g78Mg/PnXgybLxkNHxk3R0GAvMQe2onpx4NU6/80DAAoH5i0fwuY+gtO2wHICvSiXLZYhIA0Bwr33lB2HLlPWoS4AxiT+3kkUdn/tABANTWzZ0knzCG3hLYDkBWpEPlctQkAKB5ht57dRi96jNqEmDOqZ7ap1+cUH8AAPW2v5PkI8bQewLbAcmKdGe53GsSANBMI6tvDdcP3RLOW/anhkFrxZ7ab//00XDydycMAwDq70OdJD9gDL0nsB2QrEhXlEu8ydeYBgA003l/cl64ce2d4ZpLbzIMWkVPLQA0zu5Oku8whv4Q2A5QVqSj5fI1kwCAZos1CSNDW/Xb0nh6agGgkabjr7SdJH/ZKPpDYDtgWZFOlssmkwCA5hu+KA0fW/9pNQk00rcOP6SnFgCa6e5Oku8yhv4R2A5YVqTD5fI9kwCAdog1CRsvGQ0fWXeHYdAIPzo+GR4/8gU9tQDQTAc7ST5sDP0lsK2ArEjjXynuMgkAaI+V77wgbLnyHjUJ1NaL04fCvsMP6qkFgGZLOkk+aQz9JbCtgLkDyKbKa7lpAEC7xH7b0as+Ey44/1LDoBZe+/0/hW8e+ryeWgBovj2dJB8zhv4T2FZEVqTxPwCPmAQAtNPI6lvD9UO36Lel0vTUAkBrOGhsgAS2FeIAMgBot1iT8OHLtoZrLr3JMKgUPbUA0DoOGhsggW2FOIAMAIhiTcLmddvDJcvXGwYDdeLVF8LEs5/TUwsA7eKgsQET2FaMA8gAgFOGL0rDx9Z/Wk0CfRd7aovDD4enXvq6YQBA+zhobMAEthUzdwDZgfJaYxoAwHl/cl7YtPqT4YbLbzUM+uLJo4+F/c9/WU8tALSTg8YqQGBbQVmRjpbL10wCADgl9ttuufKesPbCaw2Dnjjyq++Gvc/dr6cWANrLQWMVIbCtKAeQAQCns37lxrD5iu3hgvMvNQy6Qk8tADDntk6SjxvD4AlsKyor0qFyOWoSAMDpjKy+NVw/dIt+WxZNTy0A8Ab7O0k+YgzVILCtsKxId5bLvSYBAJxOrEn46NpPhQ+s8rs1C6OnFgB4iw91kvyAMVSDwLbisiKdCg4gAwDOYui9V4fN67aHS5avNwzOKvbU7jv8YDj+6jHDAABOua+T5DuNoTqWGUHljZVXYQwAwJnE7tEv/sOnwnUXfzwk625Xk8DbxJ7afT9+MBw6+bRhAABvFP+Ku8sYqsUO2xrIinS8XLaZBABwLuf9yXlh0+pPhhsuv9UwmOmp/c7UV8Lk848ZBgBwOkknySeNoVoEtjWQFemKcpkqr+WmAQDMx6rz18zUJKy98FrDaKlnXvhGeOLIl/TUAgBnsreT5KPGUD0C25rIinSsXB4xCQBgIdav3Bg2X7E9XHD+pYbREnpqAYB5mC6voU6Sv2wU1SOwrZGsSCfLZZNJAAALEWsSNl4yGq4fukW/bYPpqQUAFuDuTpLrrq0ogW2NZEU6VC4HgmoEAGARVr7zgvDRtZ8KH1g1YhgNoqcWAFig/Z0k9wthhQlsayYr0p3lcq9JAACLNfTeq8PoVZ9Rk9AAsaf22z99NJz83QnDAADm6/JOkk8ZQ3UJbGsoK9K4y3aDSQAAS3HdxR8Pybrb1STUUOypnZx6NEy98kPDAAAW4r5Oku80hmoT2NZQVqTD5fI9kwAAlir229649s5wzaU3GUYNxJ7aySOPhgO/zA0DAFiog50kHzaG6hPY1lRWpLEY+i6TAAC6YdX5a8LmddvD2guvNYwKOtVT+/SLE+G1P7xmIADAYiSdJJ80huoT2NZUVqQrwuwBZGtMAwDoluGL0jCydqt+2wrRUwsAdMHuTpLvMIZ6ENjWWFakI+VSmAQA0E2xJmHjJaPhI+vuMIwB0lMLAHTJsfIa7iT5y0ZRDwLbmlONAAD0ysp3XhA+uvZT4QOrRgyjj2L9wTcPfV5PLQDQLaoQakZgW3OqEQCAXht679Vh9KrPqEnog28dfkhPLQDQTaoQakhg2wCqEQCAfrju4o+HZN3t4bxlf2oYXfaj45Ph8SNf0FMLAHSTKoSaEtg2RFakE+WyxSQAgF6K/bY3rr0zXHPpTYbRBS9OHwr7Dj+opxYA6IWbO0k+YQz1I7BtiLlqhKnyWm4aAECvxZqEkaGtYe2F1xrGIuipBQB6bG8nyUeNoZ4Etg2SFWn8D+LXTAIA6Jfhi9LwsfWfVpOwAHpqAYAemy6vIVUI9SWwbRjVCABAv8WahI2XjIaPrLvDMM5CTy0A0CeqEGpOYNswqhEAgEFZ+c4LwpYr71GT8BYnXn0hTDz7OT21AEA/qEJoAIFtA6lGAAAGaf3KjeHmD/5N62sSYk9tcfjh8NRLX3dTAAD9oAqhIQS2DaUaAQAYpFiTsGn1J8MNl9/aytf/5NHHwv7nv6ynFgDoJ1UIDSGwbai5aoQD5bXGNACAQYk1CR++bGu45tKbWvF6j/zqu2Hvc/frqQUA+m1PJ8nHjKEZBLYNlhXpSLkUJgEADFoTg9vYTXv8lcPh+K8Ph6np74ef/+aIHbUAwCAcK69hVQjNIbBtuKxId5XLXSYBAFRBrErY8P6/CNdd9q/DBedfWpuvO/bRvjT9XJg6eSAc//WRcOyV7wtnAYCqSDpJPmkMzSGwbTjVCABAVa06f00Yfv9fhPV/9i8rF96+OH0oTJ34Xjj+m6PldTgcf/WYNwwAqKLdnSTfYQzNIrBtAdUIAEDVxcqEKy/4n8PQig1h1XvX9TXAjeHsS//0k/DzXx8Jx3/z/4SpV37oDQEA6kAVQkMJbFtCNQIAUCexOuHP3r02DC3/87D8XX8WVp53cVhx3qpFB7mnKg1OvvZSmP7tz2dqDV7+3XE7ZwGAOvtQJ8kPGEPzCGxbJCvS+B/iDSYBANTd0Huvntf/nt2yAEBD3ddJ8p3G0EwC2xbJinS4XL5nEgAAAAC1dbCT5MPG0FzvMIL2mNsmf7dJAAAAANTSdHmNGUOz2WHbQlmRTpbLJpMAAAAAqJW7O0m+yxiazQ7bdhoLs3+RAQAAAKAe9gtr20Fg20Llf7ingu3zAAAAAHURN96NGkM7qERosaxIJ8pli0kAAAAAVNrNnSSfMIZ2sMO23cbK65gxAAAAAFTWbmFtuwhsW6z8D/vLQTUCAAAAQFXFjXY7jaFdBLYt10nyyXK5zyQAAAAAKmd0bsMdLaLDlhlZkR4olw0mAQAAAFAJd3eSfJcxtI8dtpwSTxqcNgYAAACAgdsvrG0vgS0zym8CU+WywyQAAAAABipuqBs1hvZSicCbZEU6Xi7bTAIAAABgIG7uJPmEMbSXHba8Vdxle8wYAAAAAPput7AWO2x5m6xIh8vleyYBAAAA0DcHO0k+bAzYYcvblN8cDpTL3SYBAAAA0Bext3bMGIjssOWMsiKNW/C3mAQAAABAT93WSfJxYyCyw5azGQv6bAEAAAB6aY+wljcS2HJG5TeLl4Pt+AAAAAC9cjDMHgAPrxPYcladJJ8sl/tMAgAAAKCrZnpr5zbMwet02DIvWZFOlssmkwAAAADoCr21nJYdtszXaJj9yw8AAAAAS6O3ljMS2DIvc9vzR00CAAAAYEn01nJWAlvmTZ8tAAAAwJLoreWcdNiyYFmRTpTLFpMAAAAAWBC9tZyTHbYsxlh5HTMGAAAAgHnTW8u8CGxZMH22AAAAAAuit5Z5E9iyKJ0kP1Aud5sEAAAAwFnprWVBdNiyJFmRjpfLNpMAAAAAOK2bO0k+YQzMlx22LFXczn/QGAAAAADeZrewloWyw5Yly4p0uFwmy2u5aQAAAADM2N9J8hFjYKHssGXJ5vpsx0wCAAAAYEbsrXVgO4tihy1dkxXprnK5yyQAAACAlvvQ3AY3WDCBLV2VFelkuWwyCQAAAKCl7u4k+S5jYLFUItBtcbv/tDEAAAAALbRHWMtSCWzpqvKb0svlMmISAAAAQMscLK8dxsBSqUSgJ7IiHSuXR0wCAAAAaIH4tPFwJ8mnjIKlEtjSM1mRjpfLNpMAAAAAGi7pJPmkMdANAlt6KivSeCLiBpMAAAAAGsohY3SVDlt6bSQ4hAwAAABoJoeM0XUCW3rKIWQAAABAQzlkjJ5QiUBfOIQMAAAAaBCHjNEzAlv6xiFkAAAAQEM4ZIyeEdjSV1mRxm9mm0wCAAAAqKnbOkk+bgz0ig5b+m20vI4ZAwAAAFBDe4S19JodtvRdVqTD5TJZXstNAwAAAKiJg50kHzYGes0OW/qu/OZ2oFzGTAIAAACoifi08Igx0A922DIwWZHuKJcHTAIAAACosOnyGpnbgAY9J7BloLIiHS+XbSYBAAAAVNTNnSSfMAb6RWDLwGVFGv9CtcEkAAAAgIq5u5Pku4yBftJhSxWMhNkuGAAAAICq2COsZRDssKUSsiKNpyxOltdy0wAAAAAG7GAnyYeNgUGww5ZKmCvuHjMJAAAAYMDiU8AjxsCg2GFLpWRFuqNcHjAJAAAAYACmy2tkbmMZDITAlsrJinS8XLaZBAAAANBnSSfJJ42BQRLYUklZkcZvjptMAgAAAOiT2zpJPm4MDJoOW6pqtLwOGgMAAADQB7uFtVSFHbZUVlakQ+USO2OWmwYAAADQI3s6ST5mDFSFHbZUVvnNcirMnso4bRoAAABAD8Sne3cYA1Vihy2VlxXpWLk8YhIAAABAFx0rr+FOkr9sFFSJwJZaENoCAAAAXRSf5h3pJPkBo6BqBLbURlak4+WyzSQAAACAJfqQsJaqEthSK0JbAAAAYIlu6yT5uDFQVQ4do25iEfhBYwAAAAAW4W5hLVVnhy21kxXpinKZLK8NpgEAAADM055Oko8ZA1UnsKWWsiIdKpfYNbPcNAAAAIBzENZSGyoRqKXym+xUuYyE2VMdAQAAAM4kVivuMAbqwg5bai0r0pFyKUwCAAAAOI0Y1o50kvxlo6AuBLbUXlakY+XyiEkAAAAAbxCfyh2ee0oXakNgSyNkRRofbXjAJAAAAIAwG9bGnbUHjIK6EdjSGFmRjpfLNpMAAACA1vuQsJa6EtjSKEJbAAAAaL3bOkk+bgzUlcCWxsmKdLJcNpkEAAAAtI6wltp7hxHQQKNh9hRIAAAAoD3uE9bSBHbY0khZka4ol8ny2mAaAAAA0Hh7Okk+Zgw0gcCWxpoLbafKa7lpAAAAQGMJa2kUgS2NlhXpcJjdaSu0BQAAgObZ20nyUWOgSXTY0mjlN+0D5TJSXtOmAQAAAI0Sz68ZMwaaxg5bWsFOWwAAAGiUGNaOdJL8ZaOgaQS2tEZWpGPl8ohJAAAAQK0Ja2k0gS2tIrQFAACAWouVh8OdJJ8yCppKYEvrCG0BAACglmJYOzJ3Xg00lsCWVhLaAgAAQK0Ia2kNgS2tlRXpznK51yQAAACg0oS1tIrAllbLinS8XLaZBAAAAFSSsJbWEdjSekJbAAAAqKybO0k+YQy0icAWgtAWAAAAKui2TpKPGwNtI7CFOUJbAAAAqAxhLa0lsIU3ENoCAADAwAlraTWBLbyF0BYAAAAGRlhL6wls4TSyIo2nT24wCQAAAOgbYS2U3mEEcFoj5XXQGAAAAKAvhLUwxw5bOIOsSFeUy2Sw0xYAAAB6SVgLbyCwhbMQ2gIAAEBPCWvhLQS2cA5CWwAAAOgJYS2chsAW5kFoCwAAAF0lrIUzENjCPAltAQAAoCuEtXAWAltYAKEtAAAALImwFs5BYAsLJLQFAACARRHWwjwIbGERhLYAAACwIMJamCeBLSyS0BYAAADmRVgLCyCwhSWYC23jD50tpgEAAABvI6yFBRLYQhdkRRp/+GwzCQAAAHidsBYWQWALXSK0BQAAgNcJa2GRBLbQRUJbAAAAENbCUghsocuEtgAAALSYsBaWSGALPSC0BQAAoGWmy2usk+QTRgFLI7CFHhHaAgAA0BIxrB3pJPkBo4ClE9hCD2VFuqNcHjAJAAAAGkpYC10msIUey4p0rFweMQkAAAAaRlgLPSCwhT4Q2gIAANAwwlroEYEt9InQFgAAgIY4WF6jnSSfMgroPoEt9FFWpKPlMl5ey00DAACAGophbdxZ+7JRQG8IbKHPsiIdLpfJILQFAACgXoS10AcCWxgAoS0AAAA1s7e8xoS10HsCWxiQudB2orzWmAYAAAAVtqeT5GPGAP0hsIUByop0RZjdabvBNAAAAKggYS30mcAWBkxoCwAAQEXd10nyncYA/SWwhQqYC23Hy2uLaQAAAFABt3WSfNwYoP8EtlAhWZHGH4bbTAIAAIABEtbCAAlsoWKyIt1VLneZBAAAAH02XV4jnSQ/YBQwOAJbqKCsSMfK5RGTAAAAoE+EtVARAluoKKEtAAAAfXKwvEY7ST5lFDB4AluosKxIh8tlsryWmwYAAAA9EMPauLP2ZaOAahDYQsUJbQEAAOiRPeW1Q1gL1SKwhRrIinRFmA1tN5gGAAAAXbCnk+RjxgDVI7CFmhDaAgAA0CV3d5J8lzFANQlsoWayIh0vl20mAQAAwCLc1knycWOA6hLYQg1lRRr/EnqXSQAAADBP02H2cLEDRgHVJrCFmsqKdKxcHjEJAAAAzuFYeY0Ka6EeBLZQY1mRjpTLRHktNw0AAABO42CY3Vn7slFAPQhsoeayIh0Os6HtGtMAAADgDfaU1w5hLdSLwBYaICvSFeUyWV4bTAMAAIDS7k6S7zAGqB+BLTTEXGgbDyPbZhoAAACtdlsnyceNAepJYAsNkxVpDG3vMgkAAIDWmQ6zh4tNGgXUl8AWGigr0rFyecQkAAAAWuNYmA1rDxgF1JvAFhoqK9KRMHsY2XLTAAAAaLSD5TXicDFoBoEtNFhWpMPlMh4cRgYAANBUezpJPmYM0BwCW2i4ucPI4k7bTaYBAADQKHd3knyXMUCzCGyhJbIiHS+XbSYBAABQe/FwsbFOkk8YBTSPwBZaxGFkAAAAtedwMWg4gS20jMPIAAAAasvhYtACAltooaxIh8JsaOswMgAAgHpwuBi0hMAWWmruMLLx8tpiGgAAAJV2WyfJx40B2kFgCy2XFenOcrnXJAAAAConHi4W+2onjQLaQ2ALxNB2NMzuttVrCwAAUA2xrzaGtVNGAe0isAVmZEU6HGZ7bdeYBgAAwEDtKa8dDheDdhLYAq+b67WNoe0m0wAAABiIuztJvssYoL0EtsDbZEUafzm4yyQAAAD6Rl8tMENgC5yWXlsAAIC+0VcLvE5gC5zRXK/teHltMA0AAICe0FcLvInAFjiruV7b8fLaYhoAAABdpa8WeBuBLTAvWZHuLJd7TQIAAGDJYl/tSCfJDxgF8FYCW2DesiIdKZeJoNcWAABgsfaH2b5aFQjAaQlsgQXJinQozIa2em0BAAAWZncnyXcYA3A2AltgUbIijT1Ld5kEAADAOcUKhLFOkk8YBXAuAltg0bIiHSuXGNyqSAAAADi9g2E2rNVXC8yLwBZYkqxIh8tlPKhIAAAAeKs95bVDXy2wEAJbYMmyIl0RZnfabjMNAACAmQqEGNSOGwWwUAJboGtUJAAAAKhAAJZGYAt0lYoEAACgxVQgAEsmsAW6TkUCAADQMioQgK4R2AI9oyIBAABoARUIQFcJbIGeUpEAAAA0mAoEoOsEtkDPqUgAAAAaRgUC0DMCW6BvVCQAAAANoAIB6CmBLdBXWZEOlctEUJEAAADUz+5Oku8wBqCXBLbAQGRFGnfa3mUSAABADcQKhLirdsIogF4T2AIDkxXpSJjdbasiAQAAqKr95TXqYDGgXwS2wEDNHUg2Xl5bTAMAAKiY+zpJvtMYgH4S2AKVkBVp7IGKvwjZbQsAAAzasTC7q9bBYkDfCWyBysiKdDjM7rZ1IBkAADAou8trpwoEYFAEtkDlOJAMAAAYAAeLAZUgsAUqae5AsvHyWmMaAABAjzlYDKgMgS1QWQ4kAwAAeizuqo31B7uMAqgKgS1QeVmRjobZ4NaBZAAAQLccDLMVCA4WAypFYAvUQlakQ2E2tN1kGgAAwBLd10nyncYAVJHAFqiVrEh3lEv8xcpuWwAAYKGOhdmuWrtqgcoS2AK1kxXpcJjdbbvBNAAAgHnaHWb7ah0sBlSawBaoraxId5bLvSYBAACcRdxVG7tqJ40CqAOBLVBrdtsCAABnsae8dthVC9SJwBZoBLttAQCAN5gOs7tqJ4wCqBuBLdAYdtsCAAClvWE2rLWrFqglgS3QOHbbAgBAK9lVCzSCwBZoJLttAQCgVeyqBRpDYAs0mt22AADQaHbVAo0jsAUaz25bAABopN3ltdOuWqBpBLZAa9htCwAAjXAszO6qnTQKoIkEtkCrzO223VVem0wDAABqx65aoPEEtkArZUW6I/6iV17LTQMAACrvYHntsKsWaAOBLdBaWZEOhdluW7ttAQCguu7rJPlOYwDaQmALtF5WpKNhNri12xYAAKpjf5jtqp0yCqBNBLYAYSa0XRFmu223mQYAAAzUdJjtqd1lFEAbCWwB3iAr0pEwu9t2jWkAAEDf7Q2zu2odKga0lsAW4DSyIt1ZLveaBAAA9MWxMBvUThoF0HYCW4AzcCgZAAD0xX3ltcuuWoBZAluAc8iKdCzM9ts6lAwAALonHiq2o5PkB4wC4I8EtgDzMHco2c7yuss0AABgSeKhYjGoHTcKgLcT2AIswNyhZHG37QbTAACABdsTZsNa9QcAZyCwBViErEh3hNkdt2oSAADg3A6G2aB20igAzk5gC7BIczUJcbftNtMAAIDTivUHOztJvssoAOZHYAuwRGoSAADgtNQfACyCwBagS9QkAADADPUHAEsgsAXoIjUJAAC0mPoDgC4Q2AL0wFxNws7y2mQaAAC0wO4wG9aqPwBYIoEtQA9lRToWZnfcqkkAAKCJ9ofZ+oMDRgHQHQJbgB6bq0mI/bb3mgYAAA1xLMwGtRNGAdBdAluAPsmKdCjM7rbdYhoAANTU9NzvtLvUHwD0hsAWoM/m+m3jL7kbTAMAgBrZE2Z7aqeMAqB3BLYAA6LfFgCAmog9tTGonTQKgN4T2AIMkH5bAAAqLPbUxqB23CgA+kdgC1ABc/22O8trm2kAADBgMz21nSTfaRQA/SewBaiQuX7b+IvxJtMAAGAAYk/tDgeKAQyOwBaggrIiHQ2z/bZrTAMAgD6IPbVjDhQDGDyBLUCFZUUa+213BgeTAQDQGw4UA6gYgS1Axb3hYLJ4CW4BAOgGB4oBVJTAFqAmHEwGAEAXxAPFYlC7yygAqklgC1Azc8Ft/AV7i2kAADBP03O/Q+5yoBhAtQlsAWoqK9KRMLvjdpNpAABwFrvD7K5aQS1ADQhsAWpOcAsAwBnsCbNB7ZRRANSHwBagIbIiHQuzwe0a0wAAaLW95bVDUAtQTwJbgIYR3AIAtNb+MLujdtIoAOpLYAvQUIJbAIDWENQCNIjAFqDBsiJdUS475q7lJgIA0CiCWoAGEtgCtIDgFgCgUQS1AA0msAVoEcEtAECtHQuzQe24UQA0l8AWoIUEtwAAtSKoBWgRgS1AiwluAQAqTVAL0EICWwAEtwAA1RI7ascFtQDtJLAF4HWCWwCAgXKYGAACWwDebi64HY0fGMprjYkAAPSUoBaA1wlsATirrEjHguAWAKAXBLUAvI3AFoB5EdwCAHTNnjDbUTtpFAC8lcAWgAXJijRWJcSO202mAQCwIDGojTtqp4wCgDMR2AKwKFmRjoTZHbeCWwCAM5sur/Hy2iWoBWA+BLYALElWpMNhdsftNtMAAHhdDGp3hdmg9mXjAGC+BLYAdEVWpENhdsdtrExYbiIAQEsdm/udaEJQC8BiCGwB6KqsSFeE2R238RLcAgBtsT/MHiQ2bhQALIXAFoCeyYp0LMzuMFljGgBAQ+0Ns7UHk0YBQDcIbAHouaxIY01C3HHrgDIAoAliP+1Eee10kBgA3SawBaBvHFAGANRc7KcdDw4SA6CHBLYA9N3cAWVjQc8t/P/s3d1R41gQgNHOADIYMoAMMKUAZjNYh7AR6IEICMGbgScASiYDyMBkwGawukhCwjPLGsa2/s6puqX3fvyqqwXAODxFFWlXRgHAsQm2APSqvnObwu2laQAAA/N3VD8S2xgFAKci2AIwCHmRLaIKt99NAwDoUbpPexdVqN0aBwCnJtgCMCj1uYQUbpfhXAIAcDqvZw/Kt3afFoA+CbYADJZzCQDACTh7AMCgCLYADF59LmFZvj9NAwA4gOfyrcLZAwAGSLAFYDTyIjuPKtymrdtvJgIAfNJDVJF2ZRQADJVgC8Ao5UX2R1Tx1k/KAICPpJ+Ircp3Z5sWgDEQbAEYtfonZcv62boFABq2aQEYJcEWgMmwdQsAs5e2addRbdM+GgcAYyTYAjA5tm4BYHZs0wIwGYItAJNm6xYAJsttWgAmSbAFYBbyIjuPKtz+FbZuAWDMfkS1Tbs2CgCmSLAFYHbyIruKKtym7dszEwGAwXsu31351rZpAZg6wRaAWcuLbBlVuHUyAQCGxQ/EAJglwRYA4u1HZSncOpkAAP1KJw/WfiAGwFwJtgCww8kEADg5Jw8AoCbYAsAH8iJL0XYZTiYAwKGlSJtOHqycPACAlmALAHvIi+w8qo3bZfmuTQQAvqS5S5s2adfGAQA/E2wB4JM6926X5bs0EQD4X+7SAsCeBFsA+A11vG3u3fpZGQC0XiNtVKH2xTgAYD+CLQAcSP2zsmWItwDM11P5VuHnYQDwZYItAByBeAvAjIi0AHBAgi0AHJl4C8AEibQAcCSCLQCckHgLwIiJtABwAoItAPREvAVgBJofh21EWgA4DcEWAAYgL7KLqMLtsnyXJgJAj5pImzZpX4wDAE5LsAWAgenE20X5vpsIAEf2T7SBdm0cANAvwRYABiwvsvNo4236npkKAAfwHG2k3RgHAAyHYAsAI5IX2SKqcOvuLQCf9RBtpN0aBwAMk2ALACPVOZ2Q3rWJALCjOXWwCfdoAWA0BFsAmID6dMIi2vMJtm8B5ukpqkC7ur25fzQOABgfwRYAJigvsqtoA67tW4DpSlu0m6g3aZ06AIDxE2wBYOJs3wJMTtqibW7R2qIFgIkRbAFgZjq3bxf1OzMVgEF7jvdbtG7RAsCECbYAMHN5kS2ijbfOJwD0z5kDAJgxwRYAeCcvsu727aWJAJzEj6gi7caZAwCYN8EWAPhPnfu3zRNwAQ7jIdpAuzEOAKAh2AIAexNwAb5MoAUA9iLYAgBfthNwr8INXICkuUGb3qNACwB8hmALABzUzk/MUsQ9MxVg4p6jjrPhBi0A8JsEWwDgqPIiS9F2EVW8Td9vpgKM3FO836DdGgkAcCiCLQBwUp0zCk3AdUYBGLLmvEGzPbsxEgDgmARbAKB3O1u46fmZGdCX9HOw1zgbtmcBgB4ItgDAIHVu4TYR1ykF4NCaOPv63J4FAIZAsAUARqE+pbC7iSviAvsSZwGAURBsAYDR6kTc7nNOAeYt3Zx9DHEWABgpwRYAmJz6Ju7uOzMZmJzn+DnObo0FABgzwRYAmIWdkwoX9bs2GRiF3a3Z7e3N/cZYAIApEmwBgFnLi+wiqni7CCEX+tYNs9tot2ZfjAYAmAvBFgDgFzoh92rn60dn8Pueypci7CaqMGtjFgCgJtgCAHxSXmSL8tOcWLiINui6kwutdF92G9WW7FucdWMWAOBjgi0AwAHtxNxu1LWZyxQ91N9NVFH2Nc7e3tw/Gg0AwNcItgAAJ9I5s/CrJ+gyRE2QbbZk377uygIAHIdgCwAwEHmR7W7mJov6exGiLofV3JHd1q8JsuGeLABAf/4VYABu+JeVloXc5gAAAABJRU5ErkJggg==;" parent="1" vertex="1">
          <mxGeometry x="655" y="852" width="60" height="60" as="geometry" />
        </mxCell>
        <mxCell id="wj6WeK8VYMMcLy92pw_4-19" value="API de gerenciamento de usuÃ¡rios, e atributos financeiros" style="whiteSpace=wrap;html=1;aspect=fixed;strokeColor=#666666;fontColor=#FFFFFF;fontStyle=1;fontSize=12;fontFamily=Tahoma;fillColor=#692378;container=0;direction=north;" parent="1" vertex="1">
          <mxGeometry x="122.7" y="580.02" width="97.86" height="97.86" as="geometry" />
        </mxCell>
        <mxCell id="wj6WeK8VYMMcLy92pw_4-20" value="" style="shape=image;verticalLabelPosition=bottom;labelBackgroundColor=default;verticalAlign=top;aspect=fixed;imageAspect=0;image=data:image/png,iVBORw0KGgoAAAANSUhEUgAAAZAAAAGRCAYAAABL4+VpAAAACXBIWXMAAAsSAAALEgHS3X78AAAgAElEQVR4nO3df4yV1Z3H8UNbU9hEy0Ca1ULT4aZkoUlhsDuCprMy6DYLTSozbRrTVfmxu6bXH4tuN6ncJgX6x5VmY5XVetM2EVDXbTcK4/6B7a4yY6ZRwNmdwf4BCeY6poOliTCjNlUbNtl8nzkXLsPM3Ofe+zz3Oed73q+EYF1Xn3lmOJ/7Pd/zwwAAAAAAAAAAAAAAAAAAAAAAAAAAAAAAAAAAAAAAAAAAAAAAAAAAAAAAAAAAAAAAAAAAAAAAAAAAAAAAAAAAAAAAAAAAAAAAAAAAAAAAAAAAAAAAAAAAAAAAAAAAAAAAAAAAAAAAAAAAAAAAMjCHl45Q5HOFDmPM/Kovd+r/rseEMWak6p+fKJWLI8G8TATPECDQIJ8rzK8KA/n9U/Z302RINKo6XOT3d+3v0d8vlYsT/OBBAwIE3sjnCu02EOTXShsMaz39Dg7YQDluw0WCZdSB5wJiI0DgJDvdVAmKDo+Dol4DNlCO21BhWgzOIkDghHyusNaGxI0ZTTu5qjId9rKES6lcHAj9hcAdBAgyYSuMjTYwQqkukjJgA6WPCgVZIkDQErbRLYFxiw0MKoxkSIXSVxUoNOjRMgQIUmOb3hIam6pWRSFdUpHst2FCUx6pIkCQKELDKYQJUkWAoGl2emozoeG0SpjsY5oLSSFA0LB8rlCpNDbyFr0iPZP9pXKxL/QXgeYQIKiLnaKqVBvtvD2vjVZVJUxxoW4ECGKx+zS2UW2oJdXIHvaZoB4ECGZUtfR2B9VGMKQS2cWSYMRBgOAyNjjusxUH+zXCJOGxxxjzCEGCmRAguMD2N3bYqoPggLFBss9Ob9EnwSUIEFQHx2beBmYhQbKLIEEFARIwggMNIkgQIUACRI8DCaBHAgIkNPlcYSfBgQRN2P7ITl5qeAiQQNhd4w+zHBcpkems+9ndHhYCRDl778bD3LmBFhmwQcI9JQEgQJSyfY4dttcBtNojttFOf0QxAkQhO121lz4HMsa0lnIEiCJ2We5epqvgmD4bJCz7Vebjob8ALfK5gkxV/bsxZlno7wLOkZ/JzZ1tXR8NjQ8e4dujBxWI56g64Blpsm+hGtGBCsRjVB3wUDvViB5UIB6yK6z2cjcHPNdnqxFWanmKAPGMvdjpICusoISERw8XWfnpY6G/AJ/kcwXZENhPeEAR+Vnutz/b8AwViAdso1yqjo7Q3wVUG7HVCA12TxAgjmPKCoFhSssjrMJymD05V5rlc0N/FwjGXLtKa87Q+CAh4jgqEAexygqIsErLcQSIY+h3AJegL+IwAsQh9uh1VlkBl5IKpJsj4t3DMl5H5HMFuZd8mPAALiN/JobtnxE4hCa6A2yznHXwwOw20lx3CwGSsXyusJdLn4DY1na2dbUPjQ8+zyvLHj2QjLDSCmjKPnvHCCu0MkSAZMCGRz8rrYCmjNjmOiGSEQKkxQgPIFGESIYIkBYiPIBUECIZIUBahPAAUkWIZIAAaQHCA2gJQqTFCJCUER5ASxEiLUSApIjwADJBiLQIAZISwgPIFCHSAgRICggPwAmESMo4TDEdhAeQvcrp1kgJAZIwe7YV4QG4ocP+mUQKOEwxQfYHlSOnAbd0cABjOgiQhNi7Cnaq+GIAfSRE3hoaH+RSqgTRRE9APlfYaK+hBeA2uR63j+9RMgiQJnENLeAVrsdNEAHSBLtcV66hbff2iwDCM2qMWcXy3uaxCqs5/YQH4J12lvcmgwBpEMt1Aa+xvDcBrMJqACuuABVYmdUkeiB1sk3zYa8eGsBsVtFUbwwBUgea5oBKNNUbRA+kPnsJD0CddvtnG3WiBxJTPle4zxhznxcPC6Beyzrbut4dGh88wpuLjymsGOh7AMGgH1IHprBqsH0PylsgDHvtn3nE8AleUk072O+hx8JF882CRW0NfT2njr0Z+usLQYf9M39/6C8iDqawZpHPFdayY9Uvi5dfYxYsmh/9PhkW8828K+dG/ztJlTAZO3HGfPD+h+bU0Tej38dO/C70b4EWcl7WQOgvoRYCZAYs2XWfhMLS69qj3xctuzrxkGiUhMjpk2ei3yVgqFy8xNLeGJjCmtkOwsMtlcBYet2S6Ne8q+Y6+5zya3XPqgt/T0Lk1LHRqFIhULzQzlRWbVQg02Dqyh0rbl5uVt68PAoMmY7S4vUXT0S/JEzOnuZDrsOYypoFATIFU1fZq4TGipuWO1tlJEmmuo4eHDZHDg6bD977UM8XpgNTWbNgCuty9xEerScN79W915o1PatUVRpxVKa8vl7YEFUlEiTyO5zQbscEDk+dBhVIFTYMtp5MTXVvuj6qOnDRudMTUZD073+FqsQNbDCcBgFSJZ8rSN9jrTMPpJhUGhvuXRdctdEImd469OhheiXZGiiVi90hv4DpECCWveODHecpkn6GBEf3phsIjgYQJJnbUioX9wX+Di5BgFxsnMvaSka1lEhwyBx/CE3xtBEkmZEXvoSG+kWcxmuM6WzrepCpq3RIcNz5+N+a1b2rzBWfZM1GEqThLlXcvKvmmdHjvzXnPzrv/xflB/n0M3dofPBXob+IiuArkHyu0G6rDyRoclXR+qhJjvRIg/3QY4dN//5XecutI1WILO8NXvAVSGdb10GW7SZHpqhu+c5XzO27e83CBg8tRHxS1X2ha2m0im30+Jh5750/8PbS1z40PvgL7V9kHEFXIOw4T5YMYrc/2EufI0NSiUhFwtLf1AW/Q92EXoF0tnVxRW0CJDC2/uib0bJc+hzZWtLx2agioRpJnVQh+5V/jTUFGyB22S5X1DZJqo77nvw7Z07ChTFXffpK8+VbO42ZM4eDG9PT3tnW9dbQ+GDQmwtDvpFwhwPP4DVZlnvnj7/FlJWjNtzTbbY9tZXvT3qCH0OCrEBs9bHZgUfxkpxbJQPTSo4fcZ4sZOi69bpoSusc+0aSNj/0KiTUCiT4Tw6NkimrB/ruZsrKI1KBSOCvqbqfBIkJeiwJrgKh+micNMlv3fU1GuWekvBfuLiNk36TFXQVEmIFQvVRJ/kEK/s6ZE4dfpNbEumLJC7YMSWoCoTqo37R9MeTW6OlodBB+iLy/fyfQ7/hGJRkBFuFhFaBbHPgGbwRNcuf3Eq/QyH5nm6nl5WkIMeWYHais+u8PjKwSHgw1aGb7Fjfc8cT0bW6aFpwu9NDqkDofcREeISjMkVJJZKI4MaYICoQTtyNj/AIE5VIYoI6qTeUCoTqIwbCI1xUIokJaqxRX4Fw22A8hAcMlUgSgrq1MIQKZDPhMbvKaivCA/IzcNuDPfwsNG5+SFsFQggQlu7OQgaKf+BARFShGm1aMGOO6gCxS3e572MWzHtjOvIzISctoyHtduxRT3sFssmBZ3CWHE9CeGAmcp+9/IygIUGMPWqPMrHN85878ChO6t50vfnrO/8q9NeAGuQDhhwDP3byDK+qPh2dbV17hsYHVd8trLkC2ejAMzhJPlnKZVBAHLft7o1+ZlA39WOQ5gCheT4NWXHF3Dbqxc2TDVE/BqkMELvzvMOBR3EOK67QiMpGQ9Slw45FammtQDiyfRoybUXTHI2Snx2mPuumeizSGiCsvppC5rClcQ40Q36GVnAXfj1Uj0XqAiSfK3Sw9+NSlRsFgSTc/mAv06DxtdsxSSWNFQjVxxTyB37BIk5zQTIkPFiIURe1Y5LGAGH5bhWZumLKAUljSrQuasckVQFiVzwwfWUxdYU0bbhnXbQsHDW1a12Npa0Cofqo0r3pBqaukBoO4qyLyrFJW4DQ/7Dkk+GGe7qdeBboJUt7Fy9jaXgMKscmNRdK2bOvxh14FCdse2orx0/MQC5L+uD9D82pYxdvHj119NIbjyWAFyxuu/jXi+ZHAyWfti+S9/j09oNcPhVfm7aLpj7hwDMkhekrS4KD8JgkBwGeOvZmFBByIGDcwe7UDH9fAkSCZOlqecftwb7n/v2vmueKhxx4Eq/IGLVP0xekKUBudOAZnBB641xC4ujBYfP6iyfM2dPJfuCTK1+jQDp2sWKRVW4rb15uVty0XH2FIoH81AMHLvn6EduNBIi7grjApZY1PauCbJzLwH7k4LAZ2P9K4qFRiwSV/DI2TGR5q8bKRKqOQ48djt41GqJujFLRA7E7PYcdeJTM/eDwd4IKEPlEfOjRw1F4uCRaxHDvOrO6Z5VTz9UIqo5ErSqViyNavhgtFQjVR2DVh6vBUXHWDrryjL4GiVQaUnFI5YHEyFhFgDiG/ods7Lp3nQNPkS7fBrXqIPHpYibpIT1bPMR0VfJkrHpEyxdDBaJECNWH9Bme2n7Ay0FNgmTP7U9EPRKXDyOUaarnii+wNDc9qsYq73sg9oiA4CdnH+i7S+1dHxIYEhyVRrXvKocRulSNuD4lqMySUrk4quFL0lCBBF99yECkNTzkk/DP7n6m5Sur0iSBKNWIrNZy4YKmQ4/1m/79rzBd1TprtSzn1RAgKx14hkyt6fV/pc90ZB5e+gdaSR9n7MSZzO4bl4pONgNqCmdPqBmzqEA8J8tFNSwVnUoGthBW/0jPYc8dT0T3jbcqRKSqkz4Hy3Izo2bM0nCYotrbvuLQeNfH0w8cCGrpqAzouzf+OPXGtUxRybvdvfFxwiNbasYsrwMknysE3/+QI9s1kQEuxEZutErrjieiZnYapM/x/ZseoknuCC1jl+8VSNDVhzTONS3dDTU8KqRC+OndzyTazJY+x451D0UrrGiSO0XF2OV7gHzOgWfIjKYrRWXKik/Hk9NZUok0O9hH/57bn4gCiSa5k1SMXVQgHpPTXzWQ1VYcDX7RZJO7sfdBn8MbKsYu31dhBdsDkb0fGo4Ol8HyWcLjMlKNLVp+TV1VJvs5vEIPJEtaL6mPS8Pqq+jT8vaDDHgzkDO/4qzMos/hJw1jmM9TWEEHyEoFARJ3gAxVJWBnEu0hoc/hM+/HMJ+nsILtf1Tu6PaZDH4cE15b5XbF6s2i8vcGWHSggYxhAz5/HT4HSLArsDRMXz2t+IiSpMl97vOunBtNVUnwZl1trN7YYRZ8pm3Wf+aN1940p16Lf16gfCBafUvtExVeeLw/9r/TA96PYVQgHvL9ulRp9jLlEp9UGi5VGzLQf75z9tmXFx43dQXIws/MN+vvqt1XVhYg3o9hPvdAwrv42/I5QGReX1YKwV9SDSUtxHv8NYxhPgdIkBWI7D73eflu/5OvslLIc4uWXV3zC6g3ZGpNiSlFBZKFfK4QcPXh78INqo9wLI4RMo1Io/rJku9jma8VSLD9D58vjqL6QLPSCqYMeT2WaTjOPShxpg9cdfTA/4b+7fNeWr2KQHsg3vN1FVawR5j4WoHIElRWXvlLBnhZKRX3A4xMNS2tsVKr2uK/iPfvrf7vj508Yz543/uK1uu9IBpuJAyGz9NXbHrzR+9310eDfzPVrvz/3rt3S+JfszzbTN54bdT865a9if83U0YPBK3ha5kvfQ+pQOAH6TP4PFWK1vE1QG504Blaztvpq5cID2AGXo9lVCAeWehpBXKc6gNQiQDxiK9TWFxsBOjka4AEeZT7wkX+7daVk2PZ+wHMyOuxjADxiI8VyKlj8Q/UAwJEgAAzOc2FUYBaBIgnfD2Bl82DgF5sJESqaKD757kfvhDtBZETcmVHeeX8qVp3gEz1Rh33gci+k7gHJcru89Mnz0R/ffbtCXPOfkiRS6zQWgQIgEvI4FwZoKeSHepxd5jXsyv8H/duiRVQLzw+oO1SKa8xhYXUUH0AuhEgnvD5EikAOnkXIKFeJuXzQYoAdPKxAgn2MinfsIEQ0M3HABlx4BkQw9gMjVgAOngXIKVykY0FntB2fzWAS9FE98S5sXHvnnnxcu6UADQjQDzBjm4AriFAAAANIUCQmsXLWHoMaMZRJkgNmx/9JOdS/VnVAgi5RkDOxTJ1Ximw/q7u2P9s3H/v6o0d0T97rmpKt3IG1h+rzshCaxAgnhg76eex6LIBcowj3b3y9e+ur/vgxOmsv2tt4l/2gs/MN6tvmboVbPK/I4c31nP+Fprn6xRWcLcU+bopz9dreIEW8XosI0CQKo5gAWZFgKA1fDzddul1Qd4+DASBAEGqfL1JEUBtvgZIkOdhnTrmZ7W74ublDjwF4CSvxzJfA+RdB56h5T547wMvn5sqBJiR12MZU1geGTvh5xr3lVQggEq+BsiAA8/Qcr7uBZGlvExjAdPyeixjI6FHZC+I/PJxh7dUIa+/eMKBJ0Etlc14chz/4mWXnqj8+c4lsTYInnt7wvzb9w7Gfte9310f7YCv5ejzI+Y3L50wH7w/uS+K3efZ8jVAgr1USqoQH3sKq3tWmWeLh7il0CMySJ96bbqFGzEC5PTEDP+/03v98MlYAXKsb7iuf68HaKK3WsiXSvm6Ekt0b7rBgadAM86+zbUCSfJ9LPO5iR7kbnSfz5XqvuN6Dlj03DnupUmS92MYAeIZH3ejV0h4UIWEIa1KRdn0FQGSoSD7INJDoAqB6+qtVE57usKwSd6PYT4HSJCbCY3nfRAJj28UNjjwJHBJZVVVYLwfw3xexivrp3c48BwtJ9NY3Zuu9/b5ZUXWkQPDXk/HtVIldF15Z2/EmEY69/Z4Xf9OWY5b69/7R30h4/1+tjkOPEND8rmCHPMa5AgkA8q/vPY9B56kcTLF8f11D/n6+C319cKGCx8YJECOHhg2Rw4OB/P1K7akVC563Qf5uAPP0JCh8cGJzraunR4+etPOf3Q+2tl91aev9PZriPogc+ZQhdQge35u3fW1C//QwkVt0fd+Te+1k/0wNtF5q1Qu3u/71+D7WVhBHmkijir4BCoN9YXcWDgjCdnbd/dO+3+W42Fu291rfnD4O2ZNzyonnhd1UTF2+R4gwd5MqOFYEBkgb5thgIQxd/74WzWvBK4OEk499oqKscv3ADnuwDNk4uzpCa+X81bIoDfTp+yQSd+jnkCQINn21NboF9cIe0HF2OV7gAR7JpZ4/aWTDjxF82RVFtMwF8m7aHSVnYTOA313RaHMfhunqRi7vG2im8lG+miojXQTrWQaV7OzWxrDsjIr9KawhEcS03pShXTdep25Yu4VLFRwUKlc3KLh69BwoVSwVYiWaawKGThDrkSSCo8KqUA23NMd9Ue4j8UpasYsrysQ0dnWtcYY0+HAo2SisqRXi1ArkaTDo5oEyZe++kWzdPWS6O6M9975Qyr/HcT2y6Hxwec1vC4NFcjLDjxDZo6/pO+SptAqkTTDoxr9EWeoGbM0VCDy27ezf5JsSAWycHGbupU3UonI16X9FsMN966LVly1Ev2RzO0aGh9UUWJ7HyDyjehs67rPGBPsRyrZkbymV98ndhnoZNrl9ZdOREGpiVQAW3/0TfPlWzsz+aqu+OQnoopEdrRLL+335XdUvV+HTWjYgV6hYQrLhLwj3djzkTQ106vJIPeDl3RtkpNg3N53txO9K9k/IhsWZf8IpwK0hKqxyvsKxExOY8n8zd848CiZ0dZMryaflqXCmnfVPDN6/LdeVyMyZbXlR990rgchZ2zJknAN79hxPxkaHzyi5YvREiAfhtwHEbJqSaYjNDdHl3R81vzlV1d4OeUiFZR80pfVUC6Tdyz9kfN/Om9Gj485/aye2q6l/2G0BAh9kEny6VH7eUi+LUmVaSFZ9XTLP3/Fm9OTpeL7QtfSqKKVoOYe9MSo6n8YLQFiLu4HWebAo2Rm7OTvJlfXfNLne8LikSkXaUDLSq3TJ37n3I12Ehzf+N6GaHnun+c+7cAT1U8CT6YOpWcj01qB3hqYpJ9r2f9RoSlA5hljNjrwKJmReWtZmhnSqawyuMncvVQkMsBlPbUl715uD5Q7PLQsrZYAXNNzbfSzJR9S6I80bM/Q+KCqkzO8vZFwqpBvKKwmUzyyainUjWIy3XL8xRPRfSmtWpkm1cbq3mujDYG1jl/3nbzfZ4uH1O/PSYn3NxBOpSZAzGSIDId8rEmFrPSRM5BCJ4OdLHGWQJHfZb9MEiScpdKQXytvXq4+NKYj7/Ondz+T2DsNwEipXFS3WUtbgMjJvDsceJRMhV6FzEQC5ezpcXPq2Kg5NzYereYydjCcTmUqUCqMBbLbf9nV0bRUiIExHanwdm983L0Hc9OuUrmo7uRwbd3WPgJkcmf6occOt/yIDNfJwC+/uLkvGRKmUu0eevSwhi8nbX0avygtO9EjpXJxJORrbqv173+Vc46QOrnXHjWN2rFJHVUBYqlM+kYwR420SaWLmtSOSRoDZL8Dz+AECY/niodCfw1IiVS4UumiJrVjkroAYRrrUkcODjOVhcTJh5OnHzjAi61N7fSVUVqBGKaxLiV/0JnKQpKe2n7gwio2zEr1WKQ1QJjGqiJ/0JnKQlJkkyYbCWNTPRapDBCmsS53hD/0SIDs/XiWDyNxjWievjKKKxCxx4FncIpMO3CyKhoV9T22H2Q6ND71MyGaA4Q+yBTyB1+W9gKNkGlQrTdfpkT9GKTmNN6phsYHJzrbujpCP+J9Krk/Q06tlfsegLhkue5//2yQ9xVfX6lc/IkvD9sozRWIoZk+PRkMpBEKxCG9MxZh1C2IsUfVYYrTyecKsgmi3b0ny94DfXepubMC6ZApqz13PEHfoz6y9yOIA9e0VyCGKmRmMjDQVMdMJDR+xnE4jQhmzAkhQPY58AxOqjTVGSAwlfxMyAcMNgs2JJgxR20TvcI209u5aGp60lQ/8es3zJc2fDGIu9QRz+N//2R0Dzrqtq9ULlKBKMM01ixknpsmKSrk6BvOT2tYUGON+grETFYho51tXWtpps9s7OSZqB+y4ublrj4iWkDC4wgr9Bo1UCoXd/n56I0JpQIxVCG1ycDBCavhIjyaFtwYE0QFYiarkJHOtq7NxhgutJ4FlUiYCI+mydLdLZ5/DXULqQIRQZWXjaISCQvhkYggxxb1GwmnYmNhfLLJcNuTW828q+b68siogyzVlQM2OaW5acFsHJwqtArEUIXExy5kvSr7PAiPRAQ7pgRXgRiqkLpJBSKVCMee6CAfDORYdk7WTUSw1YcJtAIxVCH14dOqHrK/Q76XhEdigh5LgqxADFVIwzbcu85suKfb06cPm5zCzIbRRAVdfZiAKxAT+ieHRh169LDZczt9EZ9UzjwjPBIX/BgSbAViqEKaIn2RO3/8LbP0uqA/gDmPfkdqgq8+TEgbCafT2db1ljHmVveezH3nPzofXUrF7YbukikrOY5dDsxE4rYMjQ+eDP21Bl2BmMkqpN8Ys9aBR/GWrM667cEeVmk5Qk4SeIoDEdMkZ14F3wg0oVcg5mIVstmBR/GWfML99c9fM2bOHLN42TUcC58hqTr2/tN/mN+X3wn2HbSAVB+j6r/KGIKvQMxkFbKXEEnGwkXzzW27e+mNtNjkkfwvUHWkb1+IZ17NJPgKxExWIS8bY75tjOHMjiZJT0R6I3Io45KOz3IMSspkhdV/PvRfUaOc64lTJy94/dD4IEsQLQJk8qTeDzvbuubRC0mOTKHIdArTWumR9/vTe54xp44xm9IiPyyVi78M4iuNiSmsKizrTYdUId2bbjDdd1xPRZIAqfBkPw73lbcUy3anQQVSpbOt6zi9kOTJkl+Zm//1L14z5//0f1QkDZLgkGW5R+zyabRUD43zy1GBTEFDPX2VimRNzyqzYBH3e9VCxZE5GuczIECmyOcKMqK9yc2FrSEhsrp3Fau2ppCGuFQa/ftf4diYbElqLymVi6T3NAiQaeRzhY3GmIPOPZhisgmxe9P1ZsVNy4Puk8iJx/KLGwKd0VMqF/tCfwkzIUBmkM8VJEA2OvlwyklVIneyh3Ivu+zhkGkqCQ6mqZzSVyoXe0J/CbMhQGbAVFb2pBJZedNkkMgUl6bKhNBwHlNXMRAgs2Aqyy0SIpNh0u7duVvSx5CVaBIY8juh4TymrmIgQGpgKstNUo1IoEiQRIGy7BqnKhRpgktQSKUhG/04Tt0rTF3FxGL82mT5XgcbDN0in+grDecKOYdr0fJrolBZvOzqCyGTJgmKs6fHzdiJM+ac/Z3zqLw2av/MIwYqkBjyuYIccdLv/INiRpUgkZBZsLjtwj8W/e9Z9qJMPSbk1NHJcJCwYBpKpe5SuTgQ+kuIiwCJKZ8r7DTG7PDiYQE0YlepXNzJm4uPAKkDl08BanFJVAM+5t0TZ6vHLu8DoMeE/bONOhEgdbBrwvlBA3TpYb9HYziNt05yImdnW9ccprIAFaTvsY9vZWPogTSI/SGA99jv0SSmsBona8VHfH14IHAj7PdoHhVIE/K5QofdH8J5WYA/Jux+Dz4ANokAaRKbDAHvsFkwITTRm2Sb6m/RDwG8sIVDEpNDgCRgaHxwpLOtS6ax1nj/xQB6PVIqF3/I9zc5BEhChsYHf9XZ1tVuD14E4Ba51zzP9yRZ9EASls8VhgkRwCkjpXJxFd+S5LGMN3ndLO8FnDFi/0wiBVQgKbDX4fZTiQCZGrErrjimJCUESEryuYL0Q4bZIwJkQkJjValcHOX1p4cprJTYH9xuTu8FWq6yUZDwSBkVSMrYrQ60FLvMW4gAaQFCBGgJwqPFCJAWIUSAVBEeGSBAWogQAVJBeGSEJnoL2R9waazT3AOSMUp4ZIcKJAPsEwESwT6PjBEgGSFEgKYQHg5gCisj9gdfprM4WhqoTx/h4QYqEAfkc4W9xpjNob8HIAY5VZeraB3Bce4OGBoffL6zrUvCfG3o7wKYxa5SuXg/L8gdBIgjhsYHB+zNhhIic0N/H0AVmarKl8rFR3gpbmEKyzHsFQEuwR4PhxEgDmKFFhBhpZXjCBCH0VxHwGiWe4BlvA6zf4C2cCQ8AiI/61sIDz9QgXjA9kUOGmPaQ38XUE2OJemh3+EPKhAP2D9Qq9h0CMX67A2ChIdHqEA8k88VpCfyMKu0oIRMWd1fKhf38Q31DwHiITultZdVWvDciO13UHV4igDxWD5X2BIxC0MAAAK3SURBVGmM2RH6e4CXZFf5Tr51fiNAPEc1As9QdShCgChgNx7eRzUCx1F1KEOAKEI1AkdRdShFgChkeyPbWKmFjMkKqz1UHXoRIErlc4V2u9x3Y+jvApnos8tzR3n9ehEgyuVzhbV2Wotd7GiFUTtdNcDb1o8ACUQ+V6g02ZnWQhombJOcOzsCwoVSgRgaHzzS2db1E3tZ1ZrQ3wcS9Yg9w4qqIzBUIAGy/ZEdHBWPJu2zVQd9jkARIAGzy34f5i521GnANshZlhs4AgSVRvsOggQ1DNiKg6kqRAgQXGCDZBtLfzFFn93PQXDgEgQILkOPBBY9DsyKAMGMbJBsZld7UKLd4/ZOcoIDsyJAUJM9rHGjrUrYkKiThMUuma4qlYvcwY9YCBDUxfZJNjG9pYZMU+2nv4FGECBoiK1KNtsw4fRfv8jy2/12mopqAw0jQNA0u59kk53mYorLTaN2NdV+9m8gKQQIEpXPFSREbrFhQuM9WxM2NJ4vlYt9Ib8IpIMAQWpsmNxIZdJSlUrjZUIDaSNA0BJ2mqtSndAzSZZMST1vV1AxPYWWIUDQcrYBv9aGyVqqk7qN2mNFJDQGaIQjKwQIMmc3LK61010dVCiXGbG/XraBwQY/OIEAgXNshdJhQ2Wl/etQqpRRGxbHbZUxQoUBVxEg8EJVqHTYUGm3f+3rSq8JGxSjNixGCAv4hgCB16qCpfL7p6qmwLI+nr6yu1vC4V37+wRBAS0IEKhneyzVU2DTBcvnYkyTSbXw1jR/v/oYEMIBAAAAAAAAAAAAAAAAAAAAAAAAAAAAAAAAAAAAAAAAAAAAAAAAAAAAAAAAAAAAABA8AAAAAAAAAAAAAAAAAAAAAAAAAAAAAAAAAAAAAAAAAAAAAAAAAAAAAAAAAAAAAAAAAAAAAAAAAAAAAAAApMYY8/+atIhHy61aHgAAAABJRU5ErkJggg==;" parent="1" vertex="1">
          <mxGeometry x="182.7" y="540" width="79.02" height="79.02" as="geometry" />
        </mxCell>
        <mxCell id="wj6WeK8VYMMcLy92pw_4-21" style="edgeStyle=orthogonalEdgeStyle;rounded=1;orthogonalLoop=1;jettySize=auto;html=1;entryX=1;entryY=0.5;entryDx=0;entryDy=0;fontSize=12;strokeColor=#4D4D4D;fontColor=#FFFFFF;fillColor=none;fillStyle=auto;dashed=1;strokeWidth=2;dashPattern=1 1;" parent="1" source="kEX54H8yx_akzkPmugQH-6" target="wj6WeK8VYMMcLy92pw_4-19" edge="1">
          <mxGeometry relative="1" as="geometry" />
        </mxCell>
        <mxCell id="wj6WeK8VYMMcLy92pw_4-24" value="&lt;div style=&quot;font-size: 12px;&quot;&gt;&lt;font color=&quot;#808080&quot; face=&quot;Tahoma&quot; style=&quot;font-size: 12px;&quot;&gt;&lt;b&gt;GestÃ£o de Receitas,&lt;/b&gt;&lt;/font&gt;&lt;/div&gt;&lt;div style=&quot;font-size: 12px;&quot;&gt;&lt;font color=&quot;#808080&quot; face=&quot;Tahoma&quot; style=&quot;font-size: 12px;&quot;&gt;&lt;b&gt;GestÃ£o de Despesas,&lt;/b&gt;&lt;/font&gt;&lt;/div&gt;&lt;div style=&quot;font-size: 12px;&quot;&gt;&lt;font color=&quot;#808080&quot; face=&quot;Tahoma&quot; style=&quot;font-size: 12px;&quot;&gt;&lt;b&gt;Listagem das Receitas,&lt;/b&gt;&lt;/font&gt;&lt;/div&gt;&lt;div style=&quot;font-size: 12px;&quot;&gt;&lt;font color=&quot;#808080&quot; face=&quot;Tahoma&quot; style=&quot;font-size: 12px;&quot;&gt;&lt;b&gt;Listagem das Despesas,&lt;/b&gt;&lt;/font&gt;&lt;/div&gt;&lt;div style=&quot;font-size: 12px;&quot;&gt;&lt;font color=&quot;#808080&quot; face=&quot;Tahoma&quot; style=&quot;font-size: 12px;&quot;&gt;&lt;b&gt;Prenchimento de GrÃ¡ficos&lt;/b&gt;&lt;/font&gt;&lt;/div&gt;" style="edgeLabel;html=1;align=center;verticalAlign=middle;resizable=0;points=[];" parent="wj6WeK8VYMMcLy92pw_4-21" vertex="1" connectable="0">
          <mxGeometry x="0.3349" y="-2" relative="1" as="geometry">
            <mxPoint as="offset" />
          </mxGeometry>
        </mxCell>
        <mxCell id="wj6WeK8VYMMcLy92pw_4-26" style="edgeStyle=orthogonalEdgeStyle;rounded=1;orthogonalLoop=1;jettySize=auto;html=1;exitX=0.5;exitY=1;exitDx=0;exitDy=0;fontSize=12;strokeColor=#4D4D4D;fontColor=#FFFFFF;fillColor=none;fillStyle=auto;dashed=1;strokeWidth=2;dashPattern=1 1;" parent="1" target="wj6WeK8VYMMcLy92pw_4-16" edge="1">
          <mxGeometry relative="1" as="geometry">
            <mxPoint x="624.7" y="706" as="sourcePoint" />
          </mxGeometry>
        </mxCell>
        <mxCell id="wj6WeK8VYMMcLy92pw_4-27" value="&lt;b style=&quot;border-color: var(--border-color); color: rgb(128, 128, 128); font-family: Tahoma; font-size: 12px;&quot;&gt;VerificaÃ§Ã£o de logs,&lt;br style=&quot;border-color: var(--border-color);&quot;&gt;Acompanhamento &lt;br&gt;de carga&lt;/b&gt;" style="edgeLabel;html=1;align=center;verticalAlign=middle;resizable=0;points=[];" parent="wj6WeK8VYMMcLy92pw_4-26" vertex="1" connectable="0">
          <mxGeometry x="-0.0875" y="-2" relative="1" as="geometry">
            <mxPoint as="offset" />
          </mxGeometry>
        </mxCell>
        <mxCell id="-YQp-JLnbvCiiVzDBKPW-6" value="" style="rounded=1;whiteSpace=wrap;html=1;fillStyle=auto;strokeColor=#4D4D4D;fontColor=#FFFFFF;fillColor=none;dashed=1;strokeWidth=2;container=0;" vertex="1" parent="1">
          <mxGeometry x="539.7" y="546" width="170" height="160" as="geometry" />
        </mxCell>
        <mxCell id="-YQp-JLnbvCiiVzDBKPW-5" value="" style="shape=image;verticalLabelPosition=bottom;labelBackgroundColor=default;verticalAlign=top;aspect=fixed;imageAspect=0;image=https://cdn.icon-icons.com/icons2/2107/PNG/512/file_type_docker_icon_130643.png;container=0;" vertex="1" parent="1">
          <mxGeometry x="515.7" y="499" width="80" height="80" as="geometry" />
        </mxCell>
        <mxCell id="-YQp-JLnbvCiiVzDBKPW-17" value="Sistema de Gerenciamento de Logs e AnÃ¡lise de SaÃºde" style="whiteSpace=wrap;html=1;aspect=fixed;strokeColor=#666666;fontColor=#FFFFFF;fontStyle=1;fontSize=12;fontFamily=Tahoma;fillColor=#46bdb1;container=0;direction=west;" vertex="1" parent="1">
          <mxGeometry x="557.14" y="588" width="97.86" height="97.86" as="geometry" />
        </mxCell>
        <mxCell id="-YQp-JLnbvCiiVzDBKPW-13" value="" style="group" vertex="1" connectable="0" parent="1">
          <mxGeometry x="644" y="554" width="61.7" height="70" as="geometry" />
        </mxCell>
        <mxCell id="-YQp-JLnbvCiiVzDBKPW-14" value="" style="ellipse;whiteSpace=wrap;html=1;aspect=fixed;fillColor=#46bdb1;strokeColor=none;" vertex="1" parent="-YQp-JLnbvCiiVzDBKPW-13">
          <mxGeometry width="58.38" height="58.38" as="geometry" />
        </mxCell>
        <mxCell id="-YQp-JLnbvCiiVzDBKPW-15" value="" style="shape=image;verticalLabelPosition=bottom;labelBackgroundColor=default;verticalAlign=top;aspect=fixed;imageAspect=0;image=https://cdn.freebiesupply.com/logos/large/2x/elasticsearch-logo-png-transparent.png;fillColor=#46bdb1;" vertex="1" parent="-YQp-JLnbvCiiVzDBKPW-13">
          <mxGeometry x="11.568750000000003" y="11.125" width="36.487500000000004" height="36.487500000000004" as="geometry" />
        </mxCell>
      </root>
    </mxGraphModel>
  </diagram>
</mxfile>
